Commissioner-FlairExtraLightItalic.ufo
<glyph name="numbersign" format="2">
  <advance width="1349.2421052631578"/>
  <unicode hex="0023"/>
  <outline>
    <contour>
      <point x="3.6210526315789493" y="326.37894736842105" type="line"/>
      <point x="122.65263157894739" y="331.22105263157897"/>
      <point x="235.51578947368424" y="331.38947368421054"/>
      <point x="332.04210526315785" y="331.38947368421054" type="curve"/>
      <point x="829.3473684210526" y="331.38947368421054" type="line"/>
      <point x="925.8736842105263" y="331.38947368421054"/>
      <point x="1038.3999999999999" y="331.22105263157897"/>
      <point x="1157.0947368421052" y="326.37894736842105" type="curve"/>
      <point x="1174.3157894736844" y="414.63157894736844" type="line"/>
      <point x="1055.2842105263157" y="409.7894736842105"/>
      <point x="942.5894736842106" y="409.62105263157895"/>
      <point x="846.0631578947368" y="409.62105263157895" type="curve"/>
      <point x="348.7578947368421" y="409.62105263157895" type="line"/>
      <point x="252.23157894736843" y="409.62105263157895"/>
      <point x="139.53684210526316" y="409.7894736842105"/>
      <point x="20.842105263157897" y="414.63157894736844" type="curve"/>
    </contour>
    <contour>
      <point x="140.73684210526315" y="0.0" type="curve"/>
      <point x="242.18947368421053" y="0.0" type="line"/>
      <point x="296.9894736842105" y="136.16842105263157"/>
      <point x="343.1578947368421" y="253.34736842105264"/>
      <point x="412.65263157894736" y="419.6842105263158" type="curve"/>
      <point x="604.9684210526316" y="876.6947368421052" type="line"/>
      <point x="680.2947368421052" y="1055.2"/>
      <point x="731.4526315789474" y="1168.6947368421052"/>
      <point x="793.3052631578947" y="1309.3684210526317" type="curve"/>
      <point x="692.1894736842105" y="1309.3684210526317" type="line"/>
      <point x="638.378947368421" y="1168.0210526315789"/>
      <point x="589.5578947368421" y="1051.0315789473684"/>
      <point x="516.2315789473685" y="876.6947368421053" type="curve"/>
      <point x="323.91578947368424" y="419.6842105263158" type="line"/>
      <point x="254.42105263157896" y="255.17894736842106"/>
      <point x="201.9157894736842" y="135.49473684210525"/>
    </contour>
    <contour>
      <point x="241.26315789473685" y="888.7368421052632" type="line"/>
      <point x="360.46315789473687" y="893.578947368421"/>
      <point x="473.15789473684214" y="893.7473684210527"/>
      <point x="569.6842105263157" y="893.7473684210527" type="curve"/>
      <point x="1066.9894736842105" y="893.7473684210527" type="line"/>
      <point x="1163.5157894736842" y="893.7473684210527"/>
      <point x="1276.2105263157894" y="893.578947368421"/>
      <point x="1394.736842105263" y="888.7368421052632" type="curve"/>
      <point x="1412.1263157894737" y="976.9894736842105" type="line"/>
      <point x="1292.9263157894736" y="972.1473684210526"/>
      <point x="1180.2315789473685" y="971.978947368421"/>
      <point x="1083.7052631578947" y="971.978947368421" type="curve"/>
      <point x="586.3999999999999" y="971.978947368421" type="line"/>
      <point x="489.87368421052633" y="971.978947368421"/>
      <point x="377.17894736842106" y="972.1473684210526"/>
      <point x="258.65263157894736" y="976.9894736842105" type="curve"/>
    </contour>
    <contour>
      <point x="605.7894736842105" y="0.0" type="curve"/>
      <point x="707.242105263158" y="0.0" type="line"/>
      <point x="762.0421052631579" y="136.16842105263157"/>
      <point x="808.2105263157895" y="253.34736842105264"/>
      <point x="877.7052631578948" y="419.6842105263158" type="curve"/>
      <point x="1070.021052631579" y="876.6947368421052" type="line"/>
      <point x="1145.3473684210528" y="1055.2"/>
      <point x="1196.5052631578947" y="1168.6947368421052"/>
      <point x="1258.357894736842" y="1309.3684210526317" type="curve"/>
      <point x="1157.2421052631578" y="1309.3684210526317" type="line"/>
      <point x="1103.4315789473683" y="1168.0210526315789"/>
      <point x="1054.6105263157897" y="1051.0315789473684"/>
      <point x="981.2842105263159" y="876.6947368421053" type="curve"/>
      <point x="788.9684210526316" y="419.6842105263158" type="line"/>
      <point x="719.4736842105264" y="255.17894736842106"/>
      <point x="666.9684210526315" y="135.49473684210525"/>
    </contour>
  </outline>
</glyph>
<glyph name="dollar" format="2">
  <advance width="1110.0631578947368"/>
  <unicode hex="0024"/>
  <outline>
    <contour>
      <point x="513.0105263157894" y="-19.010526315789473" type="curve" smooth="yes"/>
      <point x="796.5894736842106" y="-19.010526315789473"/>
      <point x="940.2736842105263" y="103.47368421052632"/>
      <point x="983.6210526315789" y="312.2105263157894" type="curve" smooth="yes"/>
      <point x="1020.8" y="489.93684210526317"/>
      <point x="944.4631578947368" y="614.1052631578948"/>
      <point x="643.978947368421" y="741.7473684210526" type="curve" smooth="yes"/>
      <point x="387.05263157894734" y="851.5368421052632"/>
      <point x="301.4105263157895" y="924.5052631578948"/>
      <point x="335.22105263157897" y="1081.8947368421054" type="curve" smooth="yes"/>
      <point x="372.5263157894737" y="1261.0947368421055"/>
      <point x="544.2526315789473" y="1302.9052631578948"/>
      <point x="703.5157894736842" y="1302.9052631578948" type="curve"/>
      <point x="771.5157894736843" y="1302.9052631578948"/>
      <point x="907.5368421052632" y="1266.063157894737"/>
      <point x="1065.0526315789475" y="1182.2315789473685" type="curve"/>
      <point x="1100.6315789473683" y="1273.3473684210526" type="line"/>
      <point x="997.7894736842105" y="1319.8315789473684"/>
      <point x="835.7052631578947" y="1392.6736842105263"/>
      <point x="701.3263157894736" y="1392.6736842105263" type="curve" smooth="yes"/>
      <point x="437.43157894736845" y="1392.6736842105263"/>
      <point x="285.09473684210525" y="1283.663157894737"/>
      <point x="245.7473684210526" y="1096.7578947368422" type="curve" smooth="yes"/>
      <point x="200.73684210526315" y="887.0315789473684"/>
      <point x="315.57894736842104" y="785.3473684210526"/>
      <point x="580.6947368421053" y="670.378947368421" type="curve" smooth="yes"/>
      <point x="803.6210526315789" y="574.0842105263157"/>
      <point x="927.957894736842" y="489.95789473684215"/>
      <point x="893.978947368421" y="325.89473684210526" type="curve" smooth="yes"/>
      <point x="849.5157894736842" y="112.4"/>
      <point x="676.6315789473684" y="70.08421052631579"/>
      <point x="514.0210526315789" y="70.08421052631579" type="curve"/>
      <point x="389.0315789473684" y="70.08421052631579"/>
      <point x="239.3263157894737" y="125.26315789473686"/>
      <point x="92.33684210526314" y="210.42105263157896" type="curve"/>
      <point x="58.75789473684209" y="116.12631578947368" type="line"/>
      <point x="164.92631578947365" y="65.47368421052633"/>
      <point x="326.94736842105266" y="-19.010526315789473"/>
    </contour>
    <contour>
      <point x="354.7368421052631" y="-274.0" type="curve"/>
      <point x="448.0" y="-274.0" type="line"/>
      <point x="492.4842105263158" y="-40.0"/>
      <point x="536.3157894736842" y="168.0"/>
      <point x="582.3157894736842" y="384.0" type="curve"/>
      <point x="702.3157894736842" y="948.0" type="line"/>
      <point x="748.3157894736842" y="1164.0"/>
      <point x="792.4842105263158" y="1372.0"/>
      <point x="848.0" y="1606.0" type="curve"/>
      <point x="754.736842105263" y="1606.0" type="line"/>
      <point x="710.2526315789472" y="1372.0"/>
      <point x="666.4210526315788" y="1164.0"/>
      <point x="620.4210526315788" y="948.0" type="curve"/>
      <point x="500.4210526315789" y="384.0" type="line"/>
      <point x="454.4210526315789" y="168.0"/>
      <point x="410.08421052631576" y="-40.0"/>
    </contour>
  </outline>
</glyph>
<glyph name="percent" format="2">
  <advance width="1696.6315789473683"/>
  <unicode hex="0025"/>
  <outline>
    <contour>
      <point x="284.6315789473684" y="0.0" type="curve"/>
      <point x="401.62105263157895" y="0.0" type="line"/>
      <point x="507.7684210526316" y="147.83157894736843"/>
      <point x="606.2736842105263" y="275.8315789473684"/>
      <point x="747.1157894736842" y="458.1684210526316" type="curve"/>
      <point x="1132.2947368421053" y="957.6631578947369" type="line"/>
      <point x="1278.8000000000002" y="1147.494736842105"/>
      <point x="1376.4842105263158" y="1272.3368421052633"/>
      <point x="1502.505263157895" y="1426.0" type="curve"/>
      <point x="1385.8526315789475" y="1426.0" type="line"/>
      <point x="1275.536842105263" y="1272.3368421052633"/>
      <point x="1178.5263157894738" y="1147.494736842105"/>
      <point x="1032.0210526315789" y="957.6631578947369" type="curve"/>
      <point x="646.8421052631579" y="458.1684210526316" type="line"/>
      <point x="506.0" y="275.8315789473684"/>
      <point x="406.9894736842105" y="147.83157894736843"/>
    </contour>
    <contour>
      <point x="540.357894736842" y="751.9578947368421" type="curve" smooth="yes"/>
      <point x="725.578947368421" y="751.9578947368421"/>
      <point x="869.9157894736842" y="851.9578947368421"/>
      <point x="914.2526315789473" y="1060.1473684210528" type="curve" smooth="yes"/>
      <point x="956.5894736842105" y="1261.8315789473684"/>
      <point x="813.7473684210527" y="1450.6736842105263"/>
      <point x="589.6842105263158" y="1450.6736842105263" type="curve" smooth="yes"/>
      <point x="396.8" y="1450.6736842105263"/>
      <point x="254.63157894736844" y="1336.842105263158"/>
      <point x="210.63157894736844" y="1136.505263157895" type="curve" smooth="yes"/>
      <point x="165.78947368421055" y="928.8000000000001"/>
      <point x="305.1368421052632" y="751.9578947368421"/>
    </contour>
    <contour>
      <point x="543.3684210526316" y="830.8" type="curve"/>
      <point x="351.8105263157894" y="835.1368421052631"/>
      <point x="259.2" y="959.0736842105264"/>
      <point x="293.178947368421" y="1126.9684210526316" type="curve" smooth="yes"/>
      <point x="325.4947368421052" y="1287.7052631578947"/>
      <point x="429.2631578947368" y="1367.3263157894737"/>
      <point x="586.5052631578947" y="1371.8315789473684" type="curve"/>
      <point x="766.5684210526316" y="1367.3263157894737"/>
      <point x="864.8421052631579" y="1231.8947368421054"/>
      <point x="830.8631578947369" y="1070.1684210526316" type="curve" smooth="yes"/>
      <point x="796.7157894736843" y="903.2631578947369"/>
      <point x="699.6" y="835.1368421052631"/>
    </contour>
    <contour>
      <point x="1205.1157894736841" y="-19.178947368421053" type="curve" smooth="yes"/>
      <point x="1390.336842105263" y="-19.178947368421053"/>
      <point x="1534.6736842105263" y="80.82105263157895"/>
      <point x="1579.0105263157893" y="289.0105263157895" type="curve" smooth="yes"/>
      <point x="1621.3473684210526" y="490.69473684210527"/>
      <point x="1478.5052631578947" y="679.5368421052632"/>
      <point x="1254.442105263158" y="679.5368421052632" type="curve" smooth="yes"/>
      <point x="1061.5578947368422" y="679.5368421052632"/>
      <point x="919.3894736842105" y="565.7052631578947"/>
      <point x="875.3894736842105" y="365.36842105263156" type="curve" smooth="yes"/>
      <point x="830.5473684210526" y="157.66315789473683"/>
      <point x="969.8947368421054" y="-19.178947368421053"/>
    </contour>
    <contour>
      <point x="1208.1263157894737" y="59.66315789473684" type="curve"/>
      <point x="1016.5684210526315" y="63.99999999999999"/>
      <point x="923.9578947368421" y="187.93684210526317"/>
      <point x="957.9368421052632" y="355.8315789473684" type="curve" smooth="yes"/>
      <point x="990.0842105263158" y="516.5684210526315"/>
      <point x="1094.0210526315789" y="596.1894736842106"/>
      <point x="1251.2631578947369" y="600.6947368421053" type="curve"/>
      <point x="1431.3263157894737" y="596.1894736842106"/>
      <point x="1529.6000000000001" y="460.7578947368421"/>
      <point x="1495.621052631579" y="299.0315789473684" type="curve" smooth="yes"/>
      <point x="1461.3052631578948" y="132.1263157894737"/>
      <point x="1364.3578947368421" y="63.99999999999999"/>
    </contour>
  </outline>
</glyph>
<glyph name="ampersand" format="2">
  <advance width="1436.183908045977"/>
  <unicode hex="0026"/>
  <outline>
    <contour>
      <point x="1162.8735632183907" y="0.0" type="curve"/>
      <point x="1292.9655172413793" y="0.0" type="line"/>
      <point x="1198.183908045977" y="109.14942528735632"/>
      <point x="1108.5057471264367" y="220.29885057471265"/>
      <point x="1016.6666666666666" y="330.71264367816093" type="curve"/>
      <point x="640.0229885057471" y="793.7701149425287" type="line" smooth="yes"/>
      <point x="535.1724137931035" y="922.9885057471264"/>
      <point x="496.48275862068965" y="1031.8390804597702"/>
      <point x="523.3793103448276" y="1157.9540229885056" type="curve" smooth="yes"/>
      <point x="551.9080459770115" y="1286.5977011494251"/>
      <point x="645.287356321839" y="1363.7701149425288"/>
      <point x="786.9885057471265" y="1367.7701149425288" type="curve"/>
      <point x="911.471264367816" y="1363.4022988505749"/>
      <point x="996.1609195402299" y="1269.126436781609"/>
      <point x="968.0" y="1129.2183908045977" type="curve" smooth="yes"/>
      <point x="936.5747126436781" y="975.5172413793103"/>
      <point x="777.7701149425288" y="906.0919540229886"/>
      <point x="605.8620689655173" y="825.9310344827585" type="curve"/>
      <point x="655.1034482758621" y="761.7471264367816" type="line"/>
      <point x="821.4252873563219" y="840.1149425287357"/>
      <point x="1018.3218390804598" y="925.7471264367816"/>
      <point x="1056.3218390804598" y="1114.2758620689656" type="curve" smooth="yes"/>
      <point x="1095.0574712643677" y="1305.2183908045977"/>
      <point x="963.3333333333333" y="1450.7356321839081"/>
      <point x="788.6206896551724" y="1450.7356321839081" type="curve" smooth="yes"/>
      <point x="615.8390804597701" y="1450.7356321839081"/>
      <point x="469.21839080459773" y="1347.6781609195402"/>
      <point x="430.85057471264366" y="1170.1609195402298" type="curve" smooth="yes"/>
      <point x="395.58620689655174" y="1000.7356321839081"/>
      <point x="462.11494252873564" y="868.1609195402299"/>
      <point x="567.1724137931034" y="738.0" type="curve" smooth="yes"/>
      <point x="948.0229885057471" y="272.0" type="line"/>
      <point x="1022.9195402298851" y="182.0"/>
      <point x="1099.8160919540228" y="88.0"/>
    </contour>
    <contour>
      <point x="473.63218390804593" y="-18.735632183908045" type="curve" smooth="yes"/>
      <point x="656.3218390804598" y="-18.735632183908045"/>
      <point x="792.4827586206897" y="95.7471264367816"/>
      <point x="958.2758620689655" y="241.33333333333334" type="curve"/>
      <point x="983.0114942528735" y="241.33333333333334" type="line"/>
      <point x="978.8045977011494" y="266.64367816091954" type="line"/>
      <point x="921.2413793103449" y="321.0344827586207" type="line"/>
      <point x="756.2758620689655" y="160.39080459770113"/>
      <point x="629.2183908045978" y="68.27586206896552"/>
      <point x="479.51724137931035" y="68.27586206896552" type="curve"/>
      <point x="255.65517241379305" y="72.64367816091955"/>
      <point x="149.2183908045977" y="223.44827586206895"/>
      <point x="187.01149425287358" y="406.04597701149424" type="curve" smooth="yes"/>
      <point x="226.4367816091954" y="593.9080459770115"/>
      <point x="374.1379310344828" y="684.2298850574712"/>
      <point x="583.632183908046" y="754.0229885057472" type="curve"/>
      <point x="551.4942528735633" y="824.9425287356322" type="line"/>
      <point x="348.5977011494253" y="760.5747126436781"/>
      <point x="147.3793103448276" y="656.3678160919541"/>
      <point x="96.11494252873564" y="414.57471264367814" type="curve" smooth="yes"/>
      <point x="51.74712643678161" y="205.632183908046"/>
      <point x="182.6896551724138" y="-18.735632183908045"/>
    </contour>
    <contour>
      <point x="1026.712643678161" y="301.9310344827586" type="line"/>
      <point x="1138.9195402298851" y="430.45977011494256"/>
      <point x="1243.494252873563" y="551.7241379310345"/>
      <point x="1358.8045977011493" y="675.5172413793103" type="curve"/>
      <point x="1270.689655172414" y="735.0114942528736" type="line"/>
      <point x="1176.5287356321837" y="607.0114942528736"/>
      <point x="1078.896551724138" y="491.37931034482756"/>
      <point x="972.0" y="363.2183908045977" type="curve"/>
    </contour>
  </outline>
</glyph>
<glyph name="quotesingle" format="2">
  <advance width="377.62105263157895"/>
  <unicode hex="0027"/>
  <outline>
    <contour>
      <point x="215.57894736842107" y="913.978947368421" type="curve"/>
      <point x="291.9789473684211" y="915.978947368421" type="line"/>
      <point x="334.67368421052635" y="1108.2105263157894"/>
      <point x="384.69473684210527" y="1300.1052631578948"/>
      <point x="443.7263157894737" y="1488.1684210526316" type="curve"/>
      <point x="306.2526315789474" y="1485.4947368421053" type="line"/>
      <point x="284.42105263157896" y="1297.6"/>
      <point x="255.57894736842104" y="1107.7052631578947"/>
    </contour>
  </outline>
</glyph>
<glyph name="parenleft" format="2">
  <advance width="740.9684210526316"/>
  <unicode hex="0028"/>
  <outline>
    <contour>
      <point x="418.63157894736844" y="-229.55789473684212" type="curve"/>
      <point x="511.8736842105263" y="-199.30526315789473" type="line"/>
      <point x="326.7368421052632" y="44.694736842105264"/>
      <point x="193.26315789473685" y="316.6526315789473"/>
      <point x="271.0947368421053" y="679.978947368421" type="curve" smooth="yes"/>
      <point x="348.9263157894737" y="1045.3052631578946"/>
      <point x="589.7263157894737" y="1284.6315789473683"/>
      <point x="863.1999999999999" y="1483.3052631578948" type="curve"/>
      <point x="772.4631578947368" y="1525.221052631579" type="line"/>
      <point x="504.84210526315786" y="1318.9473684210525"/>
      <point x="256.4421052631579" y="1071.2421052631582"/>
      <point x="175.43157894736842" y="690.021052631579" type="curve" smooth="yes"/>
      <point x="94.42105263157896" y="310.6315789473684"/>
      <point x="242.65263157894734" y="20.042105263157897"/>
    </contour>
  </outline>
</glyph>
<glyph name="asterisk" format="2">
  <advance width="925.2631578947369"/>
  <unicode hex="002A"/>
  <outline>
    <contour>
      <point x="872.1684210526315" y="690.2526315789474" type="curve"/>
      <point x="934.4631578947368" y="756.2315789473685" type="line"/>
      <point x="820.4421052631579" y="853.0526315789474"/>
      <point x="707.0947368421052" y="953.8736842105263"/>
      <point x="597.4105263157895" y="1054.863157894737" type="curve"/>
      <point x="489.57894736842104" y="1163.7052631578947"/>
      <point x="385.91578947368424" y="1270.8842105263159"/>
      <point x="282.42105263157896" y="1380.3999999999999" type="curve"/>
      <point x="221.95789473684212" y="1314.421052631579" type="line"/>
      <point x="333.9789473684211" y="1217.6"/>
      <point x="447.66315789473686" y="1116.6105263157895"/>
      <point x="557.1789473684211" y="1013.621052631579" type="curve"/>
      <point x="664.8421052631579" y="906.778947368421"/>
      <point x="768.6736842105263" y="799.4315789473684"/>
    </contour>
    <contour>
      <point x="169.05263157894737" y="841.0736842105264" type="line"/>
      <point x="307.22105263157897" y="898.5894736842105"/>
      <point x="445.5578947368421" y="953.7684210526315"/>
      <point x="587.7263157894737" y="1008.778947368421" type="curve"/>
      <point x="728.9052631578948" y="1057.0947368421052"/>
      <point x="873.7473684210527" y="1103.4105263157894"/>
      <point x="1016.9263157894736" y="1145.7263157894733" type="curve"/>
      <point x="985.5368421052632" y="1229.578947368421" type="line"/>
      <point x="847.3684210526316" y="1171.8947368421054"/>
      <point x="709.0315789473684" y="1116.7157894736843"/>
      <point x="568.8631578947369" y="1063.7052631578947" type="curve"/>
      <point x="425.68421052631584" y="1013.3894736842105"/>
      <point x="282.67368421052635" y="968.9052631578948"/>
      <point x="137.49473684210528" y="924.9263157894737" type="curve"/>
    </contour>
    <contour>
      <point x="438.7789473684211" y="603.8315789473685" type="curve"/>
      <point x="527.1368421052631" y="583.9578947368421" type="line"/>
      <point x="551.4526315789474" y="732.8"/>
      <point x="578.1052631578948" y="881.6421052631579"/>
      <point x="604.9263157894737" y="1032.1473684210525" type="curve"/>
      <point x="640.4421052631579" y="1176.4842105263158"/>
      <point x="675.957894736842" y="1322.6526315789474"/>
      <point x="715.6421052631578" y="1466.9894736842105" type="curve"/>
      <point x="627.4526315789474" y="1486.6947368421054" type="line"/>
      <point x="603.1368421052631" y="1337.8526315789475"/>
      <point x="576.4842105263158" y="1189.178947368421"/>
      <point x="549.6631578947369" y="1044.0" type="curve"/>
      <point x="514.1473684210526" y="894.1684210526315"/>
      <point x="478.63157894736844" y="748.0"/>
    </contour>
  </outline>
</glyph>
<glyph name="plus" format="2">
  <advance width="1166.8842105263157"/>
  <unicode hex="002B"/>
  <outline>
    <contour>
      <point x="454.52631578947364" y="126.46315789473684" type="curve"/>
      <point x="554.6736842105263" y="126.46315789473684" type="line"/>
      <point x="576.3368421052633" y="243.49473684210525"/>
      <point x="598.8421052631579" y="358.0210526315789"/>
      <point x="619.3473684210526" y="454.37894736842105" type="curve"/>
      <point x="678.3368421052631" y="729.8315789473685" type="line"/>
      <point x="699.0105263157894" y="826.6947368421053"/>
      <point x="723.6842105263158" y="939.3894736842105"/>
      <point x="753.1999999999999" y="1058.2526315789473" type="curve"/>
      <point x="653.0526315789474" y="1058.2526315789473" type="line"/>
      <point x="631.3894736842104" y="941.2210526315789"/>
      <point x="608.8842105263158" y="826.6947368421053"/>
      <point x="588.2105263157894" y="729.6631578947369" type="curve"/>
      <point x="529.2210526315789" y="454.37894736842105" type="line"/>
      <point x="508.7157894736842" y="358.0210526315789"/>
      <point x="484.0421052631579" y="243.49473684210525"/>
    </contour>
    <contour>
      <point x="146.08421052631581" y="543.8736842105263" type="line"/>
      <point x="267.11578947368423" y="548.7157894736841"/>
      <point x="379.81052631578945" y="548.8842105263158"/>
      <point x="476.33684210526314" y="548.8842105263158" type="curve"/>
      <point x="715.3263157894737" y="548.8842105263158" type="line"/>
      <point x="811.8526315789474" y="548.8842105263158"/>
      <point x="924.5473684210526" y="548.7157894736841"/>
      <point x="1041.2421052631578" y="543.8736842105263" type="curve"/>
      <point x="1063.3052631578948" y="640.8421052631578" type="line"/>
      <point x="942.4421052631578" y="636.0"/>
      <point x="829.7473684210526" y="635.8315789473684"/>
      <point x="733.2210526315789" y="635.8315789473684" type="curve"/>
      <point x="494.2315789473684" y="635.8315789473684" type="line"/>
      <point x="397.7052631578947" y="635.8315789473684"/>
      <point x="285.0105263157895" y="636.0"/>
      <point x="168.14736842105265" y="640.8421052631578" type="curve"/>
    </contour>
  </outline>
</glyph>
<glyph name="comma" format="2">
  <advance width="437.7684210526316"/>
  <unicode hex="002C"/>
  <outline>
    <contour>
      <point x="-88.58947368421053" y="-314.0" type="curve"/>
      <point x="-12.273684210526303" y="-311.8315789473684" type="line"/>
      <point x="81.89473684210525" y="-213.3473684210526"/>
      <point x="206.6736842105263" y="-43.810526315789474"/>
      <point x="233.5157894736842" y="86.4" type="curve" smooth="yes"/>
      <point x="245.03157894736842" y="143.81052631578947"/>
      <point x="229.0105263157895" y="184.37894736842105"/>
      <point x="176.25263157894736" y="194.56842105263158" type="curve"/>
      <point x="111.26315789473684" y="191.22105263157894" type="line"/>
      <point x="107.93684210526315" y="138.0"/>
      <point x="99.6" y="84.77894736842106"/>
      <point x="88.75789473684209" y="32.56842105263158" type="curve"/>
      <point x="64.58947368421052" y="-82.44210526315788"/>
      <point x="11.221052631578958" y="-196.16842105263157"/>
    </contour>
  </outline>
</glyph>
<glyph name="hyphen" format="2">
  <advance width="841.6842105263158"/>
  <unicode hex="002D"/>
  <outline>
    <contour>
      <point x="145.9157894736842" y="543.0315789473684" type="line"/>
      <point x="250.10526315789474" y="547.8736842105262"/>
      <point x="348.12631578947367" y="548.0421052631579"/>
      <point x="431.9789473684211" y="548.0421052631579" type="curve"/>
      <point x="515.8315789473685" y="548.0421052631579"/>
      <point x="613.8526315789475" y="547.8736842105262"/>
      <point x="717.7052631578947" y="543.0315789473684" type="curve"/>
      <point x="737.7684210526315" y="640.0" type="line"/>
      <point x="631.7473684210527" y="635.1578947368422"/>
      <point x="533.5578947368421" y="634.9894736842106"/>
      <point x="449.70526315789476" y="634.9894736842106" type="curve"/>
      <point x="365.85263157894735" y="634.9894736842106"/>
      <point x="268.0" y="635.1578947368422"/>
      <point x="165.97894736842105" y="640.0" type="curve"/>
    </contour>
  </outline>
</glyph>
<glyph name="period" format="2">
  <advance width="441.6421052631579"/>
  <unicode hex="002E"/>
  <outline>
    <contour>
      <point x="126.08421052631579" y="-19.178947368421053" type="curve" smooth="yes"/>
      <point x="188.50526315789472" y="-19.178947368421053"/>
      <point x="222.71578947368423" y="7.200000000000001"/>
      <point x="237.8947368421053" y="79.43157894736842" type="curve" smooth="yes"/>
      <point x="249.07368421052635" y="143.32631578947368"/>
      <point x="210.21052631578948" y="185.2421052631579"/>
      <point x="142.10526315789474" y="185.2421052631579" type="curve" smooth="yes"/>
      <point x="79.83157894736843" y="185.2421052631579"/>
      <point x="45.473684210526315" y="160.86315789473684"/>
      <point x="34.463157894736845" y="103.81052631578947" type="curve" smooth="yes"/>
      <point x="19.115789473684213" y="32.4"/>
      <point x="56.65263157894737" y="-19.178947368421053"/>
    </contour>
  </outline>
</glyph>
<glyph name="slash" format="2">
  <advance width="883.9157894736843"/>
  <unicode hex="002F"/>
  <outline>
    <contour>
      <point x="-35.242105263157896" y="0.0" type="curve"/>
      <point x="80.8" y="0.0" type="line"/>
      <point x="171.4315789473684" y="148.0"/>
      <point x="251.91578947368424" y="274.0"/>
      <point x="372.0631578947368" y="456.0" type="curve"/>
      <point x="693.1789473684211" y="948.0" type="line"/>
      <point x="819.3263157894737" y="1142.0"/>
      <point x="904.3157894736843" y="1272.0"/>
      <point x="1010.8210526315788" y="1426.0" type="curve"/>
      <point x="894.9473684210526" y="1426.0" type="line"/>
      <point x="798.6526315789474" y="1272.0"/>
      <point x="716.0" y="1142.0"/>
      <point x="592.021052631579" y="952.1684210526316" type="curve"/>
      <point x="268.7368421052632" y="456.0" type="line"/>
      <point x="148.58947368421056" y="274.0"/>
      <point x="63.599999999999994" y="148.0"/>
    </contour>
  </outline>
</glyph>
<glyph name="zero" format="2">
  <advance width="1291.8947368421052"/>
  <unicode hex="0030"/>
  <outline>
    <contour>
      <point x="599.8736842105263" y="-19.010526315789473" type="curve" smooth="yes"/>
      <point x="911.6210526315789" y="-19.010526315789473"/>
      <point x="1104.126315789474" y="196.50526315789475"/>
      <point x="1194.126315789474" y="617.1789473684211" type="curve" smooth="yes"/>
      <point x="1287.621052631579" y="1056.0"/>
      <point x="1138.7789473684213" y="1393.6842105263158"/>
      <point x="790.1684210526315" y="1393.6842105263158" type="curve" smooth="yes"/>
      <point x="464.58947368421053" y="1393.6842105263158"/>
      <point x="263.7684210526316" y="1164.1684210526316"/>
      <point x="179.6" y="760.8210526315789" type="curve" smooth="yes"/>
      <point x="88.4421052631579" y="329.5157894736842"/>
      <point x="226.1052631578947" y="-19.010526315789473"/>
    </contour>
    <contour>
      <point x="601.2210526315789" y="71.09473684210526" type="curve"/>
      <point x="289.9157894736842" y="77.76842105263158"/>
      <point x="195.66315789473683" y="370.8"/>
      <point x="275.95789473684215" y="746.2947368421053" type="curve" smooth="yes"/>
      <point x="347.43157894736845" y="1082.842105263158"/>
      <point x="495.34736842105264" y="1296.7368421052631"/>
      <point x="789.3263157894737" y="1303.4105263157894" type="curve"/>
      <point x="1074.1473684210523" y="1296.7368421052631"/>
      <point x="1180.5684210526317" y="1020.3578947368421"/>
      <point x="1098.1052631578948" y="629.7052631578948" type="curve" smooth="yes"/>
      <point x="1026.6315789473686" y="293.8315789473684"/>
      <point x="889.8736842105263" y="77.76842105263158"/>
    </contour>
  </outline>
</glyph>
<glyph name="one" format="2">
  <advance width="829.8105263157895"/>
  <unicode hex="0031"/>
  <outline>
    <contour>
      <point x="215.13684210526316" y="1017.8947368421053" type="line"/>
      <point x="377.81052631578945" y="1106.3999999999999"/>
      <point x="540.9894736842106" y="1189.221052631579"/>
      <point x="705.8315789473684" y="1271.7052631578947" type="curve"/>
      <point x="727.4105263157895" y="1373.6842105263158" type="line"/>
      <point x="553.2" y="1285.6842105263158"/>
      <point x="380.821052631579" y="1199.5157894736842"/>
      <point x="204.94736842105263" y="1119.2" type="curve"/>
    </contour>
    <contour>
      <point x="382.69473684210527" y="0.0" type="curve"/>
      <point x="491.59999999999997" y="0.0" type="line"/>
      <point x="519.5789473684209" y="148.98947368421054"/>
      <point x="544.3999999999999" y="278.14736842105265"/>
      <point x="578.5684210526315" y="440.65263157894736" type="curve"/>
      <point x="674.9052631578946" y="894.3368421052631" type="line"/>
      <point x="710.5684210526315" y="1063.3263157894737"/>
      <point x="747.0736842105263" y="1224.9894736842105"/>
      <point x="783.4315789473683" y="1369.0105263157895" type="curve"/>
      <point x="727.4105263157895" y="1373.6842105263158" type="line"/>
      <point x="667.1789473684212" y="1324.042105263158" type="line"/>
      <point x="640.5263157894736" y="1175.5578947368422"/>
      <point x="611.0315789473684" y="1034.5684210526315"/>
      <point x="579.3684210526316" y="886.0842105263158" type="curve"/>
      <point x="484.8842105263158" y="440.65263157894736" type="line"/>
      <point x="450.71578947368425" y="278.14736842105265"/>
      <point x="420.0421052631579" y="148.98947368421054"/>
    </contour>
  </outline>
</glyph>
<glyph name="three" format="2">
  <advance width="1128.2528735632184"/>
  <unicode hex="0033"/>
  <outline>
    <contour>
      <point x="479.47126436781605" y="-19.103448275862068" type="curve" smooth="yes"/>
      <point x="781.9310344827587" y="-19.103448275862068"/>
      <point x="936.6666666666667" y="104.5287356321839"/>
      <point x="981.4022988505748" y="315.8390804597701" type="curve" smooth="yes"/>
      <point x="1027.4022988505749" y="540.3678160919541"/>
      <point x="867.448275862069" y="681.7931034482758"/>
      <point x="747.080459770115" y="712.528735632184" type="curve"/>
      <point x="749.4482758620691" y="726.367816091954" type="line"/>
      <point x="909.6091954022988" y="756.0"/>
      <point x="1040.1379310344828" y="843.0574712643678"/>
      <point x="1076.1379310344828" y="1011.4252873563219" type="curve" smooth="yes"/>
      <point x="1123.7701149425288" y="1228.16091954023"/>
      <point x="963.9310344827587" y="1393.83908045977"/>
      <point x="716.0" y="1393.83908045977" type="curve" smooth="yes"/>
      <point x="588.0" y="1393.83908045977"/>
      <point x="398.8965517241379" y="1317.6781609195402"/>
      <point x="291.9540229885057" y="1274.781609195402" type="curve"/>
      <point x="285.5402298850575" y="1163.5172413793105" type="line"/>
      <point x="466.5977011494253" y="1258.4137931034484"/>
      <point x="640.4367816091954" y="1302.9885057471265"/>
      <point x="706.4367816091954" y="1302.9885057471265" type="curve"/>
      <point x="901.2413793103448" y="1300.6206896551726"/>
      <point x="1016.2528735632184" y="1193.6091954022988"/>
      <point x="978.4597701149426" y="1014.6436781609195" type="curve" smooth="yes"/>
      <point x="944.2988505747127" y="854.2068965517241"/>
      <point x="801.4942528735631" y="765.5632183908045"/>
      <point x="512.7816091954023" y="764.8275862068965" type="curve"/>
      <point x="478.2068965517241" y="764.8275862068965"/>
      <point x="440.367816091954" y="765.1954022988506"/>
      <point x="406.1609195402299" y="768.2988505747126" type="curve"/>
      <point x="386.2758620689655" y="676.7126436781609" type="line"/>
      <point x="421.58620689655174" y="679.448275862069"/>
      <point x="461.7931034482758" y="679.816091954023"/>
      <point x="497.10344827586204" y="679.816091954023" type="curve"/>
      <point x="787.816091954023" y="679.4482758620691"/>
      <point x="930.9885057471264" y="538.1149425287357"/>
      <point x="887.5632183908046" y="333.7241379310345" type="curve" smooth="yes"/>
      <point x="851.7701149425287" y="164.75862068965517"/>
      <point x="733.1264367816092" y="73.74712643678161"/>
      <point x="479.8390804597701" y="71.37931034482759" type="curve"/>
      <point x="350.0459770114943" y="71.37931034482759"/>
      <point x="203.10344827586206" y="128.48275862068965"/>
      <point x="49.67816091954023" y="213.74712643678163" type="curve"/>
      <point x="15.954022988505749" y="116.32183908045977" type="line"/>
      <point x="123.95402298850574" y="66.16091954022988"/>
      <point x="290.6896551724138" y="-19.103448275862068"/>
    </contour>
  </outline>
</glyph>
<glyph name="four" format="2">
  <advance width="1184.6206896551723"/>
  <unicode hex="0034"/>
  <outline>
    <contour>
      <point x="638.183908045977" y="0.0" type="curve"/>
      <point x="747.1724137931034" y="0.0" type="line"/>
      <point x="766.9655172413793" y="123.47126436781609"/>
      <point x="787.3333333333333" y="221.31034482758622"/>
      <point x="817.7011494252873" y="365.51724137931035" type="curve"/>
      <point x="928.5977011494252" y="887.1034482758621" type="line"/>
      <point x="962.2298850574712" y="1045.103448275862"/>
      <point x="994.9655172413793" y="1203.103448275862"/>
      <point x="1039.1724137931033" y="1369.103448275862" type="curve"/>
      <point x="926.183908045977" y="1369.103448275862" type="line"/>
      <point x="849.1264367816091" y="1278.2068965517242"/>
      <point x="762.9655172413793" y="1182.0459770114942"/>
      <point x="678.4367816091954" y="1089.5172413793102" type="curve"/>
      <point x="441.74712643678157" y="832.4597701149426" type="line"/>
      <point x="321.95402298850576" y="702.2988505747127"/>
      <point x="160.16091954022988" y="527.2413793103449"/>
      <point x="48.735632183908045" y="410.91954022988506" type="curve"/>
      <point x="33.58620689655173" y="331.37931034482756" type="line"/>
      <point x="770.4827586206897" y="331.37931034482756" type="line"/>
      <point x="867.7931034482759" y="331.37931034482756"/>
      <point x="1009.8390804597701" y="331.01149425287355"/>
      <point x="1096.7816091954023" y="325.90804597701145" type="curve"/>
      <point x="1117.4022988505747" y="424.8045977011494" type="line"/>
      <point x="1028.0919540229886" y="419.3333333333333"/>
      <point x="885.3103448275863" y="418.9655172413793"/>
      <point x="788.0" y="418.9655172413793" type="curve"/>
      <point x="761.264367816092" y="418.9655172413793" type="line"/>
      <point x="132.8505747126437" y="418.9655172413793" type="line"/>
      <point x="138.6896551724138" y="375.0344827586207" type="line"/>
      <point x="220.11494252873564" y="469.1954022988506"/>
      <point x="302.64367816091954" y="562.0919540229885"/>
      <point x="388.8045977011494" y="656.2528735632184" type="curve"/>
      <point x="714.183908045977" y="1009.632183908046" type="line"/>
      <point x="812.7126436781609" y="1118.16091954023"/>
      <point x="912.1379310344828" y="1225.218390804598"/>
      <point x="1010.2988505747126" y="1327.1724137931035" type="curve"/>
      <point x="921.448275862069" y="1314.9655172413793" type="line"/>
      <point x="895.655172413793" y="1170.0689655172414"/>
      <point x="866.0229885057471" y="1023.9080459770115"/>
      <point x="834.390804597701" y="878.6436781609195" type="curve"/>
      <point x="731.7011494252873" y="394.0919540229885" type="line"/>
      <point x="723.8620689655172" y="365.51724137931035" type="line"/>
      <point x="693.4942528735633" y="221.31034482758622"/>
      <point x="671.1264367816092" y="123.47126436781609"/>
    </contour>
  </outline>
</glyph>
<glyph name="five" format="2">
  <advance width="1140.4137931034481"/>
  <unicode hex="0035"/>
  <outline>
    <contour>
      <point x="469.4712643678161" y="-19.103448275862068" type="curve" smooth="yes"/>
      <point x="764.6666666666667" y="-19.103448275862068"/>
      <point x="945.9310344827587" y="115.10344827586208"/>
      <point x="1004.2988505747128" y="389.67816091954023" type="curve" smooth="yes"/>
      <point x="1067.9310344827586" y="685.6781609195402"/>
      <point x="876.8735632183908" y="871.5172413793103"/>
      <point x="636.7126436781609" y="871.5172413793103" type="curve" smooth="yes"/>
      <point x="523.7011494252873" y="871.5172413793103"/>
      <point x="445.37931034482756" y="842.9885057471264"/>
      <point x="355.7931034482759" y="797.9310344827586" type="curve"/>
      <point x="342.32183908045977" y="797.9310344827586" type="line"/>
      <point x="363.2183908045977" y="898.0459770114943" type="line"/>
      <point x="392.11494252873564" y="1037.057471264368"/>
      <point x="424.64367816091954" y="1178.4367816091956"/>
      <point x="455.01149425287355" y="1319.0804597701149" type="curve"/>
      <point x="408.2988505747126" y="1281.5172413793102" type="line"/>
      <point x="615.1954022988506" y="1281.5172413793102" type="line"/>
      <point x="776.0919540229886" y="1281.5172413793102"/>
      <point x="941.3563218390806" y="1281.1494252873563"/>
      <point x="1101.8850574712644" y="1272.206896551724" type="curve"/>
      <point x="1122.1379310344828" y="1369.103448275862" type="line"/>
      <point x="362.2758620689655" y="1369.103448275862" type="line"/>
      <point x="338.11494252873564" y="1222.16091954023"/>
      <point x="305.37931034482756" y="1059.2183908045977"/>
      <point x="268.64367816091954" y="885.9080459770115" type="curve"/>
      <point x="225.90804597701148" y="680.2298850574713" type="line"/>
      <point x="269.5172413793103" y="675.4942528735633" type="line"/>
      <point x="408.1609195402299" y="757.9770114942529"/>
      <point x="494.32183908045977" y="782.8735632183908"/>
      <point x="610.8045977011495" y="782.8735632183908" type="curve"/>
      <point x="808.3448275862069" y="780.5057471264367"/>
      <point x="962.0459770114943" y="655.8620689655172"/>
      <point x="909.7241379310345" y="400.78160919540227" type="curve" smooth="yes"/>
      <point x="862.6666666666666" y="169.12643678160921"/>
      <point x="713.1264367816091" y="73.74712643678161"/>
      <point x="467.83908045977006" y="71.37931034482759" type="curve"/>
      <point x="341.6781609195403" y="71.37931034482759"/>
      <point x="199.10344827586206" y="128.48275862068965"/>
      <point x="49.67816091954023" y="213.74712643678163" type="curve"/>
      <point x="15.954022988505749" y="116.32183908045977" type="line"/>
      <point x="121.95402298850576" y="66.16091954022988"/>
      <point x="284.6896551724138" y="-19.103448275862068"/>
    </contour>
  </outline>
</glyph>
<glyph name="eight" format="2">
  <advance width="1201.5172413793102"/>
  <unicode hex="0038"/>
  <outline>
    <contour>
      <point x="555.3103448275863" y="-19.103448275862068" type="curve" smooth="yes"/>
      <point x="847.9310344827586" y="-19.103448275862068"/>
      <point x="1010.2988505747127" y="118.16091954022988"/>
      <point x="1055.0344827586207" y="332.0" type="curve" smooth="yes"/>
      <point x="1105.0344827586207" y="568.5287356321838"/>
      <point x="953.9770114942529" y="700.3218390804598"/>
      <point x="848.1379310344828" y="730.1609195402299" type="curve"/>
      <point x="850.5057471264367" y="743.632183908046" type="line"/>
      <point x="982.7126436781609" y="769.264367816092"/>
      <point x="1110.8735632183907" y="857.4252873563219"/>
      <point x="1144.5057471264367" y="1013.425287356322" type="curve" smooth="yes"/>
      <point x="1190.5057471264367" y="1225.2643678160919"/>
      <point x="1030.2988505747126" y="1393.83908045977"/>
      <point x="745.1034482758621" y="1393.83908045977" type="curve" smooth="yes"/>
      <point x="515.2183908045977" y="1393.83908045977"/>
      <point x="331.01149425287355" y="1299.103448275862"/>
      <point x="290.64367816091954" y="1107.264367816092" type="curve" smooth="yes"/>
      <point x="253.01149425287355" y="935.264367816092"/>
      <point x="357.54022988505744" y="806.3678160919541"/>
      <point x="457.37931034482756" y="768.7356321839081" type="curve"/>
      <point x="455.01149425287355" y="755.264367816092" type="line"/>
      <point x="334.8045977011494" y="734.8965517241379"/>
      <point x="148.11494252873564" y="661.632183908046"/>
      <point x="100.48275862068965" y="437.47126436781605" type="curve" smooth="yes"/>
      <point x="53.747126436781606" y="211.26436781609195"/>
      <point x="185.95402298850576" y="-19.103448275862068"/>
    </contour>
    <contour>
      <point x="556.7816091954023" y="71.74712643678161" type="curve"/>
      <point x="247.7471264367816" y="74.48275862068967"/>
      <point x="158.5287356321839" y="246.3448275862069"/>
      <point x="197.95402298850573" y="430.2068965517241" type="curve" smooth="yes"/>
      <point x="241.3793103448276" y="640.5977011494252"/>
      <point x="420.13793103448273" y="698.1839080459771"/>
      <point x="638.5287356321838" y="700.9195402298851" type="curve"/>
      <point x="857.655172413793" y="698.1839080459771"/>
      <point x="1010.0919540229885" y="569.0114942528735"/>
      <point x="963.4022988505747" y="347.7241379310345" type="curve" smooth="yes"/>
      <point x="927.6091954022988" y="174.39080459770116"/>
      <point x="799.7011494252874" y="74.48275862068967"/>
    </contour>
    <contour>
      <point x="671.1494252873564" y="784.4597701149426" type="curve"/>
      <point x="451.1264367816092" y="786.8275862068966"/>
      <point x="347.01149425287355" y="923.632183908046"/>
      <point x="382.8045977011494" y="1088.9655172413793" type="curve" smooth="yes"/>
      <point x="415.3333333333333" y="1242.5057471264367"/>
      <point x="559.4022988505748" y="1301.3563218390805"/>
      <point x="740.0" y="1304.0919540229886" type="curve"/>
      <point x="964.9195402298851" y="1301.3563218390805"/>
      <point x="1087.5632183908044" y="1191.4482758620688"/>
      <point x="1050.1379310344826" y="1019.3793103448277" type="curve" smooth="yes"/>
      <point x="1018.3448275862069" y="868.9425287356322"/>
      <point x="886.4367816091954" y="786.8275862068966"/>
    </contour>
  </outline>
</glyph>
<glyph name="less" format="2">
  <advance width="1125.0526315789473"/>
  <unicode hex="003C"/>
  <outline>
    <contour>
      <point x="919.6631578947369" y="161.38947368421051" type="curve"/>
      <point x="941.8947368421052" y="262.69473684210527" type="line"/>
      <point x="800.6105263157895" y="322.3157894736842"/>
      <point x="651.8315789473684" y="394.4421052631579"/>
      <point x="509.0526315789474" y="464.7368421052631" type="curve"/>
      <point x="279.4736842105263" y="576.8421052631579" type="line"/>
      <point x="283.64210526315793" y="590.5263157894736" type="line"/>
      <point x="558.6947368421053" y="702.2947368421053" type="line"/>
      <point x="732.1263157894737" y="772.5894736842106"/>
      <point x="911.2210526315789" y="844.378947368421"/>
      <point x="1078.4842105263156" y="904.0" type="curve"/>
      <point x="1101.221052631579" y="1019.6631578947367" type="line"/>
      <point x="972.0210526315789" y="964.1473684210525"/>
      <point x="847.3263157894737" y="912.1473684210526"/>
      <point x="739.1368421052632" y="868.1473684210526" type="curve"/>
      <point x="522.4842105263158" y="780.1684210526316" type="line"/>
      <point x="417.7894736842105" y="738.0"/>
      <point x="293.2631578947368" y="688.1684210526316"/>
      <point x="166.4" y="641.178947368421" type="curve"/>
      <point x="144.16842105263157" y="539.8736842105263" type="line"/>
      <point x="251.53684210526313" y="492.8842105263158"/>
      <point x="355.89473684210526" y="443.05263157894734"/>
      <point x="440.7578947368421" y="400.88421052631577" type="curve"/>
      <point x="621.9157894736842" y="312.90526315789475" type="line"/>
      <point x="710.2736842105263" y="268.90526315789475"/>
      <point x="814.9684210526315" y="215.0736842105263"/>
    </contour>
  </outline>
</glyph>
<glyph name="equal" format="2">
  <advance width="1125.0526315789473"/>
  <unicode hex="003D"/>
  <outline>
    <contour>
      <point x="102.92631578947368" y="329.6631578947368" type="line"/>
      <point x="222.12631578947367" y="334.5052631578947"/>
      <point x="334.821052631579" y="334.6736842105263"/>
      <point x="431.34736842105264" y="334.6736842105263" type="curve"/>
      <point x="626.9684210526316" y="334.6736842105263" type="line"/>
      <point x="723.4947368421052" y="334.6736842105263"/>
      <point x="836.1894736842105" y="334.5052631578947"/>
      <point x="954.7157894736841" y="329.6631578947368" type="curve"/>
      <point x="974.9473684210527" y="426.63157894736844" type="line"/>
      <point x="854.0842105263158" y="421.7894736842105"/>
      <point x="741.3894736842105" y="421.62105263157895"/>
      <point x="644.8631578947369" y="421.62105263157895" type="curve"/>
      <point x="449.2421052631579" y="421.62105263157895" type="line"/>
      <point x="352.71578947368425" y="421.62105263157895"/>
      <point x="240.02105263157893" y="421.7894736842105"/>
      <point x="123.15789473684208" y="426.63157894736844" type="curve"/>
    </contour>
    <contour>
      <point x="190.94736842105263" y="758.0842105263158" type="line"/>
      <point x="310.1473684210526" y="762.9263157894736"/>
      <point x="422.8421052631579" y="763.0947368421052"/>
      <point x="519.3684210526317" y="763.0947368421052" type="curve"/>
      <point x="714.9894736842106" y="763.0947368421052" type="line"/>
      <point x="811.5157894736842" y="763.0947368421052"/>
      <point x="924.2105263157895" y="762.9263157894736"/>
      <point x="1042.7368421052631" y="758.0842105263158" type="curve"/>
      <point x="1062.9684210526316" y="855.0526315789473" type="line"/>
      <point x="942.1052631578948" y="850.2105263157895"/>
      <point x="829.4105263157895" y="850.0421052631579"/>
      <point x="732.8842105263159" y="850.0421052631579" type="curve"/>
      <point x="537.263157894737" y="850.0421052631579" type="line"/>
      <point x="440.7368421052632" y="850.0421052631579"/>
      <point x="328.04210526315785" y="850.2105263157895"/>
      <point x="211.17894736842103" y="855.0526315789473" type="curve"/>
    </contour>
  </outline>
</glyph>
<glyph name="greater" format="2">
  <advance width="1125.0526315789473"/>
  <unicode hex="003E"/>
  <outline>
    <contour>
      <point x="64.58947368421052" y="161.38947368421051" type="line"/>
      <point x="193.78947368421052" y="216.90526315789472"/>
      <point x="318.4842105263158" y="268.90526315789475"/>
      <point x="426.67368421052635" y="312.90526315789475" type="curve"/>
      <point x="643.3263157894737" y="400.88421052631577" type="line"/>
      <point x="748.021052631579" y="443.05263157894734"/>
      <point x="872.5473684210526" y="492.8842105263158"/>
      <point x="999.4105263157894" y="539.8736842105263" type="curve"/>
      <point x="1021.6421052631579" y="641.178947368421" type="line"/>
      <point x="914.2736842105263" y="688.1684210526316"/>
      <point x="809.9157894736842" y="738.0"/>
      <point x="725.0526315789474" y="780.1684210526316" type="curve"/>
      <point x="543.8947368421052" y="868.1473684210526" type="line"/>
      <point x="455.53684210526313" y="912.1473684210526"/>
      <point x="350.84210526315786" y="965.9789473684209"/>
      <point x="246.14736842105262" y="1019.6631578947367" type="curve"/>
      <point x="223.9157894736842" y="918.357894736842" type="line"/>
      <point x="365.2" y="858.7368421052631"/>
      <point x="513.978947368421" y="786.6105263157895"/>
      <point x="656.7578947368421" y="716.3157894736842" type="curve"/>
      <point x="886.3368421052631" y="604.2105263157895" type="line"/>
      <point x="882.1684210526315" y="590.5263157894738" type="line"/>
      <point x="607.1157894736842" y="478.7578947368421" type="line"/>
      <point x="433.6842105263158" y="408.46315789473687"/>
      <point x="254.58947368421053" y="336.67368421052635"/>
      <point x="87.32631578947368" y="277.0526315789474" type="curve"/>
    </contour>
  </outline>
</glyph>
<glyph name="at" format="2">
  <advance width="1754.5473684210526"/>
  <unicode hex="0040"/>
  <outline>
    <contour>
      <point x="947.3684210526317" y="-249.89473684210526" type="curve" smooth="yes"/>
      <point x="1115.7052631578947" y="-249.89473684210526"/>
      <point x="1349.0315789473684" y="-171.7473684210526"/>
      <point x="1511.7052631578947" y="-100.25263157894736" type="curve"/>
      <point x="1511.7052631578947" y="-7.0736842105263165" type="line"/>
      <point x="1307.5157894736844" y="-106.42105263157895"/>
      <point x="1086.6736842105265" y="-166.5684210526316"/>
      <point x="947.3684210526317" y="-172.90526315789475" type="curve"/>
      <point x="379.4315789473684" y="-166.5684210526316"/>
      <point x="125.78947368421053" y="234.33684210526314"/>
      <point x="216.46315789473684" y="666.8421052631579" type="curve" smooth="yes"/>
      <point x="302.4421052631579" y="1075.7263157894736"/>
      <point x="587.6842105263158" y="1246.2736842105262"/>
      <point x="937.3684210526317" y="1252.6105263157895" type="curve"/>
      <point x="1381.642105263158" y="1246.2736842105262"/>
      <point x="1634.9473684210527" y="914.7157894736843"/>
      <point x="1553.2842105263157" y="502.5684210526316" type="curve" smooth="yes"/>
      <point x="1522.1263157894737" y="346.61052631578946"/>
      <point x="1377.6842105263156" y="201.83157894736843"/>
      <point x="1281.0526315789473" y="201.1578947368421" type="curve"/>
      <point x="1171.0947368421055" y="205.49473684210525"/>
      <point x="1127.4526315789474" y="264.65263157894736"/>
      <point x="1154.2947368421053" y="398.0210526315789" type="curve"/>
      <point x="1195.9368421052632" y="598.4" type="line"/>
      <point x="1222.1052631578948" y="718.8842105263158"/>
      <point x="1250.6105263157897" y="836.0421052631579"/>
      <point x="1289.2842105263157" y="958.021052631579" type="curve"/>
      <point x="1203.8736842105263" y="951.1789473684211" type="line"/>
      <point x="1171.7052631578947" y="842.0210526315789" type="line"/>
      <point x="1160.3578947368421" y="842.0210526315789" type="line"/>
      <point x="1099.8736842105263" y="909.7052631578947"/>
      <point x="984.7368421052631" y="969.8526315789474"/>
      <point x="883.7684210526317" y="969.8526315789474" type="curve" smooth="yes"/>
      <point x="696.1052631578948" y="969.8526315789474"/>
      <point x="550.2947368421053" y="828.9894736842106"/>
      <point x="503.13684210526316" y="602.3578947368421" type="curve" smooth="yes"/>
      <point x="452.9684210526316" y="364.1684210526316"/>
      <point x="546.9894736842106" y="144.98947368421054"/>
      <point x="786.6315789473684" y="144.98947368421054" type="curve" smooth="yes"/>
      <point x="872.1052631578948" y="144.98947368421054"/>
      <point x="967.9368421052632" y="189.32631578947368"/>
      <point x="1057.7473684210527" y="280.4842105263158" type="curve"/>
      <point x="1068.9263157894736" y="280.4842105263158" type="line"/>
      <point x="1084.1263157894737" y="205.47368421052633"/>
      <point x="1142.5263157894738" y="125.32631578947368"/>
      <point x="1293.3684210526317" y="125.32631578947368" type="curve" smooth="yes"/>
      <point x="1389.0526315789473" y="125.32631578947368"/>
      <point x="1588.2736842105264" y="270.63157894736844"/>
      <point x="1629.7894736842104" y="487.2" type="curve" smooth="yes"/>
      <point x="1717.1368421052632" y="945.7473684210527"/>
      <point x="1421.0947368421052" y="1329.6"/>
      <point x="939.5368421052632" y="1329.6" type="curve" smooth="yes"/>
      <point x="558.1894736842106" y="1329.6"/>
      <point x="229.4736842105263" y="1126.5894736842106"/>
      <point x="138.29473684210527" y="679.0526315789474" type="curve" smooth="yes"/>
      <point x="41.93684210526315" y="209.9578947368421"/>
      <point x="332.14736842105265" y="-249.89473684210526"/>
    </contour>
    <contour>
      <point x="803.221052631579" y="225.3684210526316" type="curve"/>
      <point x="614.6947368421053" y="229.3684210526316"/>
      <point x="545.0736842105264" y="386.7789473684211"/>
      <point x="588.2105263157895" y="591.4736842105264" type="curve" smooth="yes"/>
      <point x="624.1894736842106" y="760.2105263157895"/>
      <point x="724.4631578947369" y="882.9684210526316"/>
      <point x="895.3473684210527" y="887.1368421052632" type="curve"/>
      <point x="990.9473684210527" y="888.6315789473684"/>
      <point x="1080.042105263158" y="836.5052631578948"/>
      <point x="1146.6526315789474" y="767.7263157894737" type="curve"/>
      <point x="1066.5263157894738" y="395.57894736842104" type="line"/>
      <point x="979.2631578947369" y="276.1684210526316"/>
      <point x="882.3368421052633" y="229.3684210526316"/>
    </contour>
  </outline>
</glyph>
<glyph name="A" format="2">
  <advance width="1350.3157894736842"/>
  <unicode hex="0041"/>
  <anchor x="571.0736842105263" y="0.0" name="bottom"/>
  <anchor x="1185.7052631578947" y="0.0" name="ogonek"/>
  <anchor x="870.7368421052631" y="1426.0" name="top"/>
  <outline>
    <contour>
      <point x="-48.06315789473684" y="0.0" type="curve"/>
      <point x="84.37894736842104" y="0.0" type="line"/>
      <point x="180.3157894736842" y="178.12631578947367"/>
      <point x="288.2526315789474" y="364.2526315789474"/>
      <point x="389.8736842105263" y="538.5473684210526" type="curve"/>
      <point x="850.1684210526316" y="1325.8736842105263" type="line"/>
      <point x="863.8526315789474" y="1325.8736842105263" type="line"/>
      <point x="990.5684210526316" y="536.378947368421" type="line"/>
      <point x="1018.0421052631579" y="366.0842105263158"/>
      <point x="1048.5052631578947" y="172.79999999999998"/>
      <point x="1067.9578947368423" y="0.0" type="curve"/>
      <point x="1186.715789473684" y="0.0" type="line"/>
      <point x="1156.5473684210526" y="150.0"/>
      <point x="1124.378947368421" y="326.0"/>
      <point x="1097.7263157894736" y="485.32631578947365" type="curve"/>
      <point x="1017.4315789473684" y="973.8315789473684" type="line"/>
      <point x="988.7789473684211" y="1148.0"/>
      <point x="968.7999999999998" y="1284.9894736842105"/>
      <point x="953.8315789473685" y="1426.0" type="curve"/>
      <point x="793.642105263158" y="1426.0" type="line"/>
      <point x="712.8421052631579" y="1277.6631578947367"/>
      <point x="636.5263157894738" y="1143.8315789473684"/>
      <point x="537.7052631578947" y="975.4947368421052" type="curve"/>
      <point x="249.9157894736842" y="486.0" type="line"/>
      <point x="159.09473684210528" y="332.0"/>
      <point x="51.93684210526315" y="153.66315789473683"/>
    </contour>
    <contour>
      <point x="267.9578947368421" y="391.34736842105264" type="line"/>
      <point x="1045.8315789473684" y="391.34736842105264" type="line"/>
      <point x="1059.178947368421" y="476.61052631578946" type="line"/>
      <point x="289.89473684210526" y="476.61052631578946" type="line"/>
    </contour>
  </outline>
</glyph>
<glyph name="B" format="2">
  <advance width="1274.6436781609195"/>
  <unicode hex="0042"/>
  <outline>
    <contour>
      <point x="556.9655172413792" y="-3.471264367816092" type="curve"/>
      <point x="976.1609195402299" y="-3.471264367816092"/>
      <point x="1110.689655172414" y="139.26436781609195"/>
      <point x="1153.7931034482758" y="344.9425287356322" type="curve" smooth="yes"/>
      <point x="1199.4252873563219" y="565.103448275862"/>
      <point x="1073.632183908046" y="678.5747126436781"/>
      <point x="951.9540229885056" y="722.5747126436783" type="curve"/>
      <point x="955.9540229885057" y="736.4137931034484" type="line"/>
      <point x="1107.0574712643677" y="782.5747126436783"/>
      <point x="1216.528735632184" y="869.264367816092"/>
      <point x="1252.896551724138" y="1044.0" type="curve" smooth="yes"/>
      <point x="1298.1609195402298" y="1264.6896551724137"/>
      <point x="1171.6781609195402" y="1429.103448275862"/>
      <point x="870.183908045977" y="1429.103448275862" type="curve"/>
      <point x="689.2413793103448" y="1429.103448275862"/>
      <point x="544.7816091954023" y="1426.0"/>
      <point x="398.9425287356322" y="1426.0" type="curve"/>
      <point x="370.7816091954023" y="1264.7356321839081"/>
      <point x="343.88505747126436" y="1125.103448275862"/>
      <point x="305.8850574712644" y="946.0" type="curve"/>
      <point x="205.51724137931035" y="474.5287356321839" type="line"/>
      <point x="169.14942528735634" y="299.7931034482759"/>
      <point x="138.41379310344828" y="160.89655172413794"/>
      <point x="98.9425287356322" y="0.0" type="curve"/>
      <point x="171.77011494252872" y="0.0"/>
      <point x="361.9770114942529" y="-3.471264367816092"/>
    </contour>
    <contour>
      <point x="229.0804597701149" y="89.2183908045977" type="line"/>
      <point x="251.6091954022988" y="217.86206896551727"/>
      <point x="276.1379310344828" y="338.3448275862069"/>
      <point x="307.0344827586207" y="484.82758620689657" type="curve"/>
      <point x="402.98850574712645" y="939.3333333333334" type="line"/>
      <point x="433.88505747126436" y="1086.183908045977"/>
      <point x="460.78160919540227" y="1206.2988505747126"/>
      <point x="492.41379310344826" y="1336.7816091954023" type="curve"/>
      <point x="859.7701149425286" y="1336.7816091954023" type="line" smooth="yes"/>
      <point x="1086.6896551724137" y="1336.7816091954023"/>
      <point x="1189.7011494252874" y="1232.1379310344828"/>
      <point x="1150.6436781609195" y="1045.7471264367816" type="curve" smooth="yes"/>
      <point x="1116.8505747126437" y="887.3103448275863"/>
      <point x="990.367816091954" y="767.7701149425287"/>
      <point x="728.390804597701" y="767.7701149425287" type="curve" smooth="yes"/>
      <point x="346.2068965517242" y="767.7701149425287" type="line"/>
      <point x="327.05747126436785" y="681.6551724137931" type="line"/>
      <point x="721.2413793103448" y="681.6551724137931" type="line" smooth="yes"/>
      <point x="965.6321839080458" y="681.6551724137931"/>
      <point x="1096.4367816091956" y="570.2758620689656"/>
      <point x="1053.3793103448277" y="360.0919540229885" type="curve" smooth="yes"/>
      <point x="1015.5862068965516" y="174.22988505747125"/>
      <point x="881.6781609195402" y="89.2183908045977"/>
      <point x="558.8505747126436" y="89.2183908045977" type="curve" smooth="yes"/>
    </contour>
  </outline>
</glyph>
<glyph name="C" format="2">
  <advance width="1372.0736842105264"/>
  <unicode hex="0043"/>
  <anchor x="697.4000000000001" y="0.0" name="bottom"/>
  <anchor x="979.0842105263158" y="1426.0" name="top"/>
  <outline>
    <contour>
      <point x="763.7578947368421" y="-19.178947368421053" type="curve" smooth="yes"/>
      <point x="898.7684210526317" y="-19.178947368421053"/>
      <point x="1053.2736842105264" y="20.821052631578947"/>
      <point x="1166.6" y="78.46315789473685" type="curve"/>
      <point x="1176.6631578947367" y="195.62105263157892" type="line"/>
      <point x="1053.4842105263156" y="118.94736842105263"/>
      <point x="903.6315789473683" y="74.61052631578947"/>
      <point x="769.5052631578947" y="74.61052631578947" type="curve"/>
      <point x="354.85263157894735" y="80.77894736842104"/>
      <point x="197.10526315789474" y="420.8"/>
      <point x="273.56842105263155" y="782.2947368421052" type="curve" smooth="yes"/>
      <point x="356.36842105263156" y="1171.8105263157895"/>
      <point x="618.0947368421052" y="1349.536842105263"/>
      <point x="967.6947368421054" y="1355.7052631578947" type="curve"/>
      <point x="1045.3578947368421" y="1355.7052631578947"/>
      <point x="1213.505263157895" y="1319.3684210526317"/>
      <point x="1408.6842105263158" y="1232.0210526315789" type="curve"/>
      <point x="1441.6105263157897" y="1336.3578947368421" type="line"/>
      <point x="1323.1052631578946" y="1383.6842105263158"/>
      <point x="1131.4421052631578" y="1450.6736842105263"/>
      <point x="975.5684210526315" y="1450.6736842105263" type="curve" smooth="yes"/>
      <point x="563.9894736842106" y="1450.6736842105263"/>
      <point x="263.021052631579" y="1224.6736842105263"/>
      <point x="173.18947368421053" y="798.6736842105263" type="curve" smooth="yes"/>
      <point x="84.51578947368421" y="379.13684210526316"/>
      <point x="289.8842105263158" y="-19.178947368421053"/>
    </contour>
  </outline>
</glyph>
<glyph name="D" format="2">
  <advance width="1477.3263157894737"/>
  <unicode hex="0044"/>
  <anchor x="596.6736842105263" y="0.0" name="bottom"/>
  <anchor x="786.4947368421052" y="714.0" name="center"/>
  <anchor x="896.6736842105263" y="1426.0" name="top"/>
  <outline>
    <contour>
      <point x="99.0315789473684" y="0.0" type="curve"/>
      <point x="271.2" y="0.0"/>
      <point x="396.10526315789474" y="-3.3473684210526313"/>
      <point x="577.6631578947369" y="-3.3473684210526313" type="curve"/>
      <point x="1104.3789473684212" y="-3.3473684210526313"/>
      <point x="1317.221052631579" y="258.1684210526316"/>
      <point x="1402.8842105263159" y="665.6631578947369" type="curve" smooth="yes"/>
      <point x="1487.0526315789473" y="1069.5157894736842"/>
      <point x="1280.3789473684212" y="1429.0105263157895"/>
      <point x="807.4105263157895" y="1429.0105263157895" type="curve"/>
      <point x="674.3157894736842" y="1429.0105263157895"/>
      <point x="560.3578947368421" y="1426.0"/>
      <point x="399.0315789473684" y="1426.0" type="curve"/>
      <point x="370.88421052631577" y="1264.6736842105263"/>
      <point x="344.06315789473683" y="1125.178947368421"/>
      <point x="305.89473684210526" y="946.1684210526315" type="curve"/>
      <point x="205.5578947368421" y="474.4842105263158" type="line"/>
      <point x="169.38947368421051" y="299.81052631578945"/>
      <point x="138.54736842105262" y="160.82105263157894"/>
    </contour>
    <contour>
      <point x="230.0" y="89.28421052631579" type="line"/>
      <point x="252.4842105263158" y="218.37894736842105"/>
      <point x="277.13684210526316" y="339.1578947368421"/>
      <point x="307.9578947368421" y="485.59999999999997" type="curve"/>
      <point x="403.7473684210526" y="939.5578947368422" type="line"/>
      <point x="434.7368421052632" y="1086.6736842105263"/>
      <point x="461.89473684210526" y="1207.1157894736841"/>
      <point x="492.88421052631577" y="1336.7157894736843" type="curve"/>
      <point x="782.9894736842106" y="1336.7157894736843" type="line"/>
      <point x="1224.5684210526315" y="1330.2105263157896"/>
      <point x="1376.6315789473683" y="1029.1999999999998"/>
      <point x="1301.8315789473684" y="681.8526315789474" type="curve" smooth="yes"/>
      <point x="1225.3684210526314" y="317.0315789473684"/>
      <point x="1060.126315789474" y="95.9578947368421"/>
      <point x="583.3684210526316" y="89.28421052631579" type="curve"/>
    </contour>
  </outline>
</glyph>
<glyph name="E" format="2">
  <advance width="1184.0229885057472"/>
  <unicode hex="0045"/>
  <anchor x="532.8735632183907" y="0.0" name="bottom"/>
  <anchor x="956.9655172413792" y="0.0" name="ogonek"/>
  <anchor x="832.8735632183907" y="1426.0" name="top"/>
  <anchor x="269.816091954023" y="1426.0" name="topleft"/>
  <outline>
    <contour>
      <point x="98.94252873563221" y="0.0" type="curve"/>
      <point x="213.4022988505747" y="0.0" type="line"/>
      <point x="216.87356321839079" y="13.885057471264368" type="line"/>
      <point x="242.66666666666666" y="174.7816091954023"/>
      <point x="269.9310344827586" y="312.04597701149424"/>
      <point x="307.9310344827586" y="488.41379310344826" type="curve"/>
      <point x="403.35632183908046" y="937.7471264367816" type="line"/>
      <point x="439.7241379310345" y="1114.8505747126437"/>
      <point x="472.45977011494256" y="1252.4827586206898"/>
      <point x="511.9310344827586" y="1413.7471264367816" type="curve"/>
      <point x="513.4022988505747" y="1426.0" type="line"/>
      <point x="398.94252873563215" y="1426.0" type="line"/>
      <point x="370.78160919540227" y="1264.7356321839081"/>
      <point x="343.8850574712644" y="1125.103448275862"/>
      <point x="305.88505747126436" y="946.0" type="curve"/>
      <point x="205.51724137931035" y="474.5287356321839" type="line"/>
      <point x="169.14942528735634" y="299.7931034482759"/>
      <point x="138.41379310344828" y="160.89655172413794"/>
    </contour>
    <contour>
      <point x="189.51724137931038" y="0.0" type="line"/>
      <point x="957.7011494252872" y="0.0" type="line"/>
      <point x="978.6896551724137" y="101.26436781609195" type="line"/>
      <point x="826.8965517241378" y="93.05747126436782"/>
      <point x="666.2068965517241" y="90.6896551724138"/>
      <point x="483.8850574712644" y="90.6896551724138" type="curve"/>
      <point x="209.40229885057474" y="90.6896551724138" type="line"/>
    </contour>
    <contour>
      <point x="327.05747126436785" y="679.6551724137931" type="line"/>
      <point x="611.3793103448274" y="679.6551724137931" type="line"/>
      <point x="796.8045977011493" y="679.6551724137931"/>
      <point x="921.3333333333333" y="679.2873563218391"/>
      <point x="1057.1264367816093" y="676.1839080459771" type="curve"/>
      <point x="1077.7471264367816" y="776.3448275862069" type="line"/>
      <point x="948.8505747126435" y="769.2413793103449"/>
      <point x="822.3218390804597" y="768.8735632183908"/>
      <point x="632.8965517241378" y="768.8735632183908" type="curve"/>
      <point x="346.5747126436782" y="768.8735632183908" type="line"/>
    </contour>
    <contour>
      <point x="466.6896551724138" y="1335.3103448275863" type="line"/>
      <point x="733.9080459770114" y="1335.3103448275863" type="line"/>
      <point x="949.8620689655172" y="1335.3103448275863"/>
      <point x="1098.9195402298851" y="1332.5747126436781"/>
      <point x="1237.9770114942528" y="1324.7356321839081" type="curve"/>
      <point x="1258.5977011494253" y="1426.0" type="line"/>
      <point x="486.5747126436782" y="1426.0" type="line"/>
    </contour>
  </outline>
</glyph>
<glyph name="F" format="2">
  <advance width="1144.5263157894738"/>
  <unicode hex="0046"/>
  <outline>
    <contour>
      <point x="99.0315789473684" y="0.0" type="curve"/>
      <point x="213.62105263157898" y="0.0" type="line"/>
      <point x="239.7684210526316" y="160.82105263157894"/>
      <point x="266.58947368421053" y="296.1473684210526"/>
      <point x="304.5894736842106" y="474.4842105263158" type="curve"/>
      <point x="403.4105263157895" y="937.6" type="line"/>
      <point x="439.74736842105267" y="1114.778947368421"/>
      <point x="472.58947368421053" y="1252.4421052631578"/>
      <point x="512.2736842105263" y="1413.7684210526315" type="curve"/>
      <point x="513.621052631579" y="1426.0" type="line"/>
      <point x="399.0315789473684" y="1426.0" type="line"/>
      <point x="370.88421052631577" y="1264.6736842105263"/>
      <point x="344.06315789473683" y="1125.178947368421"/>
      <point x="305.89473684210526" y="946.1684210526315" type="curve"/>
      <point x="205.5578947368421" y="474.4842105263158" type="line"/>
      <point x="169.38947368421051" y="299.81052631578945"/>
      <point x="138.54736842105262" y="160.82105263157894"/>
    </contour>
    <contour>
      <point x="325.7894736842105" y="676.8210526315789" type="line"/>
      <point x="591.7684210526317" y="676.8210526315789" type="line"/>
      <point x="777.2421052631579" y="676.8210526315789"/>
      <point x="901.5578947368421" y="676.4842105263158"/>
      <point x="1037.3684210526317" y="673.1368421052631" type="curve"/>
      <point x="1057.9368421052632" y="773.6210526315789" type="line"/>
      <point x="929.2842105263159" y="766.4421052631578"/>
      <point x="802.8" y="766.1052631578947"/>
      <point x="613.1578947368421" y="766.1052631578947" type="curve"/>
      <point x="345.34736842105264" y="766.1052631578947" type="line"/>
    </contour>
    <contour>
      <point x="466.1263157894737" y="1335.2" type="line"/>
      <point x="714.9263157894737" y="1335.2" type="line"/>
      <point x="930.8842105263158" y="1335.2"/>
      <point x="1079.8526315789472" y="1332.3578947368421"/>
      <point x="1218.9894736842107" y="1324.842105263158" type="curve"/>
      <point x="1239.5578947368422" y="1426.0" type="line"/>
      <point x="486.021052631579" y="1426.0" type="line"/>
    </contour>
  </outline>
</glyph>
<glyph name="G" format="2">
  <advance width="1472.3894736842105"/>
  <unicode hex="0047"/>
  <anchor x="697.4000000000001" y="0.0" name="bottom"/>
  <anchor x="997.4000000000001" y="1426.0" name="top"/>
  <outline>
    <contour>
      <point x="797.9263157894737" y="-19.010526315789473" type="curve" smooth="yes"/>
      <point x="944.7473684210526" y="-19.010526315789473"/>
      <point x="1126.621052631579" y="24.652631578947368"/>
      <point x="1236.9578947368418" y="68.12631578947368" type="curve"/>
      <point x="1234.136842105263" y="176.2736842105263" type="line"/>
      <point x="1087.2947368421053" y="105.76842105263158"/>
      <point x="942.1578947368421" y="73.76842105263158"/>
      <point x="802.4526315789475" y="73.76842105263158" type="curve"/>
      <point x="340.5368421052632" y="79.93684210526315"/>
      <point x="196.43157894736842" y="419.7894736842105"/>
      <point x="273.2315789473684" y="782.6315789473684" type="curve" smooth="yes"/>
      <point x="358.0315789473684" y="1179.9789473684211"/>
      <point x="617.1263157894738" y="1349.7052631578947"/>
      <point x="965.7157894736843" y="1355.7052631578947" type="curve"/>
      <point x="1047.378947368421" y="1355.7052631578947"/>
      <point x="1225.5263157894735" y="1313.8736842105266"/>
      <point x="1432.8736842105263" y="1210.042105263158" type="curve"/>
      <point x="1465.8" y="1314.2105263157894" type="line"/>
      <point x="1338.4526315789474" y="1370.6947368421054"/>
      <point x="1133.7789473684209" y="1450.6736842105263"/>
      <point x="964.8947368421053" y="1450.6736842105263" type="curve" smooth="yes"/>
      <point x="550.8526315789474" y="1450.6736842105263"/>
      <point x="263.3578947368421" y="1222.3578947368421"/>
      <point x="173.18947368421053" y="798.6736842105263" type="curve" smooth="yes"/>
      <point x="83.02105263157894" y="373.3263157894737"/>
      <point x="282.0315789473684" y="-19.010526315789473"/>
    </contour>
    <contour>
      <point x="1129.084210526316" y="68.12631578947368" type="curve"/>
      <point x="1236.9578947368418" y="68.12631578947368" type="line"/>
      <point x="1261.9473684210525" y="202.14736842105265"/>
      <point x="1280.1157894736841" y="299.4947368421053"/>
      <point x="1300.6210526315788" y="401.17894736842106" type="curve"/>
      <point x="1326.7894736842104" y="522.6947368421053"/>
      <point x="1347.9684210526316" y="607.8736842105263"/>
      <point x="1373.9894736842102" y="703.3894736842105" type="curve"/>
      <point x="1257.5894736842106" y="703.3894736842105" type="line"/>
      <point x="1244.9368421052632" y="607.8736842105263"/>
      <point x="1229.6105263157895" y="522.6947368421053"/>
      <point x="1203.4421052631578" y="401.17894736842106" type="curve"/>
      <point x="1182.9368421052632" y="299.4947368421053"/>
      <point x="1162.0947368421052" y="202.14736842105265"/>
    </contour>
  </outline>
</glyph>
<glyph name="H" format="2">
  <advance width="1501.8526315789475"/>
  <unicode hex="0048"/>
  <anchor x="646.8421052631579" y="0.0" name="bottom"/>
  <anchor x="796.8421052631579" y="714.0" name="center"/>
  <anchor x="946.8421052631579" y="1426.0" name="top"/>
  <anchor x="269.0105263157895" y="1426.0" name="topleft"/>
  <outline>
    <contour>
      <point x="1078.8842105263159" y="0.0" type="curve"/>
      <point x="1194.4842105263156" y="0.0" type="line"/>
      <point x="1220.6315789473683" y="160.82105263157894"/>
      <point x="1247.4526315789474" y="296.1473684210526"/>
      <point x="1285.4526315789471" y="474.4842105263158" type="curve"/>
      <point x="1385.7894736842104" y="946.1684210526315" type="line"/>
      <point x="1423.957894736842" y="1125.178947368421"/>
      <point x="1454.8" y="1264.6736842105263"/>
      <point x="1494.4842105263156" y="1426.0" type="curve"/>
      <point x="1378.8842105263159" y="1426.0" type="line"/>
      <point x="1350.7368421052631" y="1264.6736842105263"/>
      <point x="1323.9157894736843" y="1125.178947368421"/>
      <point x="1285.7473684210527" y="946.1684210526315" type="curve"/>
      <point x="1185.4105263157896" y="474.4842105263158" type="line"/>
      <point x="1149.242105263158" y="299.81052631578945"/>
      <point x="1118.4" y="160.82105263157894"/>
    </contour>
    <contour>
      <point x="99.0315789473684" y="0.0" type="curve"/>
      <point x="214.6315789473684" y="0.0" type="line"/>
      <point x="240.77894736842106" y="160.82105263157894"/>
      <point x="267.6" y="296.1473684210526"/>
      <point x="305.6" y="474.4842105263158" type="curve"/>
      <point x="405.93684210526317" y="946.1684210526315" type="line"/>
      <point x="444.10526315789474" y="1125.178947368421"/>
      <point x="474.9473684210526" y="1264.6736842105263"/>
      <point x="514.6315789473684" y="1426.0" type="curve"/>
      <point x="399.0315789473684" y="1426.0" type="line"/>
      <point x="370.88421052631577" y="1264.6736842105263"/>
      <point x="344.06315789473683" y="1125.178947368421"/>
      <point x="305.89473684210526" y="946.1684210526315" type="curve"/>
      <point x="205.5578947368421" y="474.4842105263158" type="line"/>
      <point x="169.38947368421051" y="299.81052631578945"/>
      <point x="138.54736842105262" y="160.82105263157894"/>
    </contour>
    <contour>
      <point x="300.0" y="678.6736842105263" type="line"/>
      <point x="1282.9473684210525" y="678.6736842105263" type="line"/>
      <point x="1303.0105263157893" y="769.4736842105264" type="line"/>
      <point x="320.06315789473683" y="769.4736842105264" type="line"/>
    </contour>
  </outline>
</glyph>
<glyph name="I" format="2">
  <advance width="524.5263157894736"/>
  <unicode hex="0049"/>
  <anchor x="156.42105263157893" y="0.0" name="bottom"/>
  <anchor x="215.4736842105263" y="0.0" name="ogonek"/>
  <anchor x="456.42105263157896" y="1426.0" name="top"/>
  <anchor x="268.821052631579" y="1426.0" name="topleft"/>
  <outline>
    <contour>
      <point x="99.87368421052629" y="0.0" type="curve"/>
      <point x="216.3157894736842" y="0.0" type="line"/>
      <point x="242.4631578947368" y="160.82105263157894"/>
      <point x="269.28421052631575" y="296.1473684210526"/>
      <point x="307.2842105263158" y="474.4842105263158" type="curve"/>
      <point x="407.62105263157895" y="946.1684210526315" type="line"/>
      <point x="445.7894736842105" y="1125.178947368421"/>
      <point x="476.6315789473684" y="1264.6736842105263"/>
      <point x="516.3157894736842" y="1426.0" type="curve"/>
      <point x="399.87368421052633" y="1426.0" type="line"/>
      <point x="371.7263157894737" y="1264.6736842105263"/>
      <point x="344.90526315789475" y="1125.178947368421"/>
      <point x="306.7368421052632" y="946.1684210526315" type="curve"/>
      <point x="206.39999999999998" y="474.4842105263158" type="line"/>
      <point x="170.2315789473684" y="299.81052631578945"/>
      <point x="139.38947368421051" y="160.82105263157894"/>
    </contour>
  </outline>
</glyph>
<glyph name="J" format="2">
  <advance width="556.4842105263158"/>
  <unicode hex="004A"/>
  <anchor x="187.22105263157897" y="0.0" name="bottom"/>
  <anchor x="487.22105263157897" y="1426.0" name="top"/>
  <outline>
    <contour>
      <point x="-135.89473684210526" y="-318.65263157894736" type="curve"/>
      <point x="3.4315789473684246" y="-318.65263157894736" type="line"/>
      <point x="95.76842105263158" y="-228.31578947368422"/>
      <point x="226.1052631578947" y="-86.14736842105263"/>
      <point x="268.6105263157895" y="115.8736842105263" type="curve" smooth="yes"/>
      <point x="297.4526315789474" y="250.25263157894736"/>
      <point x="322.2736842105263" y="394.8"/>
      <point x="356.9473684210526" y="558.1684210526316" type="curve"/>
      <point x="439.57894736842104" y="946.1684210526315" type="line"/>
      <point x="477.7473684210526" y="1125.178947368421"/>
      <point x="508.58947368421053" y="1264.6736842105263"/>
      <point x="548.2736842105262" y="1426.0" type="curve"/>
      <point x="432.67368421052635" y="1426.0" type="line"/>
      <point x="404.5263157894737" y="1264.6736842105263"/>
      <point x="377.70526315789476" y="1125.178947368421"/>
      <point x="339.5368421052632" y="946.1684210526315" type="curve"/>
      <point x="244.0842105263158" y="497.7263157894737" type="line"/>
      <point x="162.88421052631577" y="123.38947368421053" type="line"/>
      <point x="125.05263157894736" y="-53.93684210526317"/>
      <point x="2.926315789473678" y="-194.29473684210527"/>
    </contour>
  </outline>
</glyph>
<glyph name="K" format="2">
  <advance width="1312.315789473684"/>
  <unicode hex="004B"/>
  <anchor x="567.2421052631579" y="0.0" name="bottom"/>
  <anchor x="867.2421052631579" y="1426.0" name="top"/>
  <outline>
    <contour>
      <point x="1003.4315789473683" y="0.0" type="curve"/>
      <point x="1149.3894736842105" y="0.0" type="line"/>
      <point x="1038.421052631579" y="118.84210526315789"/>
      <point x="872.9894736842105" y="307.87368421052633"/>
      <point x="750.5473684210527" y="449.89473684210526" type="curve"/>
      <point x="486.00000000000006" y="758.4421052631579" type="line"/>
      <point x="489.3263157894737" y="707.2842105263157" type="line"/>
      <point x="835.8947368421053" y="983.4736842105262" type="line"/>
      <point x="1020.8421052631578" y="1126.9894736842105"/>
      <point x="1205.621052631579" y="1272.0000000000002"/>
      <point x="1409.0736842105262" y="1426.0" type="curve"/>
      <point x="1243.9368421052632" y="1426.0" type="line"/>
      <point x="1053.7473684210524" y="1269.5368421052633"/>
      <point x="919.4947368421053" y="1161.221052631579"/>
      <point x="766.0842105263158" y="1039.9157894736843" type="curve"/>
      <point x="436.7789473684211" y="780.1473684210526" type="line"/>
      <point x="353.2842105263158" y="780.1473684210526" type="line"/>
      <point x="333.89473684210526" y="691.5368421052632" type="line"/>
      <point x="416.23157894736846" y="691.5368421052632" type="line"/>
      <point x="679.3684210526316" y="385.2631578947368" type="line"/>
      <point x="781.957894736842" y="267.4526315789474"/>
      <point x="884.378947368421" y="145.81052631578947"/>
    </contour>
    <contour>
      <point x="99.0315789473684" y="0.0" type="curve"/>
      <point x="214.46315789473684" y="0.0" type="line"/>
      <point x="240.61052631578946" y="160.82105263157894"/>
      <point x="267.4315789473684" y="296.1473684210526"/>
      <point x="305.43157894736845" y="474.4842105263158" type="curve"/>
      <point x="405.7684210526316" y="946.1684210526315" type="line"/>
      <point x="443.93684210526317" y="1125.178947368421"/>
      <point x="474.77894736842103" y="1264.6736842105263"/>
      <point x="514.4631578947368" y="1426.0" type="curve"/>
      <point x="399.0315789473684" y="1426.0" type="line"/>
      <point x="370.88421052631577" y="1264.6736842105263"/>
      <point x="344.06315789473683" y="1125.178947368421"/>
      <point x="305.89473684210526" y="946.1684210526315" type="curve"/>
      <point x="205.5578947368421" y="474.4842105263158" type="line"/>
      <point x="169.38947368421051" y="299.81052631578945"/>
      <point x="138.54736842105262" y="160.82105263157894"/>
    </contour>
  </outline>
</glyph>
<glyph name="L" format="2">
  <advance width="1134.1894736842105"/>
  <unicode hex="004C"/>
  <anchor x="530.2947368421052" y="0.0" name="bottom"/>
  <anchor x="877.2421052631579" y="714.5052631578948" name="center"/>
  <anchor x="572.4631578947368" y="1426.0" name="top"/>
  <anchor x="649.9368421052632" y="989.3473684210526" name="topright"/>
  <outline>
    <contour>
      <point x="99.0315789473684" y="0.0" type="curve"/>
      <point x="214.6315789473684" y="0.0" type="line"/>
      <point x="217.97894736842102" y="14.063157894736843" type="line"/>
      <point x="243.9578947368421" y="174.8842105263158"/>
      <point x="272.77894736842103" y="313.87368421052633"/>
      <point x="308.9473684210526" y="488.5473684210526" type="curve"/>
      <point x="405.93684210526317" y="946.1684210526315" type="line"/>
      <point x="444.10526315789474" y="1125.178947368421"/>
      <point x="474.9473684210526" y="1264.6736842105263"/>
      <point x="514.6315789473684" y="1426.0" type="curve"/>
      <point x="399.0315789473684" y="1426.0" type="line"/>
      <point x="370.88421052631577" y="1264.6736842105263"/>
      <point x="344.06315789473683" y="1125.178947368421"/>
      <point x="305.89473684210526" y="946.1684210526315" type="curve"/>
      <point x="205.5578947368421" y="474.4842105263158" type="line"/>
      <point x="169.38947368421051" y="299.81052631578945"/>
      <point x="138.54736842105262" y="160.82105263157894"/>
    </contour>
    <contour>
      <point x="189.5578947368421" y="0.0" type="line"/>
      <point x="956.3789473684211" y="0.0" type="line"/>
      <point x="977.6210526315789" y="104.02105263157895" type="line"/>
      <point x="812.6526315789474" y="95.66315789473684"/>
      <point x="673.5157894736843" y="92.48421052631579"/>
      <point x="432.9052631578947" y="92.48421052631579" type="curve"/>
      <point x="209.95789473684206" y="92.48421052631579" type="line"/>
    </contour>
  </outline>
</glyph>
<glyph name="M" format="2">
  <advance width="1903.536842105263"/>
  <unicode hex="004D"/>
  <anchor x="847.5157894736841" y="0.0" name="bottom"/>
  <anchor x="1147.5157894736842" y="1426.0" name="top"/>
  <outline>
    <contour>
      <point x="37.55789473684211" y="0.0" type="curve"/>
      <point x="154.29473684210527" y="0.0" type="line"/>
      <point x="241.38947368421057" y="275.7052631578947"/>
      <point x="325.8315789473684" y="537.4105263157895"/>
      <point x="398.63157894736844" y="757.4736842105264" type="curve"/>
      <point x="553.8947368421052" y="1232.0842105263157" type="line"/>
      <point x="562.0842105263157" y="1232.0842105263157" type="line"/>
      <point x="669.0105263157895" y="715.8315789473684" type="line"/>
      <point x="715.978947368421" y="476.77894736842103"/>
      <point x="766.757894736842" y="200.25263157894736"/>
      <point x="804.3789473684211" y="0.0" type="curve"/>
      <point x="894.3368421052631" y="0.0" type="line"/>
      <point x="1023.7473684210528" y="212.90526315789472"/>
      <point x="1183.3052631578948" y="472.77894736842103"/>
      <point x="1336.378947368421" y="719.4947368421052" type="curve"/>
      <point x="1655.6842105263158" y="1232.0842105263157" type="line"/>
      <point x="1663.8736842105263" y="1232.0842105263157" type="line"/>
      <point x="1621.7263157894738" y="757.4736842105264" type="line"/>
      <point x="1602.5684210526317" y="537.4105263157895"/>
      <point x="1574.5684210526313" y="281.0315789473684"/>
      <point x="1541.3894736842103" y="0.0" type="curve"/>
      <point x="1657.6421052631579" y="0.0" type="line"/>
      <point x="1667.7894736842104" y="160.65263157894736"/>
      <point x="1678.442105263158" y="302.3157894736842"/>
      <point x="1694.2736842105262" y="474.4842105263158" type="curve"/>
      <point x="1737.7684210526315" y="945.8315789473684" type="line"/>
      <point x="1753.6" y="1121.494736842105"/>
      <point x="1768.4421052631576" y="1262.6736842105263"/>
      <point x="1787.621052631579" y="1426.0" type="curve"/>
      <point x="1664.5263157894735" y="1426.0" type="line"/>
      <point x="1531.1157894736841" y="1200.5894736842106"/>
      <point x="1402.6947368421052" y="992.3578947368421"/>
      <point x="1271.6" y="783.2842105263157" type="curve"/>
      <point x="884.1473684210525" y="164.2315789473684" type="line"/>
      <point x="874.2947368421052" y="164.2315789473684" type="line"/>
      <point x="749.8736842105263" y="783.2842105263157" type="line"/>
      <point x="708.4" y="992.3578947368421"/>
      <point x="667.0947368421054" y="1201.0947368421052"/>
      <point x="631.8105263157895" y="1426.0" type="curve"/>
      <point x="512.0631578947368" y="1426.0" type="line"/>
      <point x="465.57894736842104" y="1260.6736842105263"/>
      <point x="419.9157894736842" y="1117.8315789473684"/>
      <point x="361.9157894736842" y="945.8315789473684" type="curve"/>
      <point x="205.4105263157895" y="474.4842105263158" type="line"/>
      <point x="147.4105263157895" y="300.65263157894736"/>
      <point x="98.23157894736843" y="160.14736842105265"/>
    </contour>
  </outline>
</glyph>
<glyph name="N" format="2">
  <advance width="1521.157894736842"/>
  <unicode hex="004E"/>
  <anchor x="653.8315789473684" y="0.0" name="bottom"/>
  <anchor x="953.8315789473684" y="1426.0" name="top"/>
  <outline>
    <contour>
      <point x="99.0315789473684" y="0.0" type="curve"/>
      <point x="211.76842105263157" y="0.0" type="line"/>
      <point x="237.91578947368419" y="160.82105263157894"/>
      <point x="264.7368421052631" y="296.1473684210526"/>
      <point x="302.7368421052632" y="474.4842105263158" type="curve"/>
      <point x="469.11578947368423" y="1265.242105263158" type="line"/>
      <point x="479.1368421052632" y="1265.242105263158" type="line"/>
      <point x="725.8315789473685" y="766.3157894736842" type="line"/>
      <point x="873.578947368421" y="468.63157894736844"/>
      <point x="990.6736842105262" y="225.74736842105264"/>
      <point x="1096.5894736842104" y="0.0" type="curve"/>
      <point x="1208.294736842105" y="0.0" type="line"/>
      <point x="1234.442105263158" y="160.82105263157894"/>
      <point x="1261.2631578947369" y="296.1473684210526"/>
      <point x="1299.2631578947369" y="474.4842105263158" type="curve"/>
      <point x="1399.6" y="946.1684210526315" type="line"/>
      <point x="1437.7684210526315" y="1125.178947368421"/>
      <point x="1468.6105263157895" y="1264.6736842105263"/>
      <point x="1508.294736842105" y="1426.0" type="curve"/>
      <point x="1395.5578947368422" y="1426.0" type="line"/>
      <point x="1367.4105263157894" y="1264.6736842105263"/>
      <point x="1340.5894736842106" y="1125.178947368421"/>
      <point x="1302.421052631579" y="946.1684210526315" type="curve"/>
      <point x="1136.3789473684212" y="168.0842105263158" type="line"/>
      <point x="1126.1894736842107" y="168.0842105263158" type="line"/>
      <point x="881.8315789473684" y="663.1789473684211" type="line"/>
      <point x="762.5684210526316" y="905.5578947368422"/>
      <point x="640.6526315789473" y="1158.1052631578943"/>
      <point x="513.9157894736842" y="1426.0" type="curve"/>
      <point x="399.0315789473684" y="1426.0" type="line"/>
      <point x="370.88421052631577" y="1264.6736842105263"/>
      <point x="344.06315789473683" y="1125.178947368421"/>
      <point x="305.89473684210526" y="946.1684210526315" type="curve"/>
      <point x="205.5578947368421" y="474.4842105263158" type="line"/>
      <point x="169.38947368421051" y="299.81052631578945"/>
      <point x="138.54736842105262" y="160.82105263157894"/>
    </contour>
  </outline>
</glyph>
<glyph name="P" format="2">
  <advance width="1231.218390804598"/>
  <unicode hex="0050"/>
  <outline>
    <contour>
      <point x="671.4252873563219" y="603.0804597701149" type="curve"/>
      <point x="1075.9080459770116" y="603.0804597701149"/>
      <point x="1191.4252873563219" y="748.1839080459771"/>
      <point x="1244.16091954023" y="997.7011494252873" type="curve" smooth="yes"/>
      <point x="1298.3678160919542" y="1255.471264367816"/>
      <point x="1160.3218390804598" y="1429.103448275862"/>
      <point x="847.1724137931034" y="1429.103448275862" type="curve"/>
      <point x="645.816091954023" y="1429.103448275862"/>
      <point x="511.35632183908046" y="1426.0"/>
      <point x="398.94252873563215" y="1426.0" type="curve"/>
      <point x="463.3103448275862" y="1336.7816091954023" type="line"/>
      <point x="831.4482758620688" y="1336.7816091954023" type="line" smooth="yes"/>
      <point x="992.9885057471264" y="1336.7816091954023"/>
      <point x="1202.0689655172414" y="1286.0459770114942"/>
      <point x="1142.1149425287356" y="1008.0689655172415" type="curve" smooth="yes"/>
      <point x="1091.4252873563219" y="761.7241379310344"/>
      <point x="969.5172413793103" y="693.0344827586207"/>
      <point x="673.3793103448274" y="693.0344827586207" type="curve" smooth="yes"/>
      <point x="337.35632183908046" y="693.0344827586207" type="line"/>
      <point x="317.8390804597701" y="605.448275862069" type="line"/>
      <point x="397.8390804597701" y="605.448275862069"/>
      <point x="569.7931034482758" y="603.0804597701149"/>
    </contour>
    <contour>
      <point x="98.94252873563221" y="0.0" type="curve"/>
      <point x="214.1379310344828" y="0.0" type="line"/>
      <point x="240.29885057471267" y="160.89655172413794"/>
      <point x="266.82758620689657" y="296.1609195402299"/>
      <point x="304.82758620689657" y="474.5287356321839" type="curve"/>
      <point x="403.72413793103453" y="937.7471264367816" type="line"/>
      <point x="440.09195402298855" y="1114.8505747126437"/>
      <point x="472.82758620689657" y="1252.4827586206898"/>
      <point x="512.6666666666667" y="1413.7471264367816" type="curve"/>
      <point x="398.94252873563215" y="1426.0" type="line"/>
      <point x="370.78160919540227" y="1264.7356321839081"/>
      <point x="343.8850574712644" y="1125.103448275862"/>
      <point x="305.88505747126436" y="946.0" type="curve"/>
      <point x="205.51724137931035" y="474.5287356321839" type="line"/>
      <point x="169.14942528735634" y="299.7931034482759"/>
      <point x="138.4137931034483" y="160.89655172413794"/>
    </contour>
  </outline>
</glyph>
<glyph name="R" format="2">
  <advance width="1324.4827586206895"/>
  <unicode hex="0052"/>
  <anchor x="558.9655172413793" y="0.0" name="bottom"/>
  <anchor x="827.9540229885057" y="1426.0" name="top"/>
  <outline>
    <contour>
      <point x="1016.8045977011494" y="0.0" type="curve"/>
      <point x="1152.5747126436784" y="0.0" type="line"/>
      <point x="1072.7816091954023" y="109.63218390804597"/>
      <point x="960.0919540229884" y="275.1034482758621"/>
      <point x="874.1379310344827" y="403.8390804597701" type="curve"/>
      <point x="688.2298850574713" y="684.5747126436781" type="line"/>
      <point x="664.735632183908" y="635.7011494252874" type="line"/>
      <point x="1058.8505747126437" y="632.0689655172414"/>
      <point x="1178.3678160919542" y="774.0689655172413"/>
      <point x="1228.7356321839081" y="1012.2758620689656" type="curve" smooth="yes"/>
      <point x="1280.5747126436781" y="1253.83908045977"/>
      <point x="1141.7931034482758" y="1429.103448275862"/>
      <point x="828.2758620689655" y="1429.103448275862" type="curve"/>
      <point x="632.4367816091954" y="1429.103448275862"/>
      <point x="513.5632183908046" y="1426.0"/>
      <point x="398.94252873563215" y="1426.0" type="curve"/>
      <point x="453.37931034482756" y="1336.7816091954023" type="line"/>
      <point x="812.919540229885" y="1336.7816091954023" type="line" smooth="yes"/>
      <point x="974.4597701149424" y="1336.7816091954023"/>
      <point x="1181.5402298850574" y="1285.8850574712644"/>
      <point x="1125.2183908045977" y="1020.8045977011493" type="curve" smooth="yes"/>
      <point x="1073.7931034482758" y="777.6781609195402"/>
      <point x="948.7816091954022" y="710.0919540229885"/>
      <point x="654.1149425287356" y="710.0919540229885" type="curve" smooth="yes"/>
      <point x="334.4137931034483" y="710.0919540229885" type="line"/>
      <point x="314.89655172413796" y="622.5057471264367" type="line"/>
      <point x="647.103448275862" y="622.5057471264367" type="line"/>
      <point x="588.919540229885" y="666.5747126436781" type="line"/>
      <point x="791.9310344827586" y="353.37931034482756" type="line"/>
      <point x="866.0459770114942" y="240.3218390804598"/>
      <point x="940.16091954023" y="124.89655172413794"/>
    </contour>
    <contour>
      <point x="98.94252873563221" y="0.0" type="curve"/>
      <point x="214.13793103448273" y="0.0" type="line"/>
      <point x="240.29885057471262" y="160.89655172413794"/>
      <point x="266.8275862068965" y="296.1609195402299"/>
      <point x="304.8275862068965" y="474.5287356321839" type="curve"/>
      <point x="403.7241379310345" y="937.7471264367816" type="line"/>
      <point x="440.0919540229885" y="1114.8505747126437"/>
      <point x="472.82758620689657" y="1252.4827586206895"/>
      <point x="512.6666666666666" y="1413.7471264367816" type="curve"/>
      <point x="398.94252873563215" y="1426.0" type="line"/>
      <point x="370.78160919540227" y="1264.7356321839081"/>
      <point x="343.8850574712644" y="1125.103448275862"/>
      <point x="305.88505747126436" y="946.0" type="curve"/>
      <point x="205.51724137931035" y="474.5287356321839" type="line"/>
      <point x="169.14942528735634" y="299.7931034482759"/>
      <point x="138.4137931034483" y="160.89655172413794"/>
    </contour>
  </outline>
</glyph>
<glyph name="T" format="2">
  <advance width="1276.3578947368421"/>
  <unicode hex="0054"/>
  <anchor x="537.0105263157894" y="0.0" name="bottom"/>
  <anchor x="684.8210526315789" y="704.2315789473685" name="center"/>
  <anchor x="837.0105263157894" y="1426.0" name="top"/>
  <outline>
    <contour>
      <point x="479.9578947368421" y="0.0" type="curve"/>
      <point x="595.3894736842105" y="0.0" type="line"/>
      <point x="621.5368421052632" y="160.82105263157894"/>
      <point x="648.3578947368421" y="296.1473684210526"/>
      <point x="686.3578947368421" y="474.4842105263158" type="curve"/>
      <point x="785.3473684210526" y="937.6" type="line"/>
      <point x="821.6842105263158" y="1114.778947368421"/>
      <point x="854.5263157894738" y="1252.4421052631578"/>
      <point x="894.2105263157895" y="1413.7684210526315" type="curve"/>
      <point x="895.5578947368422" y="1426.0" type="line"/>
      <point x="780.1263157894737" y="1426.0" type="line"/>
      <point x="776.9473684210526" y="1413.7684210526315" type="line"/>
      <point x="750.8" y="1252.4421052631578"/>
      <point x="723.6421052631579" y="1112.9473684210527"/>
      <point x="685.4736842105262" y="937.6" type="curve"/>
      <point x="586.4842105263158" y="474.4842105263158" type="line"/>
      <point x="550.3157894736843" y="299.81052631578945"/>
      <point x="519.4736842105264" y="160.82105263157894"/>
    </contour>
    <contour>
      <point x="244.06315789473683" y="1321.9789473684211" type="line"/>
      <point x="360.8842105263158" y="1328.5052631578947"/>
      <point x="483.3684210526316" y="1333.5157894736842"/>
      <point x="650.8421052631579" y="1333.5157894736842" type="curve"/>
      <point x="782.8210526315789" y="1333.5157894736842" type="line"/>
      <point x="803.0526315789473" y="1426.0" type="line"/>
      <point x="265.30526315789473" y="1426.0" type="line"/>
    </contour>
    <contour>
      <point x="848.7368421052632" y="1333.5157894736842" type="line"/>
      <point x="980.7157894736843" y="1333.5157894736842" type="line"/>
      <point x="1148.1894736842105" y="1333.5157894736842"/>
      <point x="1271.8315789473684" y="1330.3368421052633"/>
      <point x="1385.4736842105265" y="1321.9789473684211" type="curve"/>
      <point x="1406.7157894736843" y="1426.0" type="line"/>
      <point x="868.9684210526316" y="1426.0" type="line"/>
    </contour>
  </outline>
</glyph>
<glyph name="U" format="2">
  <advance width="1462.9894736842105"/>
  <unicode hex="0055"/>
  <anchor x="629.3263157894736" y="0.0" name="bottom"/>
  <anchor x="841.578947368421" y="0.0" name="ogonek"/>
  <anchor x="929.3263157894736" y="1426.0" name="top"/>
  <anchor x="1578.378947368421" y="1426.0" name="topright"/>
  <outline>
    <contour>
      <point x="663.6631578947367" y="-19.178947368421053" type="curve" smooth="yes"/>
      <point x="1049.915789473684" y="-19.178947368421053"/>
      <point x="1212.9263157894736" y="197.1578947368421"/>
      <point x="1271.9368421052632" y="475.0315789473684" type="curve" smooth="yes"/>
      <point x="1291.6" y="569.1789473684211"/>
      <point x="1330.9263157894736" y="758.1894736842105"/>
      <point x="1370.421052631579" y="946.1684210526315" type="curve"/>
      <point x="1408.5894736842106" y="1125.178947368421"/>
      <point x="1439.4315789473685" y="1264.6736842105263"/>
      <point x="1479.1157894736841" y="1426.0" type="curve"/>
      <point x="1363.5157894736842" y="1426.0" type="line"/>
      <point x="1335.3684210526317" y="1264.6736842105263"/>
      <point x="1308.5473684210526" y="1125.178947368421"/>
      <point x="1270.378947368421" y="946.1684210526315" type="curve"/>
      <point x="1174.0631578947368" y="500.90526315789475" type="line" smooth="yes"/>
      <point x="1120.421052631579" y="250.02105263157895"/>
      <point x="1001.8105263157893" y="77.28421052631579"/>
      <point x="668.6947368421053" y="74.61052631578947" type="curve"/>
      <point x="330.75789473684205" y="77.28421052631579"/>
      <point x="243.81052631578945" y="297.4947368421052"/>
      <point x="303.1157894736842" y="578.5263157894738" type="curve" smooth="yes"/>
      <point x="382.4421052631579" y="946.1684210526315" type="line"/>
      <point x="420.61052631578946" y="1125.178947368421"/>
      <point x="451.4526315789474" y="1264.6736842105263"/>
      <point x="491.13684210526316" y="1426.0" type="curve"/>
      <point x="375.7052631578947" y="1426.0" type="line"/>
      <point x="347.55789473684206" y="1264.6736842105263"/>
      <point x="320.7368421052631" y="1125.178947368421"/>
      <point x="282.56842105263155" y="946.1684210526315" type="curve"/>
      <point x="250.90526315789472" y="796.3578947368421"/>
      <point x="216.56842105263158" y="657.1999999999999"/>
      <point x="200.73684210526315" y="580.2105263157895" type="curve" smooth="yes"/>
      <point x="131.7263157894737" y="259.3263157894737"/>
      <point x="270.0842105263158" y="-19.178947368421053"/>
    </contour>
  </outline>
</glyph>
<glyph name="V" format="2">
  <advance width="1348.1263157894737"/>
  <unicode hex="0056"/>
  <anchor x="571.8947368421053" y="0.0" name="bottom"/>
  <anchor x="871.8947368421053" y="1426.0" name="top"/>
  <outline>
    <contour>
      <point x="497.2842105263158" y="0.0" type="curve"/>
      <point x="656.6526315789473" y="0.0" type="line"/>
      <point x="733.7894736842105" y="145.8315789473684"/>
      <point x="834.9263157894736" y="321.3263157894737"/>
      <point x="913.9157894736842" y="453.8315789473684" type="curve"/>
      <point x="1175.5368421052633" y="900.0" type="line"/>
      <point x="1266.021052631579" y="1054.1684210526316"/>
      <point x="1387.0105263157893" y="1256.5052631578947"/>
      <point x="1493.8526315789475" y="1426.0" type="curve"/>
      <point x="1358.5263157894738" y="1426.0" type="line"/>
      <point x="1235.1157894736843" y="1204.0631578947368"/>
      <point x="1093.3684210526317" y="952.8000000000001"/>
      <point x="966.1052631578947" y="734.5263157894736" type="curve"/>
      <point x="600.9684210526316" y="107.53684210526316" type="line"/>
      <point x="587.2842105263157" y="107.53684210526316" type="line"/>
      <point x="480.7368421052632" y="730.6947368421053" type="line"/>
      <point x="442.94736842105266" y="950.4631578947368"/>
      <point x="400.0" y="1207.7263157894736"/>
      <point x="368.8842105263158" y="1426.0" type="curve"/>
      <point x="247.93684210526314" y="1426.0" type="line"/>
      <point x="285.11578947368423" y="1254.6736842105263"/>
      <point x="323.43157894736845" y="1048.6736842105265"/>
      <point x="349.7473684210526" y="898.1684210526316" type="curve"/>
      <point x="426.69473684210527" y="453.8315789473684" type="line"/>
      <point x="450.8421052631579" y="317.8315789473684"/>
      <point x="477.9789473684211" y="142.16842105263157"/>
    </contour>
  </outline>
</glyph>
<glyph name="W" format="2">
  <advance width="2010.1263157894737"/>
  <unicode hex="0057"/>
  <anchor x="899.3894736842104" y="0.0" name="bottom"/>
  <anchor x="1199.3894736842105" y="1426.0" name="top"/>
  <outline>
    <contour>
      <point x="377.0315789473685" y="0.0" type="curve"/>
      <point x="537.3052631578947" y="0.0" type="line"/>
      <point x="632.5684210526316" y="211.57894736842104"/>
      <point x="756.4842105263158" y="467.13684210526316"/>
      <point x="860.7578947368421" y="678.2105263157895" type="curve"/>
      <point x="1162.2526315789473" y="1291.1157894736841" type="line"/>
      <point x="1175.9368421052632" y="1291.1157894736841" type="line"/>
      <point x="1224.042105263158" y="678.2105263157894" type="line"/>
      <point x="1240.021052631579" y="466.8"/>
      <point x="1256.9894736842107" y="213.41052631578947"/>
      <point x="1269.7894736842106" y="0.0" type="curve"/>
      <point x="1433.915789473684" y="0.0" type="line"/>
      <point x="1490.5684210526315" y="136.33684210526314"/>
      <point x="1579.221052631579" y="309.8315789473684"/>
      <point x="1652.378947368421" y="451.8315789473684" type="curve"/>
      <point x="1880.1894736842105" y="900.0" type="line"/>
      <point x="1961.178947368421" y="1059.6631578947367"/>
      <point x="2063.3473684210526" y="1254.842105263158"/>
      <point x="2160.1894736842105" y="1426.0" type="curve"/>
      <point x="2025.705263157895" y="1426.0" type="line"/>
      <point x="1922.778947368421" y="1209.0736842105264"/>
      <point x="1795.0315789473684" y="951.8315789473684"/>
      <point x="1686.9263157894736" y="736.7368421052632" type="curve"/>
      <point x="1375.9368421052632" y="116.94736842105263" type="line"/>
      <point x="1362.2526315789473" y="116.94736842105263" type="line"/>
      <point x="1315.157894736842" y="736.4" type="line"/>
      <point x="1297.6842105263158" y="960.8210526315789"/>
      <point x="1280.8842105263157" y="1205.4105263157894"/>
      <point x="1268.757894736842" y="1426.0" type="curve"/>
      <point x="1120.863157894737" y="1426.0" type="line"/>
      <point x="1019.4315789473685" y="1210.9052631578948"/>
      <point x="894.5052631578948" y="949.6631578947369"/>
      <point x="791.7263157894737" y="738.5684210526316" type="curve"/>
      <point x="487.22105263157897" y="116.94736842105263" type="line"/>
      <point x="473.53684210526313" y="116.94736842105263" type="line"/>
      <point x="421.95789473684215" y="723.578947368421" type="line"/>
      <point x="402.98947368421057" y="944.3368421052631"/>
      <point x="383.36842105263156" y="1205.578947368421"/>
      <point x="371.57894736842104" y="1426.0" type="curve"/>
      <point x="245.6" y="1426.0" type="line"/>
      <point x="267.7894736842105" y="1258.3368421052633"/>
      <point x="290.77894736842103" y="1052.3368421052633"/>
      <point x="305.93684210526317" y="890.8421052631579" type="curve"/>
      <point x="345.41052631578947" y="450.0" type="line"/>
      <point x="358.5684210526316" y="311.8315789473684"/>
      <point x="371.0526315789474" y="142.16842105263157"/>
    </contour>
  </outline>
</glyph>
<glyph name="X" format="2">
  <advance width="1334.6736842105263"/>
  <unicode hex="0058"/>
  <outline>
    <contour>
      <point x="-27.24210526315789" y="0.0" type="curve"/>
      <point x="121.91578947368421" y="0.0" type="line"/>
      <point x="235.15789473684214" y="135.62105263157895"/>
      <point x="331.26315789473676" y="248.58947368421053"/>
      <point x="436.69473684210527" y="367.87368421052633" type="curve"/>
      <point x="682.2105263157895" y="648.4421052631579" type="line"/>
      <point x="695.8947368421052" y="648.4421052631579" type="line"/>
      <point x="838.9473684210526" y="369.70526315789476" type="line"/>
      <point x="896.5684210526316" y="257.7473684210526"/>
      <point x="957.6842105263157" y="135.62105263157895"/>
      <point x="1020.6105263157893" y="0.0" type="curve"/>
      <point x="1154.0842105263157" y="0.0" type="line"/>
      <point x="1066.5894736842106" y="149.1578947368421"/>
      <point x="994.2736842105261" y="283.4947368421053"/>
      <point x="914.9684210526315" y="438.1684210526316" type="curve"/>
      <point x="756.6947368421052" y="748.5052631578948" type="line"/>
      <point x="747.3473684210526" y="707.2631578947369" type="line"/>
      <point x="1032.6315789473683" y="1026.463157894737" type="line"/>
      <point x="1135.1157894736841" y="1141.642105263158"/>
      <point x="1261.4315789473685" y="1279.3263157894737"/>
      <point x="1400.6105263157895" y="1426.0" type="curve"/>
      <point x="1249.4526315789474" y="1426.0" type="line"/>
      <point x="1135.3684210526317" y="1293.1999999999998"/>
      <point x="1022.7789473684211" y="1157.242105263158"/>
      <point x="915.1789473684211" y="1037.2842105263157" type="curve"/>
      <point x="710.9684210526316" y="806.1894736842105" type="line"/>
      <point x="697.2842105263157" y="806.1894736842105" type="line"/>
      <point x="585.5368421052632" y="1033.621052631579" type="line"/>
      <point x="527.9157894736841" y="1151.7473684210527"/>
      <point x="465.4736842105263" y="1287.8736842105263"/>
      <point x="405.70526315789476" y="1426.0" type="curve"/>
      <point x="274.08421052631576" y="1426.0" type="line"/>
      <point x="360.25263157894733" y="1266.336842105263"/>
      <point x="427.7263157894737" y="1131.663157894737"/>
      <point x="493.2" y="998.9894736842106" type="curve"/>
      <point x="635.6421052631579" y="708.3157894736842" type="line"/>
      <point x="643.3263157894737" y="748.7157894736843" type="line"/>
      <point x="337.2210526315789" y="400.69473684210527" type="line"/>
      <point x="209.41052631578947" y="255.5157894736842"/>
      <point x="93.26315789473682" y="127.01052631578948"/>
    </contour>
  </outline>
</glyph>
<glyph name="Y" format="2">
  <advance width="1272.1473684210525"/>
  <unicode hex="0059"/>
  <anchor x="533.4105263157895" y="0.0" name="bottom"/>
  <anchor x="833.7473684210527" y="1426.0" name="top"/>
  <anchor x="235.83157894736843" y="1426.0" name="topleft"/>
  <outline>
    <contour>
      <point x="611.8947368421052" y="586.8631578947368" type="line"/>
      <point x="703.0526315789473" y="586.8631578947368" type="line"/>
      <point x="1132.8631578947368" y="1096.778947368421" type="line"/>
      <point x="1222.5263157894735" y="1202.8000000000002"/>
      <point x="1318.1894736842105" y="1314.3157894736842"/>
      <point x="1418.715789473684" y="1426.0" type="curve"/>
      <point x="1273.0526315789475" y="1426.0" type="line"/>
      <point x="1113.5157894736842" y="1225.8947368421052"/>
      <point x="1027.4105263157892" y="1119.6"/>
      <point x="889.6631578947367" y="952.8210526315789" type="curve"/>
      <point x="680.2947368421053" y="700.7368421052631" type="line"/>
      <point x="666.778947368421" y="700.7368421052631" type="line"/>
      <point x="559.5368421052632" y="962.1473684210526" type="line"/>
      <point x="492.9263157894737" y="1121.4315789473685"/>
      <point x="454.63157894736844" y="1220.4"/>
      <point x="377.5578947368421" y="1426.0" type="curve"/>
      <point x="251.09473684210528" y="1426.0" type="line"/>
      <point x="313.11578947368423" y="1296.1473684210525"/>
      <point x="353.2842105263158" y="1204.6315789473683"/>
      <point x="398.4421052631579" y="1096.778947368421" type="curve"/>
    </contour>
    <contour>
      <point x="476.69473684210527" y="0.0" type="curve"/>
      <point x="592.4631578947368" y="0.0" type="line"/>
      <point x="618.6105263157895" y="160.82105263157894"/>
      <point x="645.4315789473684" y="296.1473684210526"/>
      <point x="683.4315789473684" y="474.4842105263158" type="curve"/>
      <point x="725.3052631578947" y="669.3473684210526" type="line"/>
      <point x="625.0947368421052" y="669.3473684210526" type="line"/>
      <point x="583.2210526315789" y="474.4842105263158" type="line"/>
      <point x="547.0526315789474" y="299.81052631578945"/>
      <point x="516.2105263157895" y="160.82105263157894"/>
    </contour>
  </outline>
</glyph>
<glyph name="Z" format="2">
  <advance width="1325.578947368421"/>
  <unicode hex="005A"/>
  <anchor x="559.5368421052631" y="0.0" name="bottom"/>
  <anchor x="709.5368421052631" y="714.0" name="center"/>
  <anchor x="859.5368421052631" y="1426.0" name="top"/>
  <outline>
    <contour>
      <point x="1.6210526315789413" y="0.0" type="line"/>
      <point x="1106.4631578947367" y="0.0" type="line"/>
      <point x="1129.1999999999998" y="104.16842105263159" type="line"/>
      <point x="955.4105263157894" y="91.81052631578947"/>
      <point x="676.9894736842106" y="90.63157894736842"/>
      <point x="486.3789473684211" y="90.63157894736842" type="curve"/>
      <point x="89.49473684210528" y="90.63157894736842" type="line"/>
      <point x="114.50526315789473" y="31.221052631578946" type="line"/>
      <point x="891.2421052631579" y="834.6105263157895" type="line"/>
      <point x="1053.6842105263156" y="1003.0526315789474"/>
      <point x="1216.4631578947367" y="1171.3263157894737"/>
      <point x="1380.5684210526315" y="1335.0736842105264" type="curve"/>
      <point x="1399.7894736842104" y="1426.0" type="line"/>
      <point x="314.8" y="1426.0" type="line"/>
      <point x="293.89473684210526" y="1322.9894736842107" type="line"/>
      <point x="510.6736842105264" y="1332.3578947368421"/>
      <point x="713.621052631579" y="1335.3684210526317"/>
      <point x="892.7368421052631" y="1335.3684210526317" type="curve"/>
      <point x="1326.9473684210527" y="1335.3684210526317" type="line"/>
      <point x="1280.9473684210525" y="1380.1263157894737" type="line"/>
      <point x="551.8315789473685" y="623.3473684210526" type="line"/>
      <point x="390.5473684210526" y="456.06315789473683"/>
      <point x="165.11578947368423" y="222.96842105263158"/>
      <point x="19.831578947368413" y="80.54736842105264" type="curve"/>
    </contour>
  </outline>
</glyph>
<glyph name="bracketleft" format="2">
  <advance width="706.8421052631579"/>
  <unicode hex="005B"/>
  <outline>
    <contour>
      <point x="55.368421052631575" y="-227.03157894736842" type="curve"/>
      <point x="160.8842105263158" y="-227.03157894736842" type="line"/>
      <point x="162.23157894736843" y="-212.96842105263158" type="line"/>
      <point x="188.37894736842102" y="-52.14736842105263"/>
      <point x="217.03157894736842" y="86.84210526315789"/>
      <point x="253.2" y="261.5157894736842" type="curve"/>
      <point x="416.3578947368421" y="1035.4736842105262" type="line"/>
      <point x="452.69473684210527" y="1210.821052631579"/>
      <point x="483.5368421052632" y="1350.3157894736842"/>
      <point x="525.0526315789474" y="1511.6421052631579" type="curve"/>
      <point x="528.4" y="1523.8736842105263" type="line"/>
      <point x="422.88421052631577" y="1523.8736842105263" type="line"/>
      <point x="394.23157894736846" y="1364.378947368421"/>
      <point x="365.5789473684211" y="1221.221052631579"/>
      <point x="329.2421052631579" y="1047.7052631578947" type="curve"/>
      <point x="161.38947368421051" y="247.45263157894738" type="line"/>
      <point x="125.22105263157894" y="74.61052631578949"/>
      <point x="94.37894736842105" y="-66.21052631578948"/>
    </contour>
    <contour>
      <point x="136.82105263157897" y="-227.03157894736842" type="line"/>
      <point x="530.8" y="-227.03157894736842" type="line"/>
      <point x="548.3578947368421" y="-138.92631578947368" type="line"/>
      <point x="451.2" y="-142.44210526315788"/>
      <point x="348.0421052631579" y="-142.94736842105263"/>
      <point x="231.38947368421051" y="-142.94736842105263" type="curve"/>
      <point x="153.87368421052633" y="-142.94736842105263" type="line"/>
    </contour>
    <contour>
      <point x="484.42105263157896" y="1439.7894736842106" type="line"/>
      <point x="557.1157894736842" y="1439.7894736842106" type="line"/>
      <point x="695.7684210526317" y="1439.7894736842106"/>
      <point x="790.7578947368421" y="1438.778947368421"/>
      <point x="879.7473684210527" y="1435.7684210526318" type="curve"/>
      <point x="899.3052631578947" y="1523.8736842105263" type="line"/>
      <point x="501.6421052631579" y="1523.8736842105263" type="line"/>
    </contour>
  </outline>
</glyph>
<glyph name="backslash" format="2">
  <advance width="883.9157894736843"/>
  <unicode hex="005C"/>
  <outline>
    <contour>
      <point x="608.3157894736843" y="0.0" type="curve"/>
      <point x="711.9999999999999" y="0.0" type="line"/>
      <point x="674.6526315789474" y="148.0"/>
      <point x="638.8210526315789" y="274.0"/>
      <point x="594.3368421052633" y="456.0" type="curve"/>
      <point x="475.8736842105263" y="950.1684210526316" type="line"/>
      <point x="431.2210526315789" y="1140.0"/>
      <point x="400.56842105263155" y="1273.8315789473684"/>
      <point x="368.1052631578947" y="1426.0" type="curve"/>
      <point x="264.7578947368421" y="1426.0" type="line"/>
      <point x="307.93684210526317" y="1272.0"/>
      <point x="341.2631578947368" y="1143.8315789473684"/>
      <point x="385.9157894736842" y="949.8315789473684" type="curve"/>
      <point x="504.2105263157895" y="456.0" type="line"/>
      <point x="548.8631578947369" y="274.0"/>
      <point x="577.6842105263158" y="148.0"/>
    </contour>
  </outline>
</glyph>
<glyph name="asciicircum" format="2">
  <advance width="1191.4526315789474"/>
  <unicode hex="005E"/>
  <outline>
    <contour>
      <point x="1027.2421052631576" y="778.7368421052631" type="curve"/>
      <point x="1120.9894736842105" y="780.9052631578948" type="line"/>
      <point x="1021.1789473684212" y="976.4421052631579"/>
      <point x="929.0315789473685" y="1173.4736842105262"/>
      <point x="843.4105263157895" y="1369.0105263157895" type="curve"/>
      <point x="698.4842105263158" y="1369.0105263157895" type="line"/>
      <point x="539.3684210526316" y="1177.6421052631579"/>
      <point x="374.8842105263158" y="987.2631578947369"/>
      <point x="192.42105263157893" y="784.9052631578948" type="curve"/>
      <point x="300.86315789473684" y="784.9052631578948" type="line"/>
      <point x="456.9684210526316" y="951.5157894736842"/>
      <point x="608.063157894737" y="1119.621052631579"/>
      <point x="757.3263157894737" y="1286.2315789473685" type="curve"/>
      <point x="770.8421052631579" y="1286.2315789473685" type="line"/>
      <point x="855.3052631578947" y="1117.621052631579"/>
      <point x="937.7684210526317" y="947.3473684210526"/>
    </contour>
  </outline>
</glyph>
<glyph name="underscore" format="2">
  <advance width="773.4736842105264"/>
  <unicode hex="005F"/>
  <outline>
    <contour>
      <point x="-166.7157894736842" y="-201.22105263157894" type="line"/>
      <point x="-46.02105263157895" y="-197.05263157894737"/>
      <point x="67.68421052631581" y="-196.54736842105262"/>
      <point x="163.5368421052632" y="-196.21052631578948" type="curve"/>
      <point x="320.8421052631579" y="-196.21052631578948" type="line"/>
      <point x="416.35789473684207" y="-196.54736842105262"/>
      <point x="529.7263157894737" y="-197.05263157894737"/>
      <point x="646.7578947368421" y="-201.22105263157894" type="curve"/>
      <point x="666.4842105263159" y="-109.93684210526315" type="line"/>
      <point x="545.621052631579" y="-114.10526315789474"/>
      <point x="431.9157894736842" y="-114.61052631578947"/>
      <point x="336.23157894736846" y="-114.94736842105263" type="curve"/>
      <point x="178.9263157894737" y="-114.94736842105263" type="line"/>
      <point x="83.2421052631579" y="-114.61052631578947"/>
      <point x="-30.126315789473683" y="-114.10526315789474"/>
      <point x="-146.98947368421054" y="-109.93684210526315" type="curve"/>
    </contour>
  </outline>
</glyph>
<glyph name="a" format="2">
  <advance width="1038.2528735632184"/>
  <unicode hex="0061"/>
  <anchor x="420.00000000000006" y="0.0" name="bottom"/>
  <anchor x="760.3448275862069" y="0.0" name="ogonek"/>
  <anchor x="632.0000000000001" y="989.471264367816" name="top"/>
  <outline>
    <contour>
      <point x="353.7011494252873" y="-18.735632183908045" type="curve" smooth="yes"/>
      <point x="477.3333333333333" y="-18.735632183908045"/>
      <point x="613.2873563218391" y="52.735632183908045"/>
      <point x="700.3448275862069" y="156.1149425287356" type="curve"/>
      <point x="713.816091954023" y="156.1149425287356" type="line"/>
      <point x="724.3448275862069" y="0.0" type="line"/>
      <point x="820.712643678161" y="0.0" type="line"/>
      <point x="807.6091954022988" y="108.57471264367815"/>
      <point x="801.8160919540229" y="199.8850574712644"/>
      <point x="818.551724137931" y="282.4597701149425" type="curve"/>
      <point x="848.7126436781609" y="422.0" type="line" smooth="yes"/>
      <point x="868.3448275862069" y="510.1609195402299"/>
      <point x="884.712643678161" y="577.7931034482759"/>
      <point x="897.080459770115" y="635.264367816092" type="curve" smooth="yes"/>
      <point x="944.1839080459771" y="856.2068965517241"/>
      <point x="843.1954022988505" y="1010.2068965517242"/>
      <point x="601.2643678160919" y="1010.2068965517242" type="curve" smooth="yes"/>
      <point x="504.6896551724137" y="1010.2068965517242"/>
      <point x="358.64367816091954" y="967.6781609195401"/>
      <point x="263.5402298850575" y="942.7816091954023" type="curve"/>
      <point x="248.39080459770116" y="837.5632183908045" type="line"/>
      <point x="403.448275862069" y="892.4597701149427"/>
      <point x="531.7011494252874" y="921.9310344827586"/>
      <point x="586.2298850574713" y="921.9310344827586" type="curve" smooth="yes"/>
      <point x="762.3448275862069" y="921.9310344827586"/>
      <point x="853.0344827586207" y="835.9770114942529"/>
      <point x="802.551724137931" y="627.3103448275862" type="curve"/>
      <point x="446.4367816091954" y="558.6206896551724" type="line" smooth="yes"/>
      <point x="281.7011494252874" y="527.3563218390805"/>
      <point x="120.27586206896552" y="486.4137931034483"/>
      <point x="78.64367816091955" y="300.41379310344826" type="curve" smooth="yes"/>
      <point x="37.01149425287357" y="116.7816091954023"/>
      <point x="156.0689655172414" y="-18.735632183908045"/>
    </contour>
    <contour>
      <point x="372.62068965517244" y="66.06896551724138" type="curve" smooth="yes"/>
      <point x="230.22988505747128" y="66.06896551724138"/>
      <point x="141.05747126436782" y="140.55172413793105"/>
      <point x="173.3793103448276" y="296.735632183908" type="curve" smooth="yes"/>
      <point x="199.17241379310343" y="421.17241379310343"/>
      <point x="322.66666666666663" y="452.43678160919535"/>
      <point x="464.7356321839081" y="480.5977011494253" type="curve" smooth="yes"/>
      <point x="688.551724137931" y="525.655172413793"/>
      <point x="746.8735632183908" y="544.9195402298851"/>
      <point x="787.0344827586207" y="561.6551724137931" type="curve"/>
      <point x="729.816091954023" y="294.2528735632183" type="line"/>
      <point x="607.7011494252873" y="122.22988505747126"/>
      <point x="468.32183908045977" y="66.06896551724138"/>
    </contour>
  </outline>
</glyph>
<glyph name="b" format="2">
  <advance width="1181.3473684210528"/>
  <unicode hex="0062"/>
  <outline>
    <contour>
      <point x="572.2947368421052" y="-19.178947368421053" type="curve" smooth="yes"/>
      <point x="815.2842105263157" y="-19.178947368421053"/>
      <point x="992.9263157894736" y="154.52631578947367"/>
      <point x="1052.9263157894736" y="442.0210526315789" type="curve" smooth="yes"/>
      <point x="1115.0947368421052" y="742.3578947368421"/>
      <point x="994.4631578947368" y="1010.3578947368421"/>
      <point x="692.3368421052631" y="1010.3578947368421" type="curve" smooth="yes"/>
      <point x="585.3684210526316" y="1010.3578947368421"/>
      <point x="453.74736842105267" y="935.7263157894737"/>
      <point x="381.9157894736842" y="869.8736842105263" type="curve"/>
      <point x="368.2315789473684" y="869.8736842105263" type="line"/>
      <point x="393.38947368421054" y="987.8315789473684" type="line"/>
      <point x="429.7263157894737" y="1159.6842105263158"/>
      <point x="465.7473684210526" y="1318.8631578947368"/>
      <point x="510.9263157894737" y="1482.021052631579" type="curve"/>
      <point x="386.0" y="1458.5052631578947" type="line"/>
      <point x="365.5368421052632" y="1312.6526315789474"/>
      <point x="336.71578947368425" y="1156.821052631579"/>
      <point x="301.0526315789474" y="987.8315789473684" type="curve"/>
      <point x="184.8842105263158" y="440.65263157894736" type="line"/>
      <point x="150.71578947368423" y="278.14736842105265"/>
      <point x="120.04210526315791" y="148.98947368421054"/>
      <point x="82.69473684210526" y="0.0" type="curve"/>
      <point x="167.81052631578945" y="0.0" type="line"/>
      <point x="214.6736842105263" y="159.78947368421055" type="line"/>
      <point x="227.85263157894735" y="159.78947368421055" type="line"/>
      <point x="311.8315789473684" y="56.294736842105266"/>
      <point x="453.9789473684211" y="-19.178947368421053"/>
    </contour>
    <contour>
      <point x="560.6736842105263" y="71.09473684210526" type="curve"/>
      <point x="442.7578947368421" y="71.43157894736842"/>
      <point x="319.6842105263158" y="142.0421052631579"/>
      <point x="239.91578947368419" y="264.61052631578946" type="curve"/>
      <point x="342.86315789473684" y="749.2" type="line"/>
      <point x="443.4526315789474" y="850.9684210526316"/>
      <point x="574.3578947368421" y="918.5894736842106"/>
      <point x="670.4631578947368" y="920.5894736842106" type="curve"/>
      <point x="922.9473684210526" y="914.5894736842106"/>
      <point x="1011.0526315789473" y="707.7052631578947"/>
      <point x="958.4210526315788" y="452.0421052631579" type="curve" smooth="yes"/>
      <point x="912.9473684210526" y="234.16842105263157"/>
      <point x="788.021052631579" y="77.26315789473684"/>
    </contour>
  </outline>
</glyph>
<glyph name="c" format="2">
  <advance width="999.2842105263157"/>
  <unicode hex="0063"/>
  <anchor x="473.13684210526316" y="0.0" name="bottom"/>
  <anchor x="664.9894736842106" y="989.3473684210526" name="top"/>
  <outline>
    <contour>
      <point x="556.1894736842105" y="-18.673684210526318" type="curve" smooth="yes"/>
      <point x="648.3368421052631" y="-18.673684210526318"/>
      <point x="751.6631578947369" y="16.147368421052633"/>
      <point x="805.6631578947369" y="43.13684210526316" type="curve"/>
      <point x="810.8842105263159" y="148.06315789473683" type="line"/>
      <point x="738.0631578947368" y="105.07368421052632"/>
      <point x="641.0736842105263" y="71.91578947368421"/>
      <point x="563.9368421052632" y="70.08421052631579" type="curve" smooth="yes"/>
      <point x="302.56842105263155" y="74.08421052631579"/>
      <point x="158.1263157894737" y="246.31578947368422"/>
      <point x="219.26315789473685" y="533.6631578947367" type="curve" smooth="yes"/>
      <point x="272.4" y="781.1789473684211"/>
      <point x="441.9578947368421" y="910.5894736842105"/>
      <point x="655.8315789473684" y="920.5894736842105" type="curve"/>
      <point x="727.1368421052631" y="920.5894736842105"/>
      <point x="840.6105263157895" y="889.4315789473684"/>
      <point x="949.4526315789474" y="824.2736842105263" type="curve"/>
      <point x="978.5263157894736" y="920.042105263158" type="line"/>
      <point x="898.021052631579" y="959.0315789473685"/>
      <point x="774.1684210526315" y="1010.1894736842105"/>
      <point x="657.4947368421053" y="1010.1894736842105" type="curve" smooth="yes"/>
      <point x="390.42105263157896" y="1010.1894736842105"/>
      <point x="181.26315789473685" y="820.6947368421053"/>
      <point x="124.92631578947369" y="547.8526315789475" type="curve" smooth="yes"/>
      <point x="57.915789473684214" y="220.14736842105265"/>
      <point x="228.79999999999998" y="-18.673684210526318"/>
    </contour>
  </outline>
</glyph>
<glyph name="d" format="2">
  <advance width="1147.7052631578947"/>
  <unicode hex="0064"/>
  <anchor x="510.5263157894737" y="0.0" name="bottom"/>
  <anchor x="579.1789473684211" y="494.6736842105263" name="center"/>
  <anchor x="814.8631578947369" y="1447.6842105263158" name="top"/>
  <anchor x="1199.5578947368422" y="989.3473684210526" name="topright"/>
  <outline>
    <contour>
      <point x="489.178947368421" y="-19.178947368421053" type="curve" smooth="yes"/>
      <point x="592.1684210526315" y="-19.178947368421053"/>
      <point x="723.8105263157894" y="45.30526315789474"/>
      <point x="809.978947368421" y="146.14736842105262" type="curve"/>
      <point x="823.1578947368421" y="146.14736842105262" type="line"/>
      <point x="797.3473684210527" y="0.0" type="line"/>
      <point x="882.9894736842105" y="0.0" type="line"/>
      <point x="910.9684210526315" y="148.98947368421054"/>
      <point x="935.7894736842105" y="278.14736842105265"/>
      <point x="969.9578947368421" y="440.65263157894736" type="curve"/>
      <point x="1086.1263157894737" y="987.8315789473684" type="line"/>
      <point x="1122.463157894737" y="1159.6842105263158"/>
      <point x="1158.484210526316" y="1318.8631578947368"/>
      <point x="1203.6631578947367" y="1482.021052631579" type="curve"/>
      <point x="1078.736842105263" y="1458.5052631578947" type="line"/>
      <point x="1058.2736842105264" y="1312.6526315789474"/>
      <point x="1029.4526315789471" y="1156.821052631579"/>
      <point x="993.7894736842105" y="987.8315789473684" type="curve"/>
      <point x="966.8000000000001" y="858.8842105263159" type="line"/>
      <point x="953.1157894736842" y="858.8842105263159" type="line"/>
      <point x="880.9684210526316" y="935.557894736842"/>
      <point x="740.6736842105263" y="1010.3578947368421"/>
      <point x="609.221052631579" y="1010.3578947368421" type="curve" smooth="yes"/>
      <point x="366.2315789473684" y="1010.3578947368421"/>
      <point x="188.58947368421053" y="836.6526315789473"/>
      <point x="128.58947368421053" y="549.1578947368421" type="curve" smooth="yes"/>
      <point x="66.42105263157896" y="248.82105263157894"/>
      <point x="187.05263157894737" y="-19.178947368421053"/>
    </contour>
    <contour>
      <point x="511.0526315789474" y="70.58947368421053" type="curve"/>
      <point x="258.5684210526316" y="74.7578947368421"/>
      <point x="168.63157894736844" y="285.30526315789473"/>
      <point x="223.09473684210528" y="539.1368421052632" type="curve" smooth="yes"/>
      <point x="270.40000000000003" y="760.6736842105263"/>
      <point x="393.4947368421053" y="913.9157894736842"/>
      <point x="620.8421052631579" y="920.0842105263158" type="curve"/>
      <point x="744.2526315789473" y="917.9157894736842"/>
      <point x="865.4947368421052" y="854.6315789473684"/>
      <point x="945.2631578947369" y="761.3684210526316" type="curve"/>
      <point x="845.978947368421" y="289.59999999999997" type="line"/>
      <point x="758.2105263157895" y="154.86315789473682"/>
      <point x="630.9684210526316" y="74.42105263157895"/>
    </contour>
  </outline>
</glyph>
<glyph name="g" format="2">
  <advance width="1076.4137931034484"/>
  <unicode hex="0067"/>
  <anchor x="357.93103448275866" y="-384.0" name="bottom"/>
  <anchor x="606.4137931034483" y="989.471264367816" name="top"/>
  <outline>
    <contour>
      <point x="344.94252873563215" y="-402.735632183908" type="curve" smooth="yes"/>
      <point x="566.6206896551723" y="-402.735632183908"/>
      <point x="796.6666666666667" y="-313.4712643678161"/>
      <point x="836.1379310344829" y="-128.11494252873564" type="curve" smooth="yes"/>
      <point x="867.609195402299" y="19.609195402298845"/>
      <point x="760.6666666666667" y="125.44827586206897"/>
      <point x="489.60919540229884" y="125.44827586206897" type="curve" smooth="yes"/>
      <point x="419.1954022988505" y="125.44827586206897" type="line" smooth="yes"/>
      <point x="270.85057471264366" y="125.44827586206897"/>
      <point x="235.33333333333331" y="181.88505747126436"/>
      <point x="246.5977011494253" y="236.94252873563218" type="curve" smooth="yes"/>
      <point x="260.7586206896552" y="300.32183908045977"/>
      <point x="336.3908045977011" y="322.6896551724138"/>
      <point x="499.9310344827586" y="345.2183908045977" type="curve" smooth="yes"/>
      <point x="694.9885057471264" y="372.48275862068965"/>
      <point x="845.7701149425288" y="451.37931034482756"/>
      <point x="885.7701149425288" y="641.264367816092" type="curve" smooth="yes"/>
      <point x="909.0344827586208" y="755.7931034482759"/>
      <point x="875.4022988505748" y="864.4827586206897"/>
      <point x="754.9195402298851" y="945.7471264367816" type="curve"/>
      <point x="723.5632183908046" y="923.816091954023" type="line"/>
      <point x="852.9885057471265" y="919.816091954023"/>
      <point x="983.6781609195402" y="914.3448275862069"/>
      <point x="1117.103448275862" y="902.6666666666666" type="curve"/>
      <point x="1135.8850574712642" y="989.8390804597701" type="line"/>
      <point x="785.0344827586207" y="989.8390804597701" type="line" smooth="yes"/>
      <point x="688.6206896551726" y="989.8390804597701"/>
      <point x="649.1494252873564" y="1010.2068965517242"/>
      <point x="550.6896551724138" y="1010.2068965517242" type="curve" smooth="yes"/>
      <point x="357.3333333333333" y="1010.2068965517242"/>
      <point x="200.2758620689655" y="918.1609195402299"/>
      <point x="161.01149425287355" y="729.1034482758621" type="curve" smooth="yes"/>
      <point x="123.01149425287356" y="545.1034482758621"/>
      <point x="259.54022988505744" y="424.7356321839081"/>
      <point x="326.1149425287356" y="388.36781609195407" type="curve"/>
      <point x="326.1149425287356" y="376.8965517241379" type="line"/>
      <point x="236.48275862068965" y="356.5287356321839"/>
      <point x="173.54022988505744" y="314.89655172413796"/>
      <point x="155.54022988505744" y="237.42528735632183" type="curve" smooth="yes"/>
      <point x="135.54022988505744" y="146.6896551724138"/>
      <point x="199.9080459770115" y="97.95402298850576"/>
      <point x="230.80459770114942" y="83.58620689655173" type="curve"/>
      <point x="230.80459770114942" y="74.11494252873563" type="line"/>
      <point x="141.54022988505747" y="50.48275862068966"/>
      <point x="10.482758620689651" y="-12.413793103448274"/>
      <point x="-14.781609195402304" y="-127.47126436781609" type="curve" smooth="yes"/>
      <point x="-53.14942528735633" y="-306.04597701149424"/>
      <point x="131.47126436781608" y="-402.735632183908"/>
    </contour>
    <contour>
      <point x="350.4597701149425" y="-317.4022988505747" type="curve"/>
      <point x="212.7126436781609" y="-317.0344827586207"/>
      <point x="44.482758620689665" y="-270.87356321839076"/>
      <point x="75.17241379310346" y="-127.05747126436782" type="curve" smooth="yes"/>
      <point x="95.70114942528737" y="-27.885057471264364"/>
      <point x="253.72413793103448" y="21.540229885057467"/>
      <point x="343.35632183908046" y="39.9080459770115" type="curve"/>
      <point x="464.1609195402298" y="39.9080459770115" type="line" smooth="yes"/>
      <point x="715.655172413793" y="39.9080459770115"/>
      <point x="766.8735632183908" y="-32.781609195402304"/>
      <point x="746.712643678161" y="-123.42528735632183" type="curve" smooth="yes"/>
      <point x="725.2873563218392" y="-217.1264367816092"/>
      <point x="598.4827586206897" y="-315.5632183908046"/>
    </contour>
    <contour>
      <point x="446.45977011494256" y="419.65517241379314" type="curve"/>
      <point x="330.0229885057471" y="458.551724137931"/>
      <point x="220.80459770114942" y="566.4137931034483"/>
      <point x="248.9655172413793" y="711.2183908045978" type="curve" smooth="yes"/>
      <point x="278.39080459770116" y="859.0804597701149"/>
      <point x="394.2988505747126" y="922.6666666666666"/>
      <point x="547.632183908046" y="922.6666666666666" type="curve"/>
      <point x="701.9080459770114" y="922.6666666666666"/>
      <point x="829.2413793103449" y="811.2873563218391"/>
      <point x="795.448275862069" y="653.0574712643678" type="curve" smooth="yes"/>
      <point x="755.1264367816092" y="466.71264367816093"/>
      <point x="589.264367816092" y="435.816091954023"/>
    </contour>
  </outline>
</glyph>
<glyph name="h" format="2">
  <advance width="1141.0526315789475"/>
  <unicode hex="0068"/>
  <guideline x="51.263157894736835" y="716.4421052631578" angle="4.470799999999997"/>
  <anchor x="484.94736842105266" y="0.0" name="bottom"/>
  <anchor x="642.4631578947369" y="818.0" name="center"/>
  <anchor x="744.3368421052633" y="1447.6842105263158" name="top"/>
  <outline>
    <contour>
      <point x="82.69473684210526" y="0.0" type="curve"/>
      <point x="190.25263157894736" y="0.0" type="line"/>
      <point x="218.23157894736843" y="148.98947368421054"/>
      <point x="243.05263157894737" y="278.14736842105265"/>
      <point x="276.7157894736842" y="438.46315789473687" type="curve"/>
      <point x="331.2" y="690.0631578947367" type="line"/>
      <point x="442.12631578947367" y="808.3157894736843"/>
      <point x="595.8526315789474" y="918.0631578947368"/>
      <point x="714.5894736842105" y="918.0631578947368" type="curve" smooth="yes"/>
      <point x="896.2947368421052" y="918.0631578947368"/>
      <point x="944.5894736842106" y="810.6105263157895"/>
      <point x="902.2736842105263" y="613.3684210526317" type="curve"/>
      <point x="866.2947368421053" y="438.46315789473687" type="line"/>
      <point x="832.6315789473683" y="278.1473684210526"/>
      <point x="802.1263157894738" y="148.98947368421054"/>
      <point x="765.1157894736842" y="0.0" type="curve"/>
      <point x="872.3368421052631" y="0.0" type="line"/>
      <point x="899.8105263157895" y="148.98947368421054"/>
      <point x="924.9684210526315" y="278.1473684210526"/>
      <point x="959.1368421052631" y="440.65263157894736" type="curve"/>
      <point x="975.1368421052631" y="516.821052631579"/>
      <point x="988.6526315789474" y="570.1894736842105"/>
      <point x="1000.6526315789474" y="624.5263157894736" type="curve" smooth="yes"/>
      <point x="1054.1473684210525" y="867.1789473684211"/>
      <point x="961.978947368421" y="1010.3578947368421"/>
      <point x="740.9894736842105" y="1010.3578947368421" type="curve" smooth="yes"/>
      <point x="609.0315789473684" y="1010.3578947368421"/>
      <point x="453.91578947368424" y="897.7473684210526"/>
      <point x="368.9263157894737" y="820.7368421052632" type="curve"/>
      <point x="356.90526315789475" y="820.7368421052632" type="line"/>
      <point x="393.38947368421054" y="987.8315789473684" type="line"/>
      <point x="429.7263157894737" y="1159.6842105263158"/>
      <point x="465.7473684210526" y="1318.863157894737"/>
      <point x="510.9263157894737" y="1482.021052631579" type="curve"/>
      <point x="386.0" y="1458.5052631578947" type="line"/>
      <point x="365.5368421052632" y="1312.6526315789474"/>
      <point x="336.71578947368425" y="1156.821052631579"/>
      <point x="301.0526315789474" y="987.8315789473684" type="curve"/>
      <point x="184.8842105263158" y="440.65263157894736" type="line"/>
      <point x="150.71578947368423" y="278.14736842105265"/>
      <point x="120.04210526315791" y="148.98947368421054"/>
    </contour>
  </outline>
</glyph>
<glyph name="k" format="2">
  <advance width="1049.0105263157895"/>
  <unicode hex="006B"/>
  <anchor x="437.89473684210526" y="0.0" name="bottom"/>
  <anchor x="742.2315789473685" y="1447.6842105263158" name="top"/>
  <outline>
    <contour>
      <point x="763.8315789473684" y="0.0" type="curve"/>
      <point x="906.5684210526315" y="0.0" type="line"/>
      <point x="784.4421052631579" y="115.01052631578948"/>
      <point x="671.3263157894736" y="228.3578947368421"/>
      <point x="560.5473684210527" y="343.36842105263156" type="curve"/>
      <point x="380.61052631578946" y="528.4421052631579" type="line"/>
      <point x="395.1578947368421" y="477.6421052631579" type="line"/>
      <point x="613.5789473684209" y="644.9894736842106" type="line"/>
      <point x="764.357894736842" y="759.8315789473684"/>
      <point x="918.8" y="874.5052631578948"/>
      <point x="1078.2526315789473" y="989.3473684210526" type="curve"/>
      <point x="923.6842105263158" y="989.3473684210526" type="line"/>
      <point x="800.9473684210526" y="892.8631578947368"/>
      <point x="675.0315789473683" y="794.7157894736843"/>
      <point x="550.6105263157895" y="698.2315789473685" type="curve"/>
      <point x="345.0736842105263" y="540.7578947368421" type="line"/>
      <point x="283.7263157894737" y="540.7578947368421" type="line"/>
      <point x="267.6842105263158" y="465.5578947368421" type="line"/>
      <point x="318.37894736842105" y="465.5578947368421" type="line"/>
      <point x="494.7368421052632" y="287.4315789473684" type="line"/>
      <point x="585.8315789473684" y="191.62105263157895"/>
      <point x="676.4210526315791" y="95.81052631578947"/>
    </contour>
    <contour>
      <point x="82.69473684210526" y="0.0" type="curve"/>
      <point x="190.25263157894736" y="0.0" type="line"/>
      <point x="218.06315789473683" y="146.96842105263158"/>
      <point x="242.54736842105262" y="274.4421052631579"/>
      <point x="275.5368421052632" y="432.7368421052632" type="curve"/>
      <point x="393.38947368421054" y="987.8315789473684" type="line"/>
      <point x="429.7263157894737" y="1159.6842105263158"/>
      <point x="465.7473684210526" y="1318.863157894737"/>
      <point x="510.9263157894737" y="1482.021052631579" type="curve"/>
      <point x="386.0" y="1458.5052631578947" type="line"/>
      <point x="365.5368421052632" y="1312.6526315789474"/>
      <point x="336.71578947368425" y="1156.821052631579"/>
      <point x="301.0526315789474" y="987.8315789473684" type="curve"/>
      <point x="184.8842105263158" y="440.65263157894736" type="line"/>
      <point x="150.71578947368423" y="278.14736842105265"/>
      <point x="120.04210526315791" y="148.98947368421054"/>
    </contour>
  </outline>
</glyph>
<glyph name="l" format="2">
  <advance width="486.77894736842103"/>
  <unicode hex="006C"/>
  <anchor x="137.38947368421051" y="0.0" name="bottom"/>
  <anchor x="312.2315789473684" y="818.0" name="center"/>
  <anchor x="444.0421052631579" y="1447.6842105263158" name="top"/>
  <anchor x="505.9789473684211" y="989.3473684210526" name="topright"/>
  <outline>
    <contour>
      <point x="82.69473684210526" y="0.0" type="curve"/>
      <point x="190.25263157894736" y="0.0" type="line"/>
      <point x="218.23157894736843" y="148.98947368421054"/>
      <point x="243.05263157894737" y="278.14736842105265"/>
      <point x="277.22105263157897" y="440.65263157894736" type="curve"/>
      <point x="393.38947368421054" y="987.8315789473684" type="line"/>
      <point x="429.7263157894737" y="1159.6842105263158"/>
      <point x="465.7473684210526" y="1318.8631578947368"/>
      <point x="510.9263157894737" y="1482.021052631579" type="curve"/>
      <point x="386.0" y="1458.5052631578947" type="line"/>
      <point x="365.5368421052632" y="1312.6526315789474"/>
      <point x="336.71578947368425" y="1156.821052631579"/>
      <point x="301.0526315789474" y="987.8315789473684" type="curve"/>
      <point x="184.8842105263158" y="440.65263157894736" type="line"/>
      <point x="150.71578947368423" y="278.14736842105265"/>
      <point x="120.04210526315791" y="148.98947368421054"/>
    </contour>
  </outline>
</glyph>
<glyph name="m" format="2">
  <advance width="1756.3578947368421"/>
  <unicode hex="006D"/>
  <anchor x="797.3263157894736" y="0.0" name="bottom"/>
  <anchor x="1005.6631578947369" y="989.3473684210526" name="top"/>
  <outline>
    <contour>
      <point x="94.3578947368421" y="0.0" type="curve"/>
      <point x="201.91578947368419" y="0.0" type="line"/>
      <point x="229.89473684210526" y="148.98947368421054"/>
      <point x="254.71578947368423" y="278.14736842105265"/>
      <point x="288.378947368421" y="438.46315789473687" type="curve"/>
      <point x="342.8631578947368" y="690.0631578947367" type="line"/>
      <point x="453.7894736842105" y="808.3157894736842"/>
      <point x="599.8526315789474" y="918.0631578947368"/>
      <point x="714.9263157894737" y="918.0631578947368" type="curve" smooth="yes"/>
      <point x="874.3157894736842" y="918.0631578947368"/>
      <point x="922.6105263157896" y="810.6105263157895"/>
      <point x="880.2947368421053" y="613.3684210526317" type="curve"/>
      <point x="844.3157894736843" y="438.46315789473687" type="line"/>
      <point x="810.6526315789473" y="278.1473684210526"/>
      <point x="780.1473684210528" y="148.98947368421054"/>
      <point x="743.1368421052632" y="0.0" type="curve"/>
      <point x="850.3578947368421" y="0.0" type="line"/>
      <point x="877.8315789473684" y="148.98947368421054"/>
      <point x="902.9894736842105" y="278.1473684210526"/>
      <point x="937.1578947368421" y="440.65263157894736" type="curve"/>
      <point x="953.1578947368421" y="516.821052631579"/>
      <point x="966.6736842105263" y="570.1894736842105"/>
      <point x="978.6736842105263" y="624.5263157894736" type="curve" smooth="yes"/>
      <point x="989.0105263157894" y="673.8736842105263"/>
      <point x="994.6736842105263" y="717.2210526315789"/>
      <point x="994.0" y="758.0631578947368" type="curve"/>
      <point x="990.6526315789474" y="765.3894736842105" type="line"/>
      <point x="985.978947368421" y="921.0315789473685"/>
      <point x="898.3157894736842" y="1010.3578947368421"/>
      <point x="739.4947368421053" y="1010.3578947368421" type="curve" smooth="yes"/>
      <point x="611.6842105263158" y="1010.3578947368421"/>
      <point x="460.0421052631579" y="896.7368421052631"/>
      <point x="375.36842105263156" y="816.2105263157895" type="curve"/>
      <point x="363.34736842105264" y="816.2105263157895" type="line"/>
      <point x="384.3368421052632" y="996.5263157894736" type="line"/>
      <point x="290.8421052631579" y="989.3473684210526" type="line"/>
      <point x="275.70526315789476" y="839.8315789473684"/>
      <point x="248.7157894736842" y="684.0"/>
      <point x="218.54736842105265" y="540.6526315789474" type="curve"/>
      <point x="196.54736842105265" y="440.65263157894736" type="line"/>
      <point x="162.37894736842108" y="278.14736842105265"/>
      <point x="131.70526315789473" y="148.98947368421054"/>
    </contour>
    <contour>
      <point x="1380.421052631579" y="0.0" type="curve"/>
      <point x="1487.642105263158" y="0.0" type="line"/>
      <point x="1515.1157894736841" y="148.98947368421054"/>
      <point x="1540.2736842105264" y="278.1473684210526"/>
      <point x="1574.442105263158" y="440.65263157894736" type="curve"/>
      <point x="1590.442105263158" y="516.821052631579"/>
      <point x="1603.9578947368423" y="570.1894736842105"/>
      <point x="1615.9578947368423" y="624.5263157894736" type="curve" smooth="yes"/>
      <point x="1669.4526315789474" y="867.1789473684212"/>
      <point x="1577.2842105263157" y="1010.3578947368421"/>
      <point x="1376.778947368421" y="1010.3578947368421" type="curve" smooth="yes"/>
      <point x="1248.9684210526316" y="1010.3578947368421"/>
      <point x="1088.3368421052633" y="891.2421052631579"/>
      <point x="999.9999999999999" y="807.0526315789474" type="curve"/>
      <point x="984.1473684210528" y="807.0526315789474" type="line"/>
      <point x="980.1473684210526" y="690.0631578947367" type="line"/>
      <point x="1091.0736842105264" y="808.3157894736843"/>
      <point x="1237.1368421052632" y="918.0631578947368"/>
      <point x="1352.2105263157894" y="918.0631578947368" type="curve" smooth="yes"/>
      <point x="1511.6000000000001" y="918.0631578947368"/>
      <point x="1559.8947368421052" y="810.6105263157895"/>
      <point x="1517.578947368421" y="613.3684210526317" type="curve"/>
      <point x="1481.6" y="438.46315789473687" type="line"/>
      <point x="1447.9368421052632" y="278.1473684210526"/>
      <point x="1417.4315789473683" y="148.98947368421054"/>
    </contour>
  </outline>
</glyph>
<glyph name="n" format="2">
  <advance width="1152.7157894736843"/>
  <unicode hex="006E"/>
  <anchor x="484.67368421052635" y="0.0" name="bottom"/>
  <anchor x="693.0105263157895" y="989.3473684210526" name="top"/>
  <outline>
    <contour>
      <point x="94.3578947368421" y="0.0" type="curve"/>
      <point x="201.91578947368419" y="0.0" type="line"/>
      <point x="229.89473684210526" y="148.98947368421054"/>
      <point x="254.71578947368423" y="278.14736842105265"/>
      <point x="288.378947368421" y="438.46315789473687" type="curve"/>
      <point x="342.8631578947368" y="690.0631578947367" type="line"/>
      <point x="453.7894736842105" y="808.3157894736843"/>
      <point x="607.5157894736842" y="918.0631578947368"/>
      <point x="726.2526315789473" y="918.0631578947368" type="curve" smooth="yes"/>
      <point x="907.957894736842" y="918.0631578947368"/>
      <point x="956.2526315789474" y="810.6105263157895"/>
      <point x="913.9368421052632" y="613.3684210526317" type="curve"/>
      <point x="877.9578947368421" y="438.46315789473687" type="line"/>
      <point x="844.2947368421052" y="278.1473684210526"/>
      <point x="813.7894736842106" y="148.98947368421054"/>
      <point x="776.7789473684211" y="0.0" type="curve"/>
      <point x="884.0" y="0.0" type="line"/>
      <point x="911.4736842105262" y="148.98947368421054"/>
      <point x="936.6315789473683" y="278.1473684210526"/>
      <point x="970.8" y="440.65263157894736" type="curve"/>
      <point x="986.8" y="516.821052631579"/>
      <point x="1000.3157894736842" y="570.1894736842105"/>
      <point x="1012.3157894736842" y="624.5263157894736" type="curve" smooth="yes"/>
      <point x="1065.8105263157893" y="867.1789473684211"/>
      <point x="973.6421052631579" y="1010.3578947368421"/>
      <point x="752.6526315789473" y="1010.3578947368421" type="curve" smooth="yes"/>
      <point x="619.0105263157894" y="1010.3578947368421"/>
      <point x="460.21052631578954" y="896.7368421052631"/>
      <point x="375.36842105263156" y="816.2105263157895" type="curve"/>
      <point x="363.34736842105264" y="816.2105263157895" type="line"/>
      <point x="384.3368421052632" y="996.5263157894736" type="line"/>
      <point x="290.8421052631579" y="989.3473684210526" type="line"/>
      <point x="275.70526315789476" y="839.8315789473684"/>
      <point x="248.7157894736842" y="684.0"/>
      <point x="218.54736842105265" y="540.6526315789474" type="curve"/>
      <point x="196.54736842105265" y="440.65263157894736" type="line"/>
      <point x="162.37894736842108" y="278.14736842105265"/>
      <point x="131.70526315789473" y="148.98947368421054"/>
    </contour>
  </outline>
</glyph>
<glyph name="p" format="2">
  <advance width="1193.0105263157895"/>
  <unicode hex="0070"/>
  <outline>
    <contour>
      <point x="10.52631578947369" y="-388.6736842105263" type="curve"/>
      <point x="120.92631578947368" y="-384.0" type="line"/>
      <point x="146.4" y="-235.01052631578946"/>
      <point x="171.05263157894734" y="-105.85263157894737"/>
      <point x="206.54736842105262" y="54.463157894736845" type="curve"/>
      <point x="229.8736842105263" y="157.76842105263157" type="line"/>
      <point x="242.8842105263158" y="157.76842105263157" type="line"/>
      <point x="326.18947368421055" y="55.62105263157895"/>
      <point x="466.821052631579" y="-19.178947368421053"/>
      <point x="583.9578947368421" y="-19.178947368421053" type="curve" smooth="yes"/>
      <point x="826.9473684210527" y="-19.178947368421053"/>
      <point x="1004.5894736842105" y="154.52631578947367"/>
      <point x="1064.5894736842104" y="442.0210526315789" type="curve" smooth="yes"/>
      <point x="1126.757894736842" y="742.3578947368421"/>
      <point x="1006.1263157894737" y="1010.3578947368421"/>
      <point x="704.0" y="1010.3578947368421" type="curve" smooth="yes"/>
      <point x="593.8526315789474" y="1010.3578947368421"/>
      <point x="459.05263157894734" y="933.0526315789473"/>
      <point x="384.21052631578954" y="863.5157894736842" type="curve"/>
      <point x="370.3578947368422" y="863.5157894736842" type="line"/>
      <point x="385.85263157894735" y="996.5263157894736" type="line"/>
      <point x="290.842105263158" y="989.3473684210526" type="line"/>
      <point x="275.70526315789476" y="839.8315789473684"/>
      <point x="248.7157894736842" y="684.0"/>
      <point x="218.54736842105262" y="540.6526315789474" type="curve"/>
      <point x="114.71578947368423" y="56.65263157894737" type="line"/>
      <point x="80.54736842105264" y="-105.85263157894737"/>
      <point x="47.87368421052632" y="-239.68421052631578"/>
    </contour>
    <contour>
      <point x="572.3368421052631" y="71.09473684210526" type="curve"/>
      <point x="454.4210526315789" y="71.43157894736842"/>
      <point x="331.34736842105264" y="142.0421052631579"/>
      <point x="251.57894736842104" y="264.61052631578946" type="curve"/>
      <point x="354.52631578947364" y="749.2" type="line"/>
      <point x="455.11578947368423" y="850.9684210526316"/>
      <point x="586.0210526315789" y="918.5894736842106"/>
      <point x="682.1263157894737" y="920.5894736842106" type="curve"/>
      <point x="934.6105263157895" y="914.5894736842106"/>
      <point x="1022.7157894736843" y="707.7052631578947"/>
      <point x="970.0842105263158" y="452.0421052631579" type="curve" smooth="yes"/>
      <point x="924.6105263157895" y="234.16842105263157"/>
      <point x="799.6842105263158" y="77.26315789473684"/>
    </contour>
  </outline>
</glyph>
<glyph name="q" format="2">
  <advance width="1170.8421052631577"/>
  <unicode hex="0071"/>
  <outline>
    <contour>
      <point x="695.0947368421052" y="-388.6736842105263" type="curve"/>
      <point x="804.6526315789473" y="-384.0" type="line"/>
      <point x="832.6315789473683" y="-235.01052631578946"/>
      <point x="857.4526315789473" y="-105.85263157894737"/>
      <point x="891.6210526315789" y="56.65263157894737" type="curve"/>
      <point x="993.7894736842105" y="540.6526315789474" type="line"/>
      <point x="1024.1263157894737" y="686.3368421052633"/>
      <point x="1063.1368421052632" y="844.6736842105263"/>
      <point x="1111.3263157894737" y="996.5263157894736" type="curve"/>
      <point x="1017.4947368421052" y="989.3473684210526" type="line"/>
      <point x="975.4947368421053" y="850.6947368421053" type="line"/>
      <point x="961.8105263157896" y="850.6947368421053" type="line"/>
      <point x="885.3263157894737" y="934.7157894736843"/>
      <point x="743.6842105263158" y="1010.3578947368421"/>
      <point x="609.221052631579" y="1010.3578947368421" type="curve" smooth="yes"/>
      <point x="366.2315789473684" y="1010.3578947368421"/>
      <point x="188.58947368421053" y="836.6526315789473"/>
      <point x="128.58947368421053" y="549.1578947368421" type="curve" smooth="yes"/>
      <point x="66.42105263157896" y="248.82105263157894"/>
      <point x="187.05263157894737" y="-19.178947368421053"/>
      <point x="489.178947368421" y="-19.178947368421053" type="curve" smooth="yes"/>
      <point x="590.8210526315789" y="-19.178947368421053"/>
      <point x="720.2736842105263" y="44.29473684210526"/>
      <point x="805.0947368421052" y="143.1157894736842" type="curve"/>
      <point x="818.4421052631579" y="143.1157894736842" type="line"/>
      <point x="798.778947368421" y="54.463157894736845" type="line"/>
      <point x="765.1157894736841" y="-105.85263157894737"/>
      <point x="732.4421052631578" y="-239.68421052631578"/>
    </contour>
    <contour>
      <point x="511.0526315789474" y="70.58947368421053" type="curve"/>
      <point x="258.5684210526316" y="74.7578947368421"/>
      <point x="168.63157894736844" y="285.30526315789473"/>
      <point x="223.09473684210528" y="539.1368421052632" type="curve" smooth="yes"/>
      <point x="270.40000000000003" y="760.6736842105263"/>
      <point x="393.4947368421053" y="913.9157894736842"/>
      <point x="620.8421052631579" y="920.0842105263158" type="curve"/>
      <point x="744.2526315789473" y="917.9157894736842"/>
      <point x="865.4947368421052" y="854.6315789473684"/>
      <point x="948.9263157894737" y="761.3684210526316" type="curve"/>
      <point x="847.8105263157895" y="289.59999999999997" type="line"/>
      <point x="758.2105263157895" y="154.86315789473682"/>
      <point x="630.9684210526316" y="74.42105263157895"/>
    </contour>
  </outline>
</glyph>
<glyph name="r" format="2">
  <advance width="795.4105263157894"/>
  <unicode hex="0072"/>
  <anchor x="140.21052631578948" y="0.0" name="bottom"/>
  <anchor x="569.0105263157895" y="989.3473684210526" name="top"/>
  <outline>
    <contour>
      <point x="94.3578947368421" y="0.0" type="curve"/>
      <point x="201.91578947368419" y="0.0" type="line"/>
      <point x="229.89473684210526" y="148.98947368421054"/>
      <point x="254.71578947368423" y="278.14736842105265"/>
      <point x="288.378947368421" y="438.46315789473687" type="curve"/>
      <point x="327.36842105263156" y="619.2421052631579" type="line"/>
      <point x="480.58947368421053" y="864.2105263157895"/>
      <point x="610.042105263158" y="914.1894736842105"/>
      <point x="689.6631578947369" y="914.1894736842105" type="curve" smooth="yes"/>
      <point x="725.4947368421052" y="914.1894736842105"/>
      <point x="761.8315789473684" y="907.6842105263158"/>
      <point x="813.3473684210526" y="887.5157894736843" type="curve"/>
      <point x="843.1157894736841" y="988.5263157894738" type="line"/>
      <point x="807.2842105263157" y="1000.3578947368421"/>
      <point x="754.9473684210526" y="1010.3578947368421"/>
      <point x="707.3052631578947" y="1010.3578947368421" type="curve" smooth="yes"/>
      <point x="621.3052631578947" y="1010.3578947368421"/>
      <point x="495.68421052631584" y="968.6947368421052"/>
      <point x="366.2105263157895" y="788.7368421052631" type="curve"/>
      <point x="354.18947368421055" y="788.7368421052631" type="line"/>
      <point x="384.3368421052632" y="996.5263157894736" type="line"/>
      <point x="290.8421052631579" y="989.3473684210526" type="line"/>
      <point x="275.70526315789476" y="839.8315789473684"/>
      <point x="248.7157894736842" y="684.0"/>
      <point x="218.54736842105265" y="540.6526315789474" type="curve"/>
      <point x="196.54736842105265" y="440.65263157894736" type="line"/>
      <point x="162.37894736842108" y="278.14736842105265"/>
      <point x="131.70526315789473" y="148.98947368421054"/>
    </contour>
  </outline>
</glyph>
<glyph name="s" format="2">
  <advance width="897.5172413793103"/>
  <unicode hex="0073"/>
  <anchor x="343.3103448275862" y="0.0" name="bottom"/>
  <anchor x="551.6781609195402" y="989.471264367816" name="top"/>
  <outline>
    <contour>
      <point x="382.0459770114943" y="-19.103448275862068" type="curve" smooth="yes"/>
      <point x="587.4022988505748" y="-19.103448275862068"/>
      <point x="703.6091954022988" y="63.839080459770116"/>
      <point x="733.6091954022988" y="203.67816091954026" type="curve" smooth="yes"/>
      <point x="771.2413793103449" y="377.14942528735634"/>
      <point x="652.3908045977012" y="463.51724137931035"/>
      <point x="478.34482758620686" y="540.9885057471264" type="curve" smooth="yes"/>
      <point x="299.17241379310343" y="622.5747126436781"/>
      <point x="268.64367816091954" y="677.632183908046"/>
      <point x="287.54022988505744" y="774.8045977011494" type="curve" smooth="yes"/>
      <point x="315.3333333333333" y="901.7701149425287"/>
      <point x="442.2988505747126" y="918.2988505747127"/>
      <point x="514.0919540229885" y="922.2988505747127" type="curve"/>
      <point x="564.0919540229885" y="922.2988505747127"/>
      <point x="667.7241379310345" y="897.1954022988507"/>
      <point x="790.9885057471265" y="832.8275862068966" type="curve"/>
      <point x="819.609195402299" y="926.2068965517241" type="line"/>
      <point x="738.5057471264369" y="961.4712643678162"/>
      <point x="610.2528735632185" y="1010.2068965517242"/>
      <point x="506.57471264367814" y="1010.2068965517242" type="curve" smooth="yes"/>
      <point x="352.64367816091954" y="1010.2068965517242"/>
      <point x="223.90804597701148" y="930.0"/>
      <point x="194.43678160919538" y="789.7471264367815" type="curve" smooth="yes"/>
      <point x="160.06896551724137" y="632.2758620689655"/>
      <point x="245.4942528735632" y="554.5977011494252"/>
      <point x="412.9655172413793" y="474.9655172413793" type="curve" smooth="yes"/>
      <point x="600.3448275862069" y="387.01149425287355"/>
      <point x="663.0344827586207" y="335.21839080459773"/>
      <point x="638.5057471264369" y="217.35632183908046" type="curve" smooth="yes"/>
      <point x="612.344827586207" y="94.22988505747126"/>
      <point x="494.4367816091954" y="72.80459770114942"/>
      <point x="379.63218390804593" y="69.17241379310344" type="curve"/>
      <point x="290.2068965517241" y="69.17241379310344"/>
      <point x="182.16091954022988" y="110.64367816091955"/>
      <point x="75.26436781609198" y="178.64367816091956" type="curve"/>
      <point x="44.64367816091954" y="83.05747126436782" type="line"/>
      <point x="124.11494252873564" y="44.160919540229884"/>
      <point x="243.42528735632186" y="-19.103448275862068"/>
    </contour>
  </outline>
</glyph>
<glyph name="u" format="2">
  <advance width="1105.7473684210527"/>
  <unicode hex="0075"/>
  <anchor x="449.3684210526315" y="0.0" name="bottom"/>
  <anchor x="833.5157894736841" y="0.0" name="ogonek"/>
  <anchor x="657.5368421052632" y="989.3473684210526" name="top"/>
  <anchor x="1149.7684210526315" y="989.3473684210526" name="topright"/>
  <outline>
    <contour>
      <point x="401.05263157894734" y="-19.178947368421053" type="curve" smooth="yes"/>
      <point x="523.7052631578946" y="-19.178947368421053"/>
      <point x="682.5052631578948" y="94.4421052631579"/>
      <point x="767.3473684210527" y="174.96842105263158" type="curve"/>
      <point x="779.3684210526316" y="174.96842105263158" type="line"/>
      <point x="745.5578947368421" y="0.0" type="line"/>
      <point x="834.5263157894735" y="0.0" type="line"/>
      <point x="862.5052631578947" y="148.98947368421054"/>
      <point x="887.1578947368421" y="278.14736842105265"/>
      <point x="921.3263157894737" y="440.65263157894736" type="curve"/>
      <point x="943.6631578947369" y="542.3368421052631" type="line"/>
      <point x="978.3368421052631" y="707.5368421052632"/>
      <point x="1009.0105263157895" y="840.3578947368421"/>
      <point x="1048.0210526315789" y="989.3473684210526" type="curve"/>
      <point x="939.1368421052632" y="989.3473684210526" type="line"/>
      <point x="914.8210526315789" y="840.3578947368421"/>
      <point x="887.8315789473684" y="707.5368421052632"/>
      <point x="852.3368421052631" y="547.2210526315789" type="curve"/>
      <point x="799.5157894736842" y="300.27368421052626" type="line"/>
      <point x="688.5894736842106" y="182.02105263157895"/>
      <point x="534.8631578947368" y="72.27368421052631"/>
      <point x="427.11578947368423" y="72.27368421052631" type="curve" smooth="yes"/>
      <point x="245.41052631578947" y="72.27368421052631"/>
      <point x="197.11578947368417" y="179.7263157894737"/>
      <point x="239.26315789473682" y="376.9684210526316" type="curve"/>
      <point x="273.7473684210526" y="547.2210526315789" type="line"/>
      <point x="307.24210526315784" y="707.5368421052632"/>
      <point x="339.9157894736842" y="845.0315789473684"/>
      <point x="378.9263157894737" y="994.021052631579" type="curve"/>
      <point x="267.53684210526313" y="989.3473684210526" type="line"/>
      <point x="243.2210526315789" y="840.3578947368421"/>
      <point x="216.90526315789472" y="707.8736842105262"/>
      <point x="180.39999999999998" y="542.3368421052631" type="curve"/>
      <point x="164.39999999999998" y="471.66315789473686"/>
      <point x="153.72631578947366" y="420.9894736842105"/>
      <point x="141.72631578947366" y="366.65263157894736" type="curve" smooth="yes"/>
      <point x="88.23157894736842" y="124.0"/>
      <point x="180.06315789473686" y="-19.178947368421053"/>
    </contour>
  </outline>
</glyph>
<glyph name="v" format="2">
  <advance width="1006.6526315789474"/>
  <unicode hex="0076"/>
  <outline>
    <contour>
      <point x="339.5578947368421" y="0.0" type="curve"/>
      <point x="462.92631578947373" y="0.0" type="line"/>
      <point x="533.4105263157895" y="124.16842105263157"/>
      <point x="604.5684210526316" y="246.50526315789475"/>
      <point x="678.0631578947368" y="370.5052631578947" type="curve"/>
      <point x="783.3894736842105" y="546.8421052631578" type="line"/>
      <point x="869.0526315789474" y="693.1789473684211"/>
      <point x="958.5473684210527" y="843.1789473684211"/>
      <point x="1053.0526315789473" y="989.3473684210526" type="curve"/>
      <point x="932.1473684210525" y="989.3473684210526" type="line"/>
      <point x="833.7263157894737" y="810.9263157894737"/>
      <point x="734.1263157894738" y="634.8210526315789"/>
      <point x="626.5263157894738" y="451.38947368421054" type="curve"/>
      <point x="424.65263157894736" y="104.18947368421053" type="line"/>
      <point x="410.9684210526316" y="104.18947368421053" type="line"/>
      <point x="355.0315789473684" y="451.38947368421054" type="line"/>
      <point x="324.4" y="634.8210526315789"/>
      <point x="296.2736842105263" y="811.0947368421052"/>
      <point x="272.31578947368416" y="994.021052631579" type="curve"/>
      <point x="165.6" y="989.3473684210526" type="line"/>
      <point x="196.1052631578947" y="845.3473684210526"/>
      <point x="223.93684210526314" y="695.0105263157894"/>
      <point x="249.26315789473685" y="550.6736842105263" type="curve"/>
      <point x="278.7578947368421" y="374.5052631578947" type="line"/>
      <point x="300.2526315789474" y="254.0"/>
      <point x="321.2421052631579" y="124.16842105263157"/>
    </contour>
  </outline>
</glyph>
<glyph name="w" format="2">
  <advance width="1583.4736842105262"/>
  <unicode hex="0077"/>
  <anchor x="689.3894736842105" y="0.0" name="bottom"/>
  <anchor x="897.5578947368422" y="989.3473684210526" name="top"/>
  <outline>
    <contour>
      <point x="289.5578947368421" y="0.0" type="curve"/>
      <point x="413.41052631578947" y="0.0" type="line"/>
      <point x="500.84210526315786" y="171.9157894736842"/>
      <point x="596.6105263157895" y="356.9894736842105"/>
      <point x="685.2210526315789" y="525.2421052631579" type="curve"/>
      <point x="856.7789473684211" y="852.0842105263158" type="line"/>
      <point x="870.1263157894737" y="852.0842105263158" type="line"/>
      <point x="906.2526315789473" y="529.7473684210527" type="line"/>
      <point x="924.2315789473683" y="362.9894736842105"/>
      <point x="943.8736842105262" y="168.25263157894736"/>
      <point x="958.842105263158" y="0.0" type="curve"/>
      <point x="1092.2315789473685" y="0.0" type="line"/>
      <point x="1154.378947368421" y="122.16842105263157"/>
      <point x="1220.042105263158" y="248.33684210526314"/>
      <point x="1289.8736842105263" y="378.5052631578947" type="curve"/>
      <point x="1383.536842105263" y="552.5052631578947" type="line"/>
      <point x="1461.5368421052633" y="697.1789473684211"/>
      <point x="1539.3684210526314" y="841.1789473684211"/>
      <point x="1628.378947368421" y="989.3473684210526" type="curve"/>
      <point x="1507.3052631578948" y="989.3473684210526" type="line"/>
      <point x="1429.0315789473684" y="829.0736842105264"/>
      <point x="1323.2631578947369" y="627.978947368421"/>
      <point x="1230.4842105263158" y="452.0421052631579" type="curve"/>
      <point x="1046.9263157894738" y="104.16842105263157" type="line"/>
      <point x="1035.242105263158" y="104.16842105263157" type="line"/>
      <point x="997.957894736842" y="449.87368421052633" type="line"/>
      <point x="978.4842105263157" y="627.8105263157895"/>
      <point x="959.3473684210526" y="815.4105263157895"/>
      <point x="944.8842105263158" y="989.3473684210526" type="curve"/>
      <point x="835.7263157894737" y="989.3473684210526" type="line"/>
      <point x="742.8000000000001" y="804.0842105263158"/>
      <point x="650.021052631579" y="624.4842105263158"/>
      <point x="557.0736842105263" y="446.2105263157895" type="curve"/>
      <point x="379.0105263157895" y="104.16842105263157" type="line"/>
      <point x="367.3263157894737" y="104.16842105263157" type="line"/>
      <point x="328.2105263157895" y="438.88421052631577" type="line"/>
      <point x="308.7368421052632" y="614.9894736842106"/>
      <point x="285.9368421052631" y="814.2526315789473"/>
      <point x="271.4736842105263" y="994.021052631579" type="curve"/>
      <point x="162.7578947368421" y="989.3473684210526" type="line"/>
      <point x="189.76842105263157" y="839.3473684210527"/>
      <point x="207.6" y="698.8421052631578"/>
      <point x="225.09473684210525" y="552.5052631578947" type="curve"/>
      <point x="248.25263157894736" y="374.6736842105263" type="line"/>
      <point x="263.74736842105267" y="248.50526315789475"/>
      <point x="277.2421052631579" y="124.16842105263157"/>
    </contour>
  </outline>
</glyph>
<glyph name="x" format="2">
  <advance width="1037.3473684210526"/>
  <unicode hex="0078"/>
  <outline>
    <contour>
      <point x="-40.06315789473684" y="0.0" type="curve"/>
      <point x="95.85263157894735" y="0.0" type="line"/>
      <point x="179.11578947368423" y="95.13684210526317"/>
      <point x="242.4" y="164.77894736842106"/>
      <point x="328.84210526315786" y="258.42105263157896" type="curve"/>
      <point x="497.7263157894737" y="440.5263157894737" type="line"/>
      <point x="509.0736842105263" y="440.5263157894737" type="line"/>
      <point x="612.3157894736842" y="253.9157894736842" type="line"/>
      <point x="663.9368421052632" y="160.77894736842106"/>
      <point x="700.5684210526317" y="92.80000000000001"/>
      <point x="745.5157894736843" y="0.0" type="curve"/>
      <point x="866.0842105263158" y="0.0" type="line"/>
      <point x="788.5894736842106" y="125.01052631578948"/>
      <point x="743.6" y="203.85263157894735"/>
      <point x="689.2842105263159" y="300.021052631579" type="curve"/>
      <point x="562.6526315789474" y="524.0421052631579" type="line"/>
      <point x="559.4947368421052" y="491.1578947368421" type="line"/>
      <point x="759.1368421052632" y="702.0" type="line"/>
      <point x="851.9578947368421" y="800.1684210526316"/>
      <point x="909.7894736842105" y="860.8421052631579"/>
      <point x="1036.947368421053" y="989.3473684210526" type="curve"/>
      <point x="900.8631578947369" y="989.3473684210526" type="line"/>
      <point x="819.2631578947369" y="894.2105263157895"/>
      <point x="755.4736842105262" y="824.2315789473685"/>
      <point x="674.1894736842105" y="736.0842105263158" type="curve"/>
      <point x="515.9578947368421" y="564.9684210526316" type="line"/>
      <point x="506.10526315789474" y="564.9684210526316" type="line"/>
      <point x="417.17894736842106" y="736.2526315789473" type="line"/>
      <point x="374.5473684210527" y="818.7368421052631"/>
      <point x="335.91578947368424" y="895.0526315789473"/>
      <point x="290.8" y="994.021052631579" type="curve"/>
      <point x="176.7578947368421" y="989.3473684210526" type="line"/>
      <point x="247.9157894736842" y="867.0105263157894"/>
      <point x="285.07368421052627" y="796.3368421052631"/>
      <point x="339.05263157894734" y="694.5052631578948" type="curve"/>
      <point x="449.5157894736842" y="483.8315789473684" type="line"/>
      <point x="454.69473684210527" y="520.3789473684211" type="line"/>
      <point x="248.56842105263158" y="300.5263157894737" type="line"/>
      <point x="156.0842105263158" y="201.5157894736842"/>
      <point x="89.09473684210526" y="131.0105263157895"/>
    </contour>
  </outline>
</glyph>
<glyph name="y" format="2">
  <advance width="1013.978947368421"/>
  <unicode hex="0079"/>
  <anchor x="624.778947368421" y="0.0" name="bottom"/>
  <anchor x="612.9052631578948" y="989.3473684210526" name="top"/>
  <outline>
    <contour>
      <point x="101.85263157894735" y="-388.6736842105263" type="curve"/>
      <point x="223.09473684210528" y="-384.0" type="line"/>
      <point x="304.90526315789475" y="-240.0"/>
      <point x="402.4000000000001" y="-77.32631578947368"/>
      <point x="557.5578947368422" y="176.67368421052632" type="curve"/>
      <point x="727.0526315789474" y="455.0105263157895" type="line"/>
      <point x="878.5473684210527" y="705.1789473684211"/>
      <point x="954.2105263157895" y="827.3473684210526"/>
      <point x="1056.2105263157896" y="989.3473684210526" type="curve"/>
      <point x="935.8105263157894" y="989.3473684210526" type="line"/>
      <point x="835.3894736842107" y="809.578947368421"/>
      <point x="733.9578947368421" y="635.8105263157894"/>
      <point x="624.3578947368421" y="450.5473684210526" type="curve"/>
      <point x="416.65263157894736" y="102.84210526315789" type="line"/>
      <point x="402.9684210526316" y="102.84210526315789" type="line"/>
      <point x="350.69473684210527" y="448.88421052631577" type="line"/>
      <point x="321.7263157894737" y="634.4842105263158"/>
      <point x="295.43157894736845" y="808.421052631579"/>
      <point x="271.81052631578945" y="994.021052631579" type="curve"/>
      <point x="165.09473684210525" y="989.3473684210526" type="line"/>
      <point x="195.76842105263157" y="847.1789473684211"/>
      <point x="221.43157894736842" y="695.1789473684211"/>
      <point x="244.92631578947368" y="553.0105263157894" type="curve"/>
      <point x="274.2526315789474" y="373.0105263157895" type="line"/>
      <point x="295.91578947368424" y="240.50526315789475"/>
      <point x="316.56842105263155" y="98.84210526315789"/>
      <point x="336.88421052631577" y="-37.32631578947368" type="curve"/>
      <point x="343.5789473684211" y="-2.2736842105263158" type="line"/>
      <point x="267.57894736842104" y="-129.9578947368421"/>
      <point x="185.05263157894737" y="-260.98947368421057"/>
    </contour>
  </outline>
</glyph>
<glyph name="z" format="2">
  <advance width="973.0947368421052"/>
  <unicode hex="007A"/>
  <anchor x="378.5473684210526" y="0.0" name="bottom"/>
  <anchor x="482.7157894736842" y="494.6736842105263" name="center"/>
  <anchor x="586.8842105263159" y="989.3473684210526" name="top"/>
  <outline>
    <contour>
      <point x="-19.536842105263155" y="0.0" type="line"/>
      <point x="791.6210526315789" y="0.0" type="line"/>
      <point x="811.0105263157894" y="87.93684210526315" type="line"/>
      <point x="664.8842105263158" y="81.41052631578947"/>
      <point x="470.2736842105263" y="78.23157894736842"/>
      <point x="353.6421052631579" y="78.23157894736842" type="curve"/>
      <point x="95.22105263157894" y="78.23157894736842" type="line"/>
      <point x="108.08421052631579" y="54.33684210526316" type="line"/>
      <point x="547.7263157894737" y="507.4736842105263" type="line"/>
      <point x="680.6736842105264" y="644.2526315789474"/>
      <point x="848.778947368421" y="814.8421052631579"/>
      <point x="952.2526315789473" y="918.6315789473684" type="curve"/>
      <point x="966.6315789473684" y="989.3473684210526" type="line"/>
      <point x="189.97894736842105" y="989.3473684210526" type="line"/>
      <point x="170.42105263157896" y="900.5684210526315" type="line"/>
      <point x="328.5473684210526" y="909.4315789473684"/>
      <point x="525.4947368421053" y="910.9473684210526"/>
      <point x="640.2947368421053" y="910.9473684210526" type="curve"/>
      <point x="873.8947368421053" y="910.9473684210526" type="line"/>
      <point x="859.5157894736842" y="953.1789473684211" type="line"/>
      <point x="420.0210526315789" y="498.8421052631579" type="line"/>
      <point x="294.90526315789475" y="369.38947368421054"/>
      <point x="147.7894736842105" y="219.1157894736842"/>
      <point x="-5.831578947368418" y="63.68421052631579" type="curve"/>
    </contour>
  </outline>
</glyph>
<glyph name="braceleft" format="2">
  <advance width="763.8736842105263"/>
  <unicode hex="007B"/>
  <outline>
    <contour>
      <point x="440.1052631578947" y="-227.03157894736842" type="curve" smooth="yes"/>
      <point x="589.6631578947369" y="-227.03157894736842" type="line"/>
      <point x="606.8842105263159" y="-140.2736842105263" type="line"/>
      <point x="540.5473684210526" y="-142.77894736842106"/>
      <point x="486.5473684210526" y="-142.94736842105263"/>
      <point x="452.5473684210526" y="-142.94736842105263" type="curve"/>
      <point x="311.4526315789474" y="-142.27368421052634"/>
      <point x="260.821052631579" y="-59.136842105263156"/>
      <point x="283.81052631578945" y="60.652631578947364" type="curve" smooth="yes"/>
      <point x="349.93684210526317" y="391.6421052631579" type="line" smooth="yes"/>
      <point x="379.59999999999997" y="536.4842105263158"/>
      <point x="337.93684210526317" y="597.1578947368421"/>
      <point x="258.2105263157895" y="636.1684210526316" type="curve"/>
      <point x="260.5473684210526" y="649.6842105263158" type="line"/>
      <point x="356.61052631578946" y="687.8736842105263"/>
      <point x="421.28421052631575" y="741.2421052631579"/>
      <point x="455.9578947368421" y="895.7473684210527" type="curve" smooth="yes"/>
      <point x="537.578947368421" y="1267.178947368421" type="line" smooth="yes"/>
      <point x="564.9052631578946" y="1392.463157894737"/>
      <point x="637.3684210526316" y="1439.2842105263157"/>
      <point x="769.3052631578947" y="1439.7894736842106" type="curve"/>
      <point x="808.8000000000001" y="1439.7894736842106"/>
      <point x="868.1263157894737" y="1439.621052631579"/>
      <point x="937.1157894736842" y="1437.1157894736843" type="curve"/>
      <point x="956.3368421052631" y="1523.8736842105263" type="line"/>
      <point x="769.4526315789473" y="1523.8736842105263" type="line" smooth="yes"/>
      <point x="591.2" y="1523.8736842105263"/>
      <point x="479.13684210526316" y="1451.1789473684212"/>
      <point x="443.7894736842105" y="1284.442105263158" type="curve"/>
      <point x="418.46315789473687" y="1161.3052631578946"/>
      <point x="392.4842105263158" y="1020.8631578947369"/>
      <point x="366.98947368421057" y="897.7263157894737" type="curve"/>
      <point x="334.16842105263163" y="742.7789473684211"/>
      <point x="221.22105263157894" y="686.9473684210526"/>
      <point x="120.90526315789474" y="686.9473684210526" type="curve" smooth="yes"/>
      <point x="61.873684210526314" y="686.9473684210526" type="line"/>
      <point x="45.49473684210526" y="608.0631578947368" type="line"/>
      <point x="104.52631578947368" y="608.0631578947368" type="line" smooth="yes"/>
      <point x="204.8421052631579" y="608.0631578947368"/>
      <point x="293.7894736842105" y="552.2315789473685"/>
      <point x="260.9684210526316" y="397.2842105263158" type="curve"/>
      <point x="237.8105263157895" y="285.66315789473686"/>
      <point x="211.97894736842107" y="175.87368421052633"/>
      <point x="188.82105263157897" y="64.25263157894737" type="curve"/>
      <point x="155.30526315789476" y="-96.98947368421052"/>
      <point x="245.3684210526316" y="-227.03157894736842"/>
    </contour>
  </outline>
</glyph>
<glyph name="bar" format="2">
  <advance width="508.7578947368421"/>
  <unicode hex="007C"/>
  <outline>
    <contour>
      <point x="34.715789473684225" y="-309.6842105263158" type="curve"/>
      <point x="133.0315789473684" y="-309.6842105263158" type="line"/>
      <point x="177.51578947368418" y="-75.6842105263158"/>
      <point x="221.3473684210526" y="132.31578947368422"/>
      <point x="267.34736842105264" y="348.3157894736842" type="curve"/>
      <point x="387.34736842105264" y="912.3157894736842" type="line"/>
      <point x="433.34736842105264" y="1128.3157894736842"/>
      <point x="477.5157894736842" y="1336.3157894736842"/>
      <point x="533.0315789473684" y="1570.3157894736842" type="curve"/>
      <point x="434.71578947368425" y="1570.3157894736842" type="line"/>
      <point x="390.23157894736846" y="1336.3157894736842"/>
      <point x="346.40000000000003" y="1128.3157894736842"/>
      <point x="300.40000000000003" y="912.3157894736842" type="curve"/>
      <point x="180.4" y="348.3157894736842" type="line"/>
      <point x="134.4" y="132.31578947368422"/>
      <point x="90.06315789473688" y="-75.6842105263158"/>
    </contour>
  </outline>
</glyph>
<glyph name="asciitilde" format="2">
  <advance width="1125.0526315789473"/>
  <unicode hex="007E"/>
  <outline>
    <contour>
      <point x="808.1894736842106" y="458.58947368421053" type="curve" smooth="yes"/>
      <point x="923.4105263157895" y="458.58947368421053"/>
      <point x="1001.936842105263" y="542.5052631578948"/>
      <point x="1034.294736842105" y="699.1157894736842" type="curve"/>
      <point x="960.1263157894737" y="699.1157894736842" type="line"/>
      <point x="926.9684210526316" y="593.5157894736842"/>
      <point x="890.6526315789473" y="551.2"/>
      <point x="808.8631578947369" y="547.0315789473684" type="curve"/>
      <point x="666.4000000000001" y="551.8736842105263"/>
      <point x="523.8736842105262" y="726.6315789473684"/>
      <point x="364.5473684210526" y="726.6315789473684" type="curve" smooth="yes"/>
      <point x="248.31578947368422" y="726.6315789473684"/>
      <point x="167.62105263157895" y="640.7157894736843"/>
      <point x="133.43157894736842" y="486.10526315789474" type="curve"/>
      <point x="207.6" y="486.10526315789474" type="line"/>
      <point x="240.7578947368421" y="591.7052631578947"/>
      <point x="281.24210526315795" y="634.0210526315789"/>
      <point x="361.5368421052632" y="638.1894736842105" type="curve"/>
      <point x="504.9894736842105" y="633.3473684210526"/>
      <point x="648.1894736842105" y="458.58947368421053"/>
    </contour>
  </outline>
</glyph>
<glyph name="cent" format="2">
  <advance width="999.2842105263157"/>
  <unicode hex="00A2"/>
  <anchor x="473.13684210526316" y="0.0" name="bottom"/>
  <anchor x="664.9894736842106" y="989.3473684210526" name="top"/>
  <outline>
    <contour>
      <point x="348.40000000000003" y="-274.0" type="curve"/>
      <point x="438.1473684210526" y="-274.0" type="line"/>
      <point x="482.29473684210524" y="-40.33684210526316"/>
      <point x="526.4631578947368" y="168.0"/>
      <point x="572.4631578947368" y="384.1684210526316" type="curve"/>
      <point x="616.4631578947368" y="588.6736842105263" type="line"/>
      <point x="662.4631578947368" y="804.8421052631579"/>
      <point x="706.4631578947368" y="1012.6736842105263"/>
      <point x="762.1473684210526" y="1246.842105263158" type="curve"/>
      <point x="672.4" y="1246.842105263158" type="line"/>
      <point x="628.0842105263158" y="1012.8421052631579"/>
      <point x="584.0842105263158" y="804.6736842105263"/>
      <point x="538.0842105263158" y="588.6736842105263" type="curve"/>
      <point x="494.0842105263158" y="384.1684210526316" type="line"/>
      <point x="448.2526315789474" y="168.67368421052632"/>
      <point x="404.0842105263158" y="-39.83157894736842"/>
    </contour>
    <contour>
      <point x="556.1894736842105" y="-18.673684210526318" type="curve" smooth="yes"/>
      <point x="648.3368421052631" y="-18.673684210526318"/>
      <point x="751.6631578947369" y="16.147368421052633"/>
      <point x="805.6631578947369" y="43.13684210526316" type="curve"/>
      <point x="810.8842105263159" y="148.06315789473683" type="line"/>
      <point x="738.0631578947368" y="105.07368421052632"/>
      <point x="641.0736842105263" y="71.91578947368421"/>
      <point x="563.9368421052632" y="70.08421052631579" type="curve" smooth="yes"/>
      <point x="302.56842105263155" y="74.08421052631579"/>
      <point x="158.1263157894737" y="246.31578947368422"/>
      <point x="219.26315789473685" y="533.6631578947367" type="curve" smooth="yes"/>
      <point x="272.4" y="781.1789473684211"/>
      <point x="441.9578947368421" y="910.5894736842105"/>
      <point x="655.8315789473684" y="920.5894736842105" type="curve"/>
      <point x="727.1368421052631" y="920.5894736842105"/>
      <point x="840.6105263157895" y="889.4315789473684"/>
      <point x="949.4526315789474" y="824.2736842105263" type="curve"/>
      <point x="978.5263157894736" y="920.042105263158" type="line"/>
      <point x="898.021052631579" y="959.0315789473685"/>
      <point x="774.1684210526315" y="1010.1894736842105"/>
      <point x="657.4947368421053" y="1010.1894736842105" type="curve" smooth="yes"/>
      <point x="390.42105263157896" y="1010.1894736842105"/>
      <point x="181.26315789473685" y="820.6947368421053"/>
      <point x="124.92631578947369" y="547.8526315789475" type="curve" smooth="yes"/>
      <point x="57.915789473684214" y="220.14736842105265"/>
      <point x="228.79999999999998" y="-18.673684210526318"/>
    </contour>
  </outline>
</glyph>
<glyph name="sterling" format="2">
  <advance width="1165.4105263157894"/>
  <unicode hex="00A3"/>
  <outline>
    <contour>
      <point x="39.09473684210527" y="0.0" type="line"/>
      <point x="992.0842105263157" y="0.0" type="line"/>
      <point x="1012.8210526315789" y="97.66315789473684" type="line"/>
      <point x="836.1684210526316" y="88.96842105263158"/>
      <point x="680.021052631579" y="88.63157894736842"/>
      <point x="416.88421052631577" y="88.63157894736842" type="curve"/>
      <point x="124.42105263157896" y="88.63157894736842" type="line"/>
      <point x="140.8" y="48.77894736842105" type="line"/>
      <point x="324.65263157894736" y="203.2421052631579"/>
      <point x="362.14736842105265" y="330.3789473684211"/>
      <point x="387.47368421052636" y="445.6842105263158" type="curve" smooth="yes"/>
      <point x="493.57894736842104" y="939.578947368421" type="line" smooth="yes"/>
      <point x="546.8842105263158" y="1187.4526315789474"/>
      <point x="661.0105263157894" y="1300.0631578947368"/>
      <point x="865.2421052631579" y="1302.5684210526315" type="curve"/>
      <point x="938.5473684210526" y="1302.5684210526315"/>
      <point x="1055.8526315789475" y="1271.4105263157894"/>
      <point x="1168.6947368421052" y="1207.9157894736843" type="curve"/>
      <point x="1201.2842105263157" y="1304.042105263158" type="line"/>
      <point x="1115.4315789473685" y="1342.863157894737"/>
      <point x="985.221052631579" y="1393.6842105263158"/>
      <point x="862.5263157894736" y="1393.6842105263158" type="curve" smooth="yes"/>
      <point x="631.9157894736843" y="1393.6842105263158"/>
      <point x="459.2210526315789" y="1255.4736842105262"/>
      <point x="396.88421052631577" y="957.2842105263157" type="curve" smooth="yes"/>
      <point x="361.89473684210526" y="799.1578947368421"/>
      <point x="321.9157894736842" y="594.5263157894738"/>
      <point x="288.2526315789474" y="434.0421052631579" type="curve"/>
      <point x="268.58947368421053" y="339.0736842105263"/>
      <point x="229.76842105263157" y="207.2842105263158"/>
      <point x="54.29473684210527" y="69.66315789473684" type="curve"/>
    </contour>
    <contour>
      <point x="174.75789473684213" y="718.3368421052631" type="line"/>
      <point x="295.621052631579" y="723.178947368421"/>
      <point x="408.4842105263158" y="723.3473684210526"/>
      <point x="505.0105263157895" y="723.3473684210526" type="curve"/>
      <point x="567.3684210526316" y="723.3473684210526" type="line"/>
      <point x="663.8947368421052" y="723.3473684210526"/>
      <point x="776.4210526315788" y="723.178947368421"/>
      <point x="893.2842105263157" y="718.3368421052631" type="curve"/>
      <point x="912.0" y="804.9052631578948" type="line"/>
      <point x="792.9684210526316" y="800.063157894737"/>
      <point x="680.1052631578947" y="799.8947368421053"/>
      <point x="583.578947368421" y="799.8947368421053" type="curve"/>
      <point x="521.2210526315789" y="799.8947368421053" type="line"/>
      <point x="424.69473684210527" y="799.8947368421053"/>
      <point x="312.16842105263163" y="800.063157894737"/>
      <point x="193.4736842105263" y="804.9052631578948" type="curve"/>
    </contour>
  </outline>
</glyph>
<glyph name="currency" format="2">
  <advance width="1214.1473684210525"/>
  <unicode hex="00A4"/>
  <outline>
    <contour>
      <point x="608.2315789473685" y="250.73684210526318" type="curve" smooth="yes"/>
      <point x="823.1368421052631" y="250.73684210526318"/>
      <point x="969.1789473684211" y="361.74736842105267"/>
      <point x="1014.6947368421053" y="593.1368421052631" type="curve" smooth="yes"/>
      <point x="1062.0421052631577" y="830.3578947368421"/>
      <point x="900.0" y="1030.7578947368422"/>
      <point x="665.0736842105263" y="1030.7578947368422" type="curve" smooth="yes"/>
      <point x="462.98947368421057" y="1030.7578947368422"/>
      <point x="300.6315789473684" y="921.578947368421"/>
      <point x="255.1157894736842" y="690.1894736842105" type="curve" smooth="yes"/>
      <point x="207.76842105263157" y="451.13684210526316"/>
      <point x="365.9789473684211" y="250.73684210526318"/>
    </contour>
    <contour>
      <point x="165.6421052631579" y="133.6842105263158" type="line"/>
      <point x="249.15789473684208" y="218.21052631578948"/>
      <point x="331.01052631578943" y="294.2315789473684"/>
      <point x="401.0315789473684" y="360.08421052631576" type="curve"/>
      <point x="341.8315789473684" y="424.2947368421053" type="line"/>
      <point x="271.9789473684211" y="358.61052631578946"/>
      <point x="187.9578947368421" y="282.9263157894737"/>
      <point x="99.26315789473684" y="205.57894736842107" type="curve"/>
    </contour>
    <contour>
      <point x="614.2526315789474" y="339.3263157894737" type="curve"/>
      <point x="429.51578947368415" y="344.0"/>
      <point x="307.7473684210526" y="494.2526315789474"/>
      <point x="343.89473684210526" y="678.4842105263158" type="curve" smooth="yes"/>
      <point x="377.8736842105263" y="855.7052631578948"/>
      <point x="504.79999999999995" y="938.1684210526316"/>
      <point x="659.7263157894737" y="942.6736842105263" type="curve"/>
      <point x="839.3052631578947" y="937.8315789473684"/>
      <point x="962.4" y="787.2421052631579"/>
      <point x="926.421052631579" y="605.5157894736842" type="curve" smooth="yes"/>
      <point x="890.4421052631578" y="425.2842105263158"/>
      <point x="780.0" y="343.3263157894737"/>
    </contour>
    <contour>
      <point x="394.65263157894736" y="840.8842105263159" type="curve"/>
      <point x="456.52631578947364" y="899.2421052631579" type="line"/>
      <point x="390.6736842105263" y="971.0947368421052"/>
      <point x="314.9894736842105" y="1053.1157894736841"/>
      <point x="237.6421052631579" y="1141.978947368421" type="curve"/>
      <point x="168.2526315789474" y="1076.1052631578948" type="line"/>
      <point x="251.11578947368423" y="994.421052631579"/>
      <point x="328.9684210526316" y="910.7368421052632"/>
    </contour>
    <contour>
      <point x="1040.1684210526316" y="141.68421052631578" type="curve"/>
      <point x="1109.5578947368422" y="207.55789473684212" type="line"/>
      <point x="1026.6947368421052" y="289.2421052631579"/>
      <point x="948.8421052631579" y="372.9263157894737"/>
      <point x="883.1578947368422" y="442.7789473684211" type="curve"/>
      <point x="821.2842105263159" y="384.4210526315789" type="line"/>
      <point x="887.1368421052632" y="312.56842105263155"/>
      <point x="962.8210526315789" y="230.54736842105265"/>
    </contour>
    <contour>
      <point x="935.9789473684211" y="859.3684210526316" type="line"/>
      <point x="1005.8315789473684" y="925.0526315789474"/>
      <point x="1089.8526315789475" y="1000.7368421052631"/>
      <point x="1178.5473684210526" y="1078.084210526316" type="curve"/>
      <point x="1112.1684210526316" y="1149.9789473684211" type="line"/>
      <point x="1028.6526315789474" y="1065.4526315789476"/>
      <point x="946.8" y="989.4315789473684"/>
      <point x="876.778947368421" y="923.578947368421" type="curve"/>
    </contour>
  </outline>
</glyph>
<glyph name="yen" format="2">
  <advance width="1219.4736842105262"/>
  <unicode hex="00A5"/>
  <outline>
    <contour>
      <point x="580.0631578947368" y="564.5473684210526" type="line"/>
      <point x="667.7052631578947" y="564.5473684210526" type="line"/>
      <point x="1073.6842105263158" y="1050.1263157894737" type="line"/>
      <point x="1167.1789473684212" y="1161.8105263157895"/>
      <point x="1258.5052631578947" y="1271.157894736842"/>
      <point x="1346.8631578947368" y="1369.0105263157895" type="curve"/>
      <point x="1210.5684210526315" y="1369.0105263157895" type="line"/>
      <point x="1058.3578947368424" y="1174.9052631578945"/>
      <point x="984.9052631578948" y="1085.6"/>
      <point x="856.6526315789473" y="930.4842105263158" type="curve"/>
      <point x="645.4526315789474" y="674.5684210526316" type="line"/>
      <point x="632.1052631578948" y="674.5684210526316" type="line"/>
      <point x="532.3578947368421" y="922.1473684210526" type="line"/>
      <point x="469.57894736842104" y="1078.421052631579"/>
      <point x="433.1157894736842" y="1171.578947368421"/>
      <point x="359.8736842105263" y="1369.0105263157895" type="curve"/>
      <point x="240.61052631578949" y="1369.0105263157895" type="line"/>
      <point x="315.7894736842106" y="1206.3157894736842"/>
      <point x="341.2842105263158" y="1145.1368421052632"/>
      <point x="380.4421052631579" y="1049.621052631579" type="curve"/>
    </contour>
    <contour>
      <point x="449.36842105263156" y="0.0" type="curve"/>
      <point x="560.778947368421" y="0.0" type="line"/>
      <point x="586.0842105263158" y="154.82105263157894"/>
      <point x="613.7473684210526" y="287.8105263157895"/>
      <point x="649.7473684210526" y="454.14736842105265" type="curve"/>
      <point x="689.6210526315789" y="642.5052631578948" type="line"/>
      <point x="593.4315789473684" y="642.5052631578948" type="line"/>
      <point x="553.5578947368421" y="454.3157894736842" type="line"/>
      <point x="517.5578947368421" y="287.9789473684211"/>
      <point x="489.5578947368421" y="154.82105263157894"/>
    </contour>
    <contour>
      <point x="129.43157894736842" y="300.7157894736842" type="line"/>
      <point x="248.46315789473684" y="305.5578947368421"/>
      <point x="361.1578947368421" y="305.7263157894737"/>
      <point x="457.6842105263158" y="305.7263157894737" type="curve"/>
      <point x="683.4105263157894" y="305.7263157894737" type="line"/>
      <point x="779.9368421052632" y="305.7263157894737"/>
      <point x="892.6315789473684" y="305.5578947368421"/>
      <point x="1011.3263157894736" y="300.7157894736842" type="curve"/>
      <point x="1027.3684210526317" y="383.0736842105263" type="line"/>
      <point x="908.3368421052631" y="379.0736842105263"/>
      <point x="795.6421052631579" y="378.90526315789475"/>
      <point x="699.1157894736841" y="378.90526315789475" type="curve"/>
      <point x="473.38947368421054" y="378.90526315789475" type="line"/>
      <point x="376.86315789473684" y="378.90526315789475"/>
      <point x="264.1684210526316" y="379.0736842105263"/>
      <point x="145.4736842105263" y="383.0736842105263" type="curve"/>
    </contour>
    <contour>
      <point x="185.45263157894735" y="569.8105263157894" type="line"/>
      <point x="306.14736842105265" y="573.8105263157894"/>
      <point x="418.8421052631579" y="573.978947368421"/>
      <point x="515.3684210526316" y="573.978947368421" type="curve"/>
      <point x="741.0947368421052" y="573.978947368421" type="line"/>
      <point x="837.621052631579" y="573.978947368421"/>
      <point x="950.3157894736843" y="573.8105263157894"/>
      <point x="1067.3473684210528" y="569.8105263157894" type="curve"/>
      <point x="1085.2210526315791" y="652.1684210526315" type="line"/>
      <point x="966.021052631579" y="647.3263157894737"/>
      <point x="853.3263157894737" y="647.1578947368421"/>
      <point x="756.8" y="647.1578947368421" type="curve"/>
      <point x="531.0736842105263" y="647.1578947368421" type="line"/>
      <point x="434.5473684210526" y="647.1578947368421"/>
      <point x="321.85263157894735" y="647.3263157894737"/>
      <point x="203.32631578947365" y="652.1684210526315" type="curve"/>
    </contour>
  </outline>
</glyph>
<glyph name="ordfeminine" format="2">
  <advance width="780.4137931034483"/>
  <unicode hex="00AA"/>
  <outline>
    <contour>
      <point x="379.7471264367816" y="668.528735632184" type="curve" smooth="yes"/>
      <point x="473.3793103448276" y="668.528735632184"/>
      <point x="574.4367816091954" y="722.8965517241379"/>
      <point x="640.9655172413793" y="804.1609195402299" type="curve"/>
      <point x="651.7011494252874" y="804.1609195402299" type="line"/>
      <point x="659.3333333333335" y="682.8965517241379" type="line"/>
      <point x="741.9310344827586" y="682.8965517241379" type="line"/>
      <point x="733.1954022988506" y="766.735632183908"/>
      <point x="728.2988505747127" y="831.3103448275863"/>
      <point x="741.0344827586207" y="900.4137931034483" type="curve"/>
      <point x="763.5632183908046" y="1005.7931034482759" type="line" smooth="yes"/>
      <point x="777.1954022988506" y="1071.5862068965519"/>
      <point x="793.5632183908046" y="1131.5862068965519"/>
      <point x="799.9310344827587" y="1162.8965517241381" type="curve" smooth="yes"/>
      <point x="836.2988505747127" y="1334.735632183908"/>
      <point x="757.8850574712644" y="1450.7356321839081"/>
      <point x="573.8390804597701" y="1450.7356321839081" type="curve" smooth="yes"/>
      <point x="500.0" y="1450.7356321839081"/>
      <point x="387.4252873563218" y="1418.7356321839081"/>
      <point x="314.32183908045977" y="1399.471264367816" type="curve"/>
      <point x="301.3793103448276" y="1310.344827586207" type="line"/>
      <point x="421.54022988505744" y="1352.712643678161"/>
      <point x="517.2183908045977" y="1373.816091954023"/>
      <point x="558.1149425287356" y="1373.816091954023" type="curve" smooth="yes"/>
      <point x="688.0689655172414" y="1373.816091954023"/>
      <point x="757.1264367816092" y="1312.3908045977012"/>
      <point x="720.8045977011494" y="1167.103448275862" type="curve"/>
      <point x="453.95402298850576" y="1115.310344827586" type="line" smooth="yes"/>
      <point x="327.3793103448277" y="1091.310344827586"/>
      <point x="206.32183908045977" y="1049.9999999999998"/>
      <point x="174.32183908045977" y="907.264367816092" type="curve" smooth="yes"/>
      <point x="142.32183908045977" y="768.8965517241378"/>
      <point x="231.58620689655174" y="668.528735632184"/>
    </contour>
    <contour>
      <point x="403.7241379310345" y="743.9770114942529" type="curve" smooth="yes"/>
      <point x="300.71264367816093" y="743.9770114942529"/>
      <point x="230.39080459770116" y="793.4022988505747"/>
      <point x="254.55172413793105" y="910.2068965517242" type="curve" smooth="yes"/>
      <point x="275.44827586206895" y="1008.3218390804598"/>
      <point x="367.9310344827586" y="1029.5862068965516"/>
      <point x="469.31034482758616" y="1050.4827586206895" type="curve" smooth="yes"/>
      <point x="637.5402298850574" y="1084.6436781609195"/>
      <point x="670.4367816091954" y="1096.2758620689654"/>
      <point x="708.5977011494253" y="1112.2758620689656" type="curve"/>
      <point x="664.8045977011494" y="908.9425287356323" type="line"/>
      <point x="576.3218390804599" y="779.7701149425287"/>
      <point x="475.3103448275862" y="743.9770114942529"/>
    </contour>
  </outline>
</glyph>
